<svg width="39" height="23" viewBox="0 0 39 23" fill="none" xmlns="http://www.w3.org/2000/svg"><path d="M38.334 11.5c0 6.328-5.111 11.5-11.5 11.5-6.328 0-11.5-5.172-11.5-11.5S20.445 0 26.774 0c6.449 0 11.56 5.172 11.56 11.5z" fill="#FF8500"/><path d="M26.834 0c6.328 0 11.5 5.172 11.5 11.5S33.223 23 26.834 23c-6.328 0-11.5-5.172-11.5-11.5" fill="#FF8500"/><path d="M26.834 0c6.328 0 11.5 5.172 11.5 11.5S33.223 23 26.834 23" fill="#FF8500"/><path d="M11.378 0C5.111.06 0 5.172 0 11.5S5.111 23 11.5 23c2.982 0 5.659-1.156 7.728-2.981.426-.365.79-.791 1.156-1.217H18.01a14.026 14.026 0 0 1-.852-1.156h4.077a7.8 7.8 0 0 0 .669-1.217h-5.416a7.255 7.255 0 0 1-.486-1.217h6.328c.365-1.156.608-2.373.608-3.651 0-.852-.121-1.643-.243-2.434h-7.058c.06-.426.182-.791.304-1.217h6.328a7.256 7.256 0 0 0-.487-1.217H16.43c.182-.426.426-.79.669-1.217h4.077a5.786 5.786 0 0 0-.913-1.217h-2.251c.365-.426.73-.79 1.156-1.156C17.159 1.217 14.42.122 11.439.122c0-.122 0-.122-.06-.122z" fill="#CB2026"/><path d="M0 11.5C0 17.828 5.111 23 11.5 23c2.982 0 5.659-1.156 7.728-2.981.426-.365.79-.791 1.156-1.217H18.01a14.026 14.026 0 0 1-.852-1.156h4.077a7.8 7.8 0 0 0 .669-1.217h-5.416a7.255 7.255 0 0 1-.486-1.217h6.328c.365-1.156.608-2.373.608-3.651 0-.852-.121-1.643-.243-2.434h-7.058c.06-.426.182-.791.304-1.217h6.328a7.256 7.256 0 0 0-.487-1.217H16.43c.182-.426.426-.79.669-1.217h4.077a5.786 5.786 0 0 0-.913-1.217h-2.251c.365-.426.73-.79 1.156-1.156C17.159 1.217 14.42.122 11.439.122h-.06" fill="#CB2026"/><path d="M11.5 23c2.982 0 5.659-1.156 7.728-2.981.426-.365.79-.791 1.156-1.217H18.01a14.026 14.026 0 0 1-.852-1.156h4.077a7.8 7.8 0 0 0 .669-1.217h-5.416a7.255 7.255 0 0 1-.486-1.217h6.328c.365-1.156.608-2.373.608-3.651 0-.852-.121-1.643-.243-2.434h-7.058c.06-.426.182-.791.304-1.217h6.328a7.256 7.256 0 0 0-.487-1.217H16.43c.182-.426.426-.79.669-1.217h4.077a5.786 5.786 0 0 0-.913-1.217h-2.251c.365-.426.73-.79 1.156-1.156C17.159 1.217 14.42.122 11.439.122h-.06" fill="#CB2026"/><path d="M15.577 14.42l.182-1.034c-.06 0-.182.061-.304.061-.426 0-.487-.243-.426-.365l.365-2.13h.67l.182-1.155h-.608l.121-.73h-1.217s-.73 4.015-.73 4.502c0 .73.426 1.034.974 1.034.365 0 .669-.121.79-.182zm.426-1.946c0 1.703 1.156 2.13 2.13 2.13.912 0 1.277-.183 1.277-.183l.244-1.156s-.67.304-1.278.304c-1.339 0-1.095-.974-1.095-.974h2.495s.182-.79.182-1.095c0-.791-.426-1.765-1.764-1.765-1.278-.121-2.191 1.217-2.191 2.739zm2.13-1.765c.669 0 .547.791.547.852h-1.338c0-.061.121-.852.79-.852zm7.727 3.711l.243-1.338s-.608.305-1.034.305c-.852 0-1.217-.67-1.217-1.4 0-1.46.73-2.251 1.582-2.251.608 0 1.095.365 1.095.365l.183-1.278s-.73-.304-1.4-.304c-1.4 0-2.799 1.217-2.799 3.529 0 1.521.73 2.556 2.19 2.556.487 0 1.157-.183 1.157-.183zM8.884 9.614c-.852 0-1.46.243-1.46.243l-.183 1.035s.547-.244 1.338-.244c.426 0 .791.061.791.426 0 .244-.06.305-.06.305h-.548c-1.034 0-2.19.425-2.19 1.825 0 1.095.73 1.338 1.156 1.338.851 0 1.216-.547 1.277-.547l-.06.487h1.095l.487-3.347c0-1.46-1.217-1.521-1.643-1.521zm.243 2.738c0 .183-.122 1.156-.852 1.156-.365 0-.487-.304-.487-.487 0-.304.183-.73 1.096-.73.182.061.243.061.243.061zm2.556 2.191c.305 0 1.826.06 1.826-1.582 0-1.522-1.46-1.217-1.46-1.826 0-.304.243-.426.669-.426.182 0 .851.061.851.061l.183-1.095s-.426-.122-1.156-.122c-.913 0-1.825.365-1.825 1.582 0 1.4 1.52 1.278 1.52 1.826 0 .365-.425.425-.73.425-.547 0-1.095-.182-1.095-.182l-.182 1.095c.06.122.365.244 1.4.244zM35.96 8.64l-.243 1.643s-.486-.608-1.156-.608c-1.095 0-2.069 1.338-2.069 2.92 0 .974.487 2.008 1.522 2.008.73 0 1.156-.486 1.156-.486l-.061.425h1.217l.913-5.84-1.278-.062zm-.547 3.225c0 .67-.304 1.521-.973 1.521-.426 0-.67-.365-.67-.973 0-.974.426-1.582.974-1.582.426 0 .67.304.67 1.034zM2.251 14.482l.73-4.381.122 4.38h.852l1.582-4.38-.67 4.38h1.279l.973-5.84H5.111l-1.217 3.59-.06-3.59H2.068l-.974 5.84H2.25zm18.863 0c.365-2.008.426-3.651 1.278-3.347.122-.79.304-1.095.426-1.4h-.244c-.547 0-.973.73-.973.73l.122-.668h-1.156l-.791 4.746h1.338v-.061zm7.545-4.868c-.852 0-1.46.243-1.46.243l-.183 1.035s.547-.244 1.338-.244c.426 0 .791.061.791.426 0 .244-.06.305-.06.305h-.548c-1.035 0-2.19.425-2.19 1.825 0 1.095.73 1.338 1.155 1.338.852 0 1.217-.547 1.278-.547l-.06.487h1.095l.486-3.347c.061-1.46-1.216-1.521-1.642-1.521zm.304 2.738c0 .183-.122 1.156-.852 1.156-.365 0-.487-.304-.487-.487 0-.304.183-.73 1.095-.73.183.061.183.061.244.061zm2.373 2.129c.365-2.008.426-3.65 1.278-3.346.122-.791.304-1.095.426-1.4h-.244c-.547 0-.973.73-.973.73l.122-.669h-1.157l-.79 4.746h1.338v-.06z" fill="#fff"/><path d="M13.69 13.569c0 .73.427 1.034.974 1.034.426 0 .791-.121.913-.182l.182-1.034c-.06 0-.182.06-.304.06-.426 0-.486-.243-.426-.365l.365-2.13h.67l.182-1.155h-.608l.121-.73m.852 3.407c0 1.703.548 2.13 1.521 2.13.913 0 1.278-.183 1.278-.183l.243-1.156s-.669.304-1.277.304c-1.339 0-1.096-.974-1.096-.974h2.495s.183-.79.183-1.095c0-.791-.426-1.765-1.765-1.765-1.278-.121-1.582 1.217-1.582 2.739zm1.521-1.765c.67 0 .791.791.791.852h-1.582c0-.061.122-.852.791-.852zm7.728 3.711l.244-1.338s-.609.305-1.035.305c-.851 0-1.217-.67-1.217-1.4 0-1.46.73-2.251 1.582-2.251.609 0 1.096.365 1.096.365l.182-1.278s-.73-.304-1.4-.304c-1.399 0-2.19 1.217-2.19 3.529 0 1.521.122 2.556 1.582 2.556.487 0 1.156-.183 1.156-.183zM7.24 10.952s.548-.243 1.34-.243c.425 0 .79.06.79.426 0 .243-.06.304-.06.304h-.548c-1.034 0-2.19.426-2.19 1.826 0 1.095.73 1.338 1.156 1.338.851 0 1.216-.547 1.277-.547l-.06.486h1.095l.487-3.346c0-1.4-1.217-1.46-1.704-1.46L7.24 10.951zm2.495 1.4c0 .182-.73 1.156-1.46 1.156-.365 0-.487-.304-.487-.487 0-.304.183-.73 1.096-.73.182.06.851.06.851.06zm.609 2.068s.365.123 1.4.123c.304 0 1.825.06 1.825-1.582 0-1.522-1.46-1.217-1.46-1.826 0-.304.243-.426.669-.426.182 0 .852.061.852.061l.182-1.095s-.426-.122-1.156-.122c-.913 0-1.217.365-1.217 1.582 0 1.4.913 1.278.913 1.826 0 .365-.426.425-.73.425m24.095-3.103s-.487-.608-1.156-.608c-1.095 0-1.46 1.338-1.46 2.92 0 .974-.122 2.008.912 2.008.73 0 1.156-.486 1.156-.486l-.06.426h1.216l.913-5.842-1.52 1.582zm-.06 1.582c0 .67-.548 1.521-1.218 1.521-.426 0-.669-.364-.669-.973 0-.974.426-1.582.973-1.582.426 0 .913.304.913 1.034zM2.251 14.482l.73-4.381.122 4.38h.852l1.582-4.38-.67 4.38h1.279l.973-5.84H5.598l-1.704 3.59-.06-3.59h-.67l-2.069 5.84h1.156zm17.585-.001h1.278c.365-2.008.426-3.65 1.278-3.346.122-.791.304-1.095.426-1.4h-.244c-.547 0-.973.73-.973.73l.122-.669m5.293 1.157s.547-.244 1.338-.244c.426 0 .791.061.791.426 0 .244-.06.304-.06.304h-.548c-1.035 0-2.19.426-2.19 1.826 0 1.095.73 1.338 1.155 1.338.852 0 1.217-.547 1.278-.547l-.06.487h1.095l.486-3.347c0-1.4-1.216-1.46-1.703-1.46l-1.582 1.217zm2.494 1.4c0 .182-.73 1.155-1.46 1.155-.365 0-.487-.304-.487-.487 0-.304.183-.73 1.096-.73.243.061.851.061.851.061zm.549 2.128h1.277c.366-2.008.426-3.65 1.278-3.346.122-.791.305-1.095.426-1.4h-.243c-.548 0-.974.73-.974.73l.122-.669" fill="#DCE5E5"/></svg>