<svg width="72" height="22" viewBox="0 0 72 22" fill="none" xmlns="http://www.w3.org/2000/svg"><path d="M26.4 21.257L30.056.686h5.714l-3.543 20.571h-5.829z" fill="#315EFB"/><path d="M26.4 21.257L31.084.686h4.686l-3.543 20.571h-5.829zM52.914.914C51.772.457 49.943 0 47.657 0c-5.714 0-9.828 2.857-9.828 6.971 0 3.086 2.857 4.686 5.142 5.715 2.286 1.028 2.972 1.714 2.972 2.628 0 1.372-1.829 2.057-3.429 2.057-2.285 0-3.543-.342-5.485-1.142l-.8-.343-.8 4.685c1.371.572 3.885 1.143 6.514 1.143C48 21.714 52 18.857 52 14.514c0-2.4-1.486-4.228-4.914-5.714-2.057-1.029-3.314-1.6-3.314-2.629 0-.914 1.028-1.828 3.314-1.828 1.943 0 3.314.343 4.343.8L52 5.37l.914-4.457z" fill="#315EFB"/><path d="M52.914.914C51.772.457 49.943 0 47.657 0c-5.714 0-8.8 2.857-8.8 6.971 0 3.086 1.829 4.686 4.114 5.715 2.286 1.028 2.972 1.714 2.972 2.628 0 1.372-1.829 2.057-3.429 2.057-2.285 0-3.543-.342-5.485-1.142l-.8-.343-.8 4.685c1.371.572 3.885 1.143 6.514 1.143C48 21.714 52 18.857 52 14.514c0-2.4-1.486-4.228-4.914-5.714-2.057-1.029-3.314-1.6-3.314-2.629 0-.914 1.028-1.828 3.314-1.828 1.943 0 3.314.343 4.343.8L52 5.37l.914-4.457zm9.829-.228c-1.371 0-2.4.114-2.971 1.485L51.2 21.257h6.172l1.142-3.429h7.315l.686 3.43H72L67.2.685h-4.457zM60.114 14.4c.343-1.029 2.286-6.057 2.286-6.057s.457-1.257.8-2.057l.343 1.943s1.143 5.142 1.372 6.285h-4.8V14.4z" fill="#315EFB"/><path d="M64.115.686c-1.372 0-2.4.114-2.972 1.485L51.2 21.257h6.172l1.142-3.429h7.315l.686 3.43H72L67.2.685h-3.085zm-4 13.714c.457-1.143 2.285-6.057 2.285-6.057s.457-1.257.8-2.057l.343 1.943s1.143 5.142 1.372 6.285h-4.8V14.4zm-44.229.686l-.571-2.972c-1.029-3.428-4.343-7.2-8-9.028l5.143 18.285h6.171L27.886.8h-6.171l-5.829 14.286z" fill="#315EFB"/><path d="M15.886 15.086l-.571-2.972c-1.029-3.428-4.343-7.2-8-9.028l5.143 18.285h6.171L27.886.8h-5.028l-6.972 14.286z" fill="#315EFB"/><path d="M0 .686l1.029.228c7.314 1.715 12.343 6.057 14.286 11.2L13.257 2.4C12.914 1.029 11.886.686 10.63.686H0z" fill="#315EFB"/><path d="M0 .686C7.314 2.4 13.371 6.857 15.314 12l-1.943-8.114c-.342-1.372-1.485-2.172-2.742-2.172L0 .686z" fill="#315EFB"/><path d="M0 .686C7.314 2.4 13.371 6.857 15.314 12l-1.371-4.457c-.343-1.372-.8-2.743-2.4-3.314L0 .686z" fill="#315EFB"/><path d="M21.6 14.4l-3.885-3.886-1.829 4.343L15.43 12c-1.028-3.429-4.343-7.2-8-9.029l5.143 18.286h6.172L21.6 14.4zm10.63 6.857l-4.915-5.028-.914 5.028h5.828zm13.142-7.086c.457.457.686.8.571 1.257 0 1.372-1.828 2.057-3.428 2.057-2.286 0-3.543-.342-5.486-1.142l-.8-.343-.8 4.686c1.372.57 3.886 1.142 6.514 1.142 3.658 0 6.629-1.028 8.343-2.857l-4.914-4.8zM52 21.257h5.372l1.142-3.429h7.315l.686 3.43H72l-1.942-8.344L63.2 6.286l.343 1.828s1.143 5.143 1.372 6.286h-4.8c.457-1.143 2.285-6.057 2.285-6.057s.457-1.257.8-2.057" fill="#315EFB"/></svg>