<svg width="49" height="49" viewBox="0 0 49 49" fill="none" xmlns="http://www.w3.org/2000/svg"><path d="M18.717 34.659c1.375 7.416 4.42 12 7.318 12 2.899 0 5.946-4.589 7.32-12.014a48.756 48.756 0 0 0-7.32-.54 48.07 48.07 0 0 0-7.318.554zm14.692-16.95c-1.348-7.595-4.438-12.301-7.374-12.301-2.94 0-6.033 4.718-7.378 12.328 2.303.352 4.775.542 7.327.542 2.566 0 5.078-.201 7.425-.57zm-7.425 2.363c-2.639 0-5.203-.2-7.603-.57a49.579 49.579 0 0 0-.418 6.532c0 2.457.171 4.744.467 6.845a50.265 50.265 0 0 1 7.604-.568c2.64 0 5.204.2 7.604.569.296-2.102.468-4.39.468-6.847 0-2.337-.151-4.526-.421-6.544a50.131 50.131 0 0 1-7.7.583z" fill="#FFB800" fill-opacity=".7"/><path d="M26.034 3.157c-12.614 0-22.877 10.262-22.877 22.877 0 12.614 10.263 22.876 22.877 22.876 12.614 0 22.876-10.262 22.876-22.876 0-12.615-10.262-22.877-22.876-22.877zm9.08 31.794c-.994 5.34-2.865 9.549-5.223 11.768-1.251.233-2.54.361-3.857.361-1.318 0-2.605-.128-3.856-.36-2.357-2.22-4.227-6.422-5.22-11.755-3.318.66-6.198 1.676-8.278 2.956-.339-.492-.654-1-.95-1.52 2.294-1.418 5.382-2.518 8.937-3.218a50.306 50.306 0 0 1-.498-7.15c0-2.393.158-4.687.45-6.834-3.606-.71-6.736-1.83-9.04-3.275.289-.524.6-1.035.931-1.532 2.117 1.334 5.021 2.372 8.388 3.038.977-5.487 2.874-9.818 5.278-12.083 1.25-.232 2.54-.36 3.858-.36s2.607.128 3.859.36c2.398 2.26 4.291 6.577 5.27 12.048 3.375-.68 6.293-1.728 8.365-3.05.331.496.642 1.008.933 1.531-2.29 1.455-5.411 2.587-9.015 3.306a50.93 50.93 0 0 1 .453 6.852c0 2.512-.176 4.913-.497 7.15 3.554.7 6.645 1.8 8.939 3.215-.296.52-.612 1.029-.95 1.521-2.108-1.3-4.969-2.315-8.278-2.97z" fill="#FFB800" fill-opacity=".7"/><path d="M16.559 32.502c1.375 7.416 4.42 12 7.317 12 2.9 0 5.947-4.589 7.321-12.014a48.756 48.756 0 0 0-7.32-.54 48.07 48.07 0 0 0-7.318.554zm14.692-16.95C29.903 7.956 26.813 3.25 23.876 3.25c-2.939 0-6.033 4.718-7.378 12.328 2.303.352 4.776.542 7.328.542 2.566 0 5.078-.201 7.425-.57zm-7.425 2.363c-2.639 0-5.203-.2-7.603-.57a49.58 49.58 0 0 0-.418 6.532c0 2.457.17 4.744.466 6.845a50.265 50.265 0 0 1 7.605-.568c2.64 0 5.203.2 7.604.569.295-2.102.467-4.39.467-6.846 0-2.337-.15-4.527-.42-6.545a50.131 50.131 0 0 1-7.7.583z" stroke="#8825CD"/><path d="M23.877 1C11.262 1 1 11.262 1 23.877 1 36.49 11.262 46.753 23.877 46.753c12.614 0 22.876-10.262 22.876-22.876C46.753 11.262 36.491 1 23.877 1zm9.079 31.794c-.993 5.34-2.864 9.549-5.222 11.769-1.251.232-2.54.36-3.857.36-1.318 0-2.606-.128-3.857-.36-2.356-2.22-4.226-6.422-5.219-11.754-3.318.66-6.199 1.675-8.279 2.955-.338-.492-.653-1-.95-1.52 2.295-1.418 5.383-2.518 8.938-3.218a50.306 50.306 0 0 1-.498-7.15c0-2.393.158-4.687.45-6.834-3.606-.71-6.736-1.83-9.04-3.275.289-.524.6-1.035.931-1.532 2.117 1.334 5.021 2.372 8.388 3.038.977-5.487 2.874-9.818 5.278-12.083 1.25-.232 2.54-.36 3.858-.36 1.317 0 2.607.128 3.858.36 2.399 2.26 4.292 6.577 5.271 12.048 3.375-.68 6.293-1.728 8.365-3.05.331.496.642 1.008.933 1.531-2.291 1.455-5.412 2.587-9.015 3.306a50.93 50.93 0 0 1 .453 6.852c0 2.512-.176 4.913-.497 7.15 3.554.7 6.644 1.8 8.938 3.215-.295.52-.61 1.029-.949 1.521-2.108-1.3-4.97-2.315-8.278-2.97z" stroke="#8825CD"/></svg>