<svg width="42" height="48" viewBox="0 0 42 48" fill="none" xmlns="http://www.w3.org/2000/svg"><path d="M21.371 13.82V2.686c0-.038.018-.07.021-.106h-.542a1.68 1.68 0 0 0-1.425.79c-2.131 3.413-6.752 5.618-11.77 5.618-.913 0-1.83-.073-2.73-.217a1.691 1.691 0 0 0-1.355.38c-.374.32-.59.788-.59 1.28v6.3c10.614-.04 17.61-1.906 18.391-2.91zm1.873-11.134V13.82c.783 1.005 7.778 2.871 18.392 2.911v-6.09a1.683 1.683 0 0 0-1.946-1.66c-.898.144-1.816.217-2.728.217-5.135 0-9.8-2.274-11.88-5.793a1.68 1.68 0 0 0-1.448-.825h-.41c.003.036.02.068.02.106zm-1.873 13.298C17.63 17.828 9.06 18.58 2.981 18.605v6.56c0 10.455 17.362 21.744 18.39 22.403V15.984zm1.873 0v31.584c1.026-.657 18.392-11.947 18.392-22.404v-6.559c-6.08-.027-14.649-.777-18.392-2.62z" fill="#FFB800" fill-opacity=".7"/><path d="M19.39 11.84V.705c0-.038.018-.07.022-.106h-.542a1.68 1.68 0 0 0-1.425.79c-2.132 3.413-6.753 5.618-11.771 5.618-.913 0-1.83-.072-2.729-.217a1.691 1.691 0 0 0-1.356.38A1.69 1.69 0 0 0 1 8.45v6.3c10.613-.04 17.61-1.905 18.39-2.91zM21.265.705V11.84c.782 1.005 7.777 2.87 18.391 2.91V8.66A1.683 1.683 0 0 0 37.71 7c-.897.145-1.816.217-2.728.217-5.135 0-9.799-2.274-11.88-5.792a1.68 1.68 0 0 0-1.447-.826h-.411c.004.036.02.068.02.106zM19.39 14.004C15.649 15.847 7.079 16.599 1 16.624v6.56C1 33.64 18.362 44.927 19.39 45.587V14.004zm1.873 0v31.584c1.025-.658 18.391-11.947 18.391-22.405v-6.558c-6.08-.027-14.648-.778-18.391-2.621z" stroke="#8825CD"/></svg>