<svg width="51" height="50" viewBox="0 0 51 50" fill="none" xmlns="http://www.w3.org/2000/svg"><path d="M26.876 27.345a.737.737 0 1 0 0-1.474.737.737 0 0 0 0 1.474z" fill="#FFB800" fill-opacity=".7"/><path d="M26.595 2.919c-12.98 0-23.54 10.56-23.54 23.54C3.055 39.44 13.615 50 26.595 50c12.98 0 23.54-10.56 23.54-23.54 0-12.981-10.56-23.541-23.54-23.541zm-.592 21.375v-10.56a.872.872 0 0 1 1.744 0v10.56a2.48 2.48 0 0 1 1.609 2.314 2.483 2.483 0 0 1-2.48 2.48c-.268 0-.521-.054-.763-.132l-4.995 6.242a.869.869 0 0 1-1.226.136.873.873 0 0 1-.136-1.226l4.994-6.24a2.454 2.454 0 0 1-.357-1.26c0-1.06.673-1.96 1.61-2.314zm9.532 18.746a18.48 18.48 0 0 1-8.638 2.153c-1.847 0-3.703-.279-5.516-.841a18.451 18.451 0 0 1-10.936-9.082 18.454 18.454 0 0 1-1.312-14.155c1.357-4.385 4.233-8.021 8.13-10.375l-1.7-.527.368-1.191 3.998 1.237-1.238 3.998-1.191-.368.48-1.55a16.692 16.692 0 0 0-7.182 9.291 16.718 16.718 0 0 0 1.189 12.826 16.716 16.716 0 0 0 9.909 8.23 16.723 16.723 0 0 0 12.826-1.19 16.715 16.715 0 0 0 8.23-9.91 16.72 16.72 0 0 0-1.19-12.824.872.872 0 0 1 1.544-.814 18.454 18.454 0 0 1 1.312 14.155 18.453 18.453 0 0 1-9.083 10.937z" fill="#FFB800" fill-opacity=".7"/><path d="M24.82 25.29a.737.737 0 1 0 0-1.474.737.737 0 0 0 0 1.474z" stroke="#8825CD" stroke-width="1.37"/><path d="M24.54.864C11.56.864 1 11.424 1 24.404c0 12.98 10.56 23.54 23.54 23.54 12.981 0 23.541-10.56 23.541-23.54 0-12.98-10.56-23.54-23.54-23.54zm-.591 21.374V11.68a.872.872 0 0 1 1.743 0v10.56a2.48 2.48 0 0 1 1.609 2.314 2.483 2.483 0 0 1-2.48 2.48c-.268 0-.521-.054-.763-.132l-4.994 6.242a.869.869 0 0 1-1.226.136.873.873 0 0 1-.136-1.226l4.993-6.24a2.453 2.453 0 0 1-.357-1.26 2.483 2.483 0 0 1 1.61-2.315zm9.532 18.747a18.48 18.48 0 0 1-8.639 2.152 18.61 18.61 0 0 1-5.516-.84A18.451 18.451 0 0 1 8.39 33.215 18.454 18.454 0 0 1 7.078 19.06c1.357-4.385 4.234-8.022 8.13-10.376l-1.7-.526.369-1.191 3.997 1.237-1.238 3.997-1.19-.367.479-1.55a16.692 16.692 0 0 0-7.182 9.29 16.718 16.718 0 0 0 1.19 12.827 16.716 16.716 0 0 0 9.908 8.23 16.723 16.723 0 0 0 12.826-1.19 16.716 16.716 0 0 0 8.23-9.91 16.72 16.72 0 0 0-1.19-12.825.872.872 0 0 1 1.544-.813 18.454 18.454 0 0 1 1.312 14.155 18.453 18.453 0 0 1-9.082 10.937z" stroke="#8825CD" stroke-width="1.37"/></svg>