<svg width="592" height="213" viewBox="0 0 592 213" fill="none" xmlns="http://www.w3.org/2000/svg"><path d="M190.469 166.222h-33.456v43.248h-46.371v-43.248H0v-32.067L96.849 3.53h49.892L56.935 127.388h55.175v-38.54h44.903v38.54h33.456v38.834zM292.734 213c-17.022 0-32.185-4.217-45.49-12.651-13.304-8.433-23.772-20.593-31.402-36.48-7.435-16.083-11.153-35.206-11.153-57.369 0-22.163 3.718-41.188 11.153-57.075 7.63-16.082 18.098-28.34 31.402-36.774C260.549 4.217 275.712 0 292.734 0c17.022 0 32.185 4.217 45.489 12.65 13.305 8.434 23.675 20.692 31.109 36.775 7.631 15.887 11.446 34.912 11.446 57.075 0 22.163-3.815 41.286-11.446 57.369-7.434 15.887-17.804 28.047-31.109 36.48C324.919 208.783 309.756 213 292.734 213zm0-40.305c12.522 0 22.304-5.394 29.348-16.181 7.239-10.787 10.859-27.459 10.859-50.014 0-22.555-3.62-39.227-10.859-50.014-7.044-10.787-16.826-16.18-29.348-16.18-12.326 0-22.109 5.393-29.348 16.18-7.044 10.788-10.566 27.459-10.566 50.014 0 22.555 3.522 39.227 10.566 50.014 7.239 10.787 17.022 16.181 29.348 16.181zM592 166.222h-33.457v43.248h-46.37v-43.248H401.531v-32.067L498.379 3.53h49.892l-89.805 123.858h55.174v-38.54h44.903v38.54H592v38.834z" fill="#8825CD"/><path d="M248.446 189h-12.628a4.954 4.954 0 0 1-4.957-4.95l-10.853-36.791a4.953 4.953 0 0 1 4.957-4.95l27.656 8.338a4.954 4.954 0 0 1 4.957 4.95l-4.175 28.453a4.953 4.953 0 0 1-4.957 4.95zm87.142 0h12.629a4.954 4.954 0 0 0 4.957-4.95l10.853-36.791a4.953 4.953 0 0 0-4.957-4.95l-27.656 8.338a4.954 4.954 0 0 0-4.957 4.95l4.175 28.453a4.953 4.953 0 0 0 4.956 4.95z" fill="#E2B39C"/><path d="M298.59 30.04l-.135-.018-12.068.02C235.429 32.672 209 68.321 209 109.086c0 42.364 37.379 76.707 83.489 76.707 46.109 0 83.488-34.343 83.488-76.707 0-40.767-26.381-76.416-77.387-79.046z" fill="#EAC5B0"/><path d="M221.264 22.004a.846.846 0 0 0-.79.384c-.167.266-16.576 26.896 3.633 54.12a.836.836 0 0 0 1.09.225L263.204 54.7a.834.834 0 0 0 .342-1.064c-.13-.286-13.246-28.69-42.282-31.631zm139.378.384a.851.851 0 0 0-.79-.384c-29.036 2.942-42.152 31.345-42.282 31.631a.833.833 0 0 0 .342 1.064l38.007 22.034a.836.836 0 0 0 1.09-.225c20.208-27.224 3.801-53.854 3.633-54.12z" fill="#EAC5B0"/><path d="M325.216 119.669c0 13.494-14.652 24.433-32.725 24.433-18.074 0-32.725-10.939-32.725-24.433 0-13.495 14.651-24.434 32.725-24.434 18.073 0 32.725 10.939 32.725 24.434z" fill="#E2B39C"/><path d="M279.849 45.802v-8.031c-36.696 3.972-65.107 31.414-65.107 64.68 0 14.956 5.747 28.732 15.403 39.731-6.28-9.563-9.872-20.656-9.872-32.485 0-31.574 25.595-57.902 59.576-63.895z" fill="#F2D6C9"/><path d="M229.238 159.148c15.311 16.316 37.97 26.646 63.257 26.646 46.109 0 83.488-34.343 83.488-76.707 0-8.972-1.279-17.696-3.816-25.874-29.425 124.549-142.929 75.935-142.929 75.935z" fill="#DDB19B"/><path d="M223.434 26s-7.305 7.618-6.821 26.987c0 0 2.402-20.437 12.614-25.939L223.434 26z" fill="#F2D6C9"/><path d="M262.145 118.36s2.674-15.207 20.122-18.865c0 0-11.465 5.109-20.122 18.865z" fill="#EAC5B0"/><path d="M332.496 187.912a4.93 4.93 0 0 0 3.096 1.088h12.628a4.954 4.954 0 0 0 4.957-4.95l3.852-13.057c-9.451 10.941-18.724 15.236-24.533 16.919z" fill="#DDB19B"/><path d="M282.956 118.36c0 2.772-1.335 5.019-2.982 5.019-1.647 0-2.982-2.247-2.982-5.019 0-2.772 1.335-5.019 2.982-5.019 1.647 0 2.982 2.247 2.982 5.019zm25.023 0c0 2.772-1.335 5.019-2.981 5.019-1.647 0-2.982-2.247-2.982-5.019 0-2.772 1.335-5.019 2.982-5.019 1.646 0 2.981 2.247 2.981 5.019z" fill="#CE9A80"/><path d="M282.904 81.069c0 1.88-1.306 3.403-2.917 3.403-1.611 0-2.917-1.524-2.917-3.403 0-1.88 1.306-3.404 2.917-3.404 1.611 0 2.917 1.524 2.917 3.404zm25.274 0c0 1.88-1.306 3.403-2.917 3.403-1.611 0-2.917-1.524-2.917-3.403 0-1.88 1.306-3.404 2.917-3.404 1.611 0 2.917 1.524 2.917 3.404z" fill="#806253"/></svg>