<svg width="542" height="255" viewBox="0 0 542 255" fill="none" xmlns="http://www.w3.org/2000/svg"><path d="M485.584 47.175s-18.451 14.804-34.256 9.542c-15.806-5.264-21.949-35.066-21.949-35.066s3.541-6.088 0-8.187c0 0 .721-5.037-2.82-5.456-3.542-.42-17.468 3.777-3.301 14.693 0 0 4 53.729 34.453 55.617 30.431 1.891 30.06-5.782 30.06-5.782l-2.187-25.361z" fill="#39A89E"/><path d="M429.379 21.651s.765-1.318 1.224-2.934v-.002c3.28-1.001 1.575-9.337.132-10.736-1.071-1.034-2.558-.332-3.258.105-.721-1.397-4.569-8.712-6.689-8.04-1.574.496 0 5.484 1.224 8.733-4.569 1.672-8.985 6.047 1.246 13.924 0 0 .437 5.843 2.099 13.746a44.198 44.198 0 0 0 7.783-2.424c-2.602-6.773-3.761-12.372-3.761-12.372zm91.862 80.831l-13.292 16.877 2.908 3.338 17.489-14.009-7.105-6.206z" fill="#F5F1D4"/><path d="M494.788 42.968s21.446 2.206 26.277 9.252c4.81 7.048 22.234 25.965 20.397 40.433-1.836 14.466-10.013 18.731-10.013 18.731l-10.209-8.902s6.69-5.378 5.575-10.758c-1.115-5.378-15.959-19.658-15.959-19.658l-11.674-23.368-4.394-5.73z" fill="#39A89E"/><path d="M541.594 250.092s-28.114 3.994-62.808 3.994c-34.672 0-62.786-3.994-62.786-3.994s28.114-3.996 62.786-3.996c34.694 0 62.808 3.996 62.808 3.996z" fill="#723AA0"/><path d="M505.413 240.534l.568 3.406.765 4.628-19.413 4.823c-1.093.273-1.945-.971-1.289-1.887.918-1.274 2.273-2.575 3.694-3.773 3.454-2.853 7.411-5.138 7.411-5.138l8.264-2.059zm-33.558 0l-.218 3.441-.284 4.683-20.004.356c-1.114.018-1.683-1.386-.83-2.134 1.18-1.034 2.798-2 4.459-2.844 3.979-2.009 8.351-3.349 8.351-3.349l8.526-.153z" fill="#fff"/><path d="M508.648 120.498s-2.47 30.577-9.16 57.79l6.821 63.632-10.713 1.093s-11.061-41.775-14.275-51.59c-3.585-11.018 0-38.266 0-38.266s-9.466 20.897-9.466 30.953c0 10.058 1.115 56.621 1.115 56.621s-7.127 1.983-10.712 0c-3.564-1.983-6.34-62.047-6.34-62.047l13.882-65.118s18.604 4.949 38.848 6.932z" fill="#FFB800"/><path d="M513.633 122.76c.546-6.44 2.536-49.328-.131-58.943-5.946-21.48-18.713-20.849-18.713-20.849-3.914 9.08-12.112 2.938-12.112 2.938s-14.363 8.714-9.597 32.524c3.061 15.368-3.17 29.44-7.979 37.494 14.122 9.796 32.464 12.172 48.532 6.836z" fill="#39A89E"/><path d="M481.781 46.615s-5.159 3.08-5.203 5.828c-.022 2.746 3.433 7.072 3.433 7.072l5.071-5.81 4.897 7.048s15.784-12.114 5.4-18.764c-10.362-6.65-13.598 4.626-13.598 4.626z" fill="#fff"/><path d="M472.271 22.067s-3.847 21.45 7.892 21.23c11.74-.221 16.09-8.664 15.281-13.736-.83-5.072-1.508-15.15-11.586-16.379-10.056-1.23-11.587 8.885-11.587 8.885z" fill="#F5F1D4"/><path d="M505.785 17.31c-.787-1.535-2.252-2.58-3.673-3.529l.022-.04a6.703 6.703 0 0 0-.547-2.848c-.393-.938-1.027-1.768-1.705-2.527.175 1.156.262 2.575 0 3.714-.503-1.196-1.027-2.426-1.967-3.336-.634-.63-1.443-1.069-2.252-1.454a22.61 22.61 0 0 0-12.002-2.002c-.94.103-1.858.26-2.798.212-.94-.05-1.902-.337-2.558-1.001.459 1.22 1.202 2.676 2.23 3.48-8.723 3.006-7.455 11.41-7.455 11.41 2.842-1.098 5.793.332 5.793.332-.306 7.852 14.254 11.578 14.254 11.578 2.142-2.06 5.116-.831 5.116-.831 1.727 1.191 1.726 2.636 1.726 2.636 3.302-2.38 4.089-14.365 4.089-14.365a4.014 4.014 0 0 1 2.579.175c-.371-.479-.59-1.06-.852-1.605z" fill="#161516"/><path d="M492.318 34.348a3.854 3.854 0 0 0 4.438 3.208 3.874 3.874 0 0 0 3.213-4.451 3.888 3.888 0 0 0-4.459-3.21 3.877 3.877 0 0 0-3.192 4.453z" fill="#F5F1D4"/><path d="M494.591 33.21l.481 2.905s.066.529.131 1.38c.088 1.116.197 2.789.175 4.494 0 2.647-.284 5.395-1.312 6.342-2.186 2.024-10.471 2.416-11.63 1.889-.371-.166-.568-1.653-.656-3.605a56.255 56.255 0 0 1-.087-3.398c-.022-3.574.109-7.168.109-7.168l12.789-2.84z" fill="#F5F1D4"/><path d="M495.204 37.494c.087 1.117.196 2.79.175 4.495-3.258 1.513-9.904 4.377-13.598 4.626a55.415 55.415 0 0 1-.088-3.397c.372-.077 12.046-2.473 13.511-5.724z" fill="#EBE1B3"/><path d="M320.767 248.44s-71.806 5.022-160.384 5.022C71.806 253.462 0 248.44 0 248.44s71.806-5.02 160.383-5.02c88.578 0 160.384 5.02 160.384 5.02z" fill="#723AA0"/><path d="M270.821 187.806h-52.34a3.68 3.68 0 1 1 0-7.359h52.34a3.68 3.68 0 1 1 0 7.359z" fill="#302F31"/><path d="M241.04 229.522h7.113v-35.935h-7.113v35.935z" fill="#EBE1B3"/><path d="M239.208 201.803h10.886v-13.997h-10.886v13.997z" fill="#F5F1D4"/><path d="M223.188 232.361h42.927v-4.512h-42.927v4.512z" fill="#302F31"/><path d="M229.479 236.237a3.878 3.878 0 1 1-3.877-3.877 3.879 3.879 0 0 1 3.877 3.877zm38.098 0a3.879 3.879 0 0 1-3.877 3.877 3.878 3.878 0 1 1 3.877-3.877z" fill="#EBE1B3"/><path d="M294.406 173.207c-.518-10.883-28.507-13.475-28.507-13.475-1.23 0-13.018.074-22.419.131-9.401-.057-21.189-.131-22.42-.131 0 0-27.986 2.592-28.507 13.475-.52 10.885 14.256 67.601 14.256 67.601h12.178s1.038-56.716-2.071-58.787c0 0 15.021-.247 26.564-1.249 11.543 1.002 26.564 1.249 26.564 1.249-3.109 2.071-2.074 58.787-2.074 58.787h12.18s14.776-56.716 14.256-67.601z" fill="#FFB800"/><path d="M217.567 240.811l-.273 3.299-.078.978-.279 3.499h-19.175c-1.079 0-1.593-1.352-.763-2.053.275-.224.568-.451.88-.676 1.012-.715 2.208-1.384 3.436-1.982 3.866-1.858 8.072-3.065 8.072-3.065h8.18z" fill="#302F31"/><path d="M217.216 245.088l-.279 3.499h-19.175c-1.079 0-1.593-1.352-.763-2.053.275-.224.568-.451.88-.676 4.261.234 10.901.266 19.337-.77z" fill="#fff"/><path d="M270.5 240.811l.27 3.299.078.978.28 3.499H290.3c1.082 0 1.595-1.352.763-2.053a17.83 17.83 0 0 0-.879-.676c-1.011-.715-2.209-1.384-3.437-1.982-3.863-1.858-8.07-3.065-8.07-3.065H270.5z" fill="#302F31"/><path d="M270.848 245.088l.279 3.499H290.3c1.081 0 1.595-1.352.763-2.053a17.87 17.87 0 0 0-.88-.676c-4.259.234-10.899.266-19.335-.77z" fill="#fff"/><path d="M270.849 159.849l-.437.204a68.883 68.883 0 0 1-57.619.949s1.384-20.463 5.552-44.887c1.835-10.76 4.222-22.282 7.26-33.174l.026-.01.036-.016a42.408 42.408 0 0 1 28.606-.76c.731.243 1.452.506 2.179.786 9.964 35.584 14.397 76.908 14.397 76.908z" fill="#48C1B4"/><path d="M225.63 82.932l-.026.009c-3.038 10.892-5.425 22.415-7.26 33.174-4.58 3.407-10.327 8.267-11.266 11.921-.523 2.007 1.624 3.684 4.766 5.045l-2.878 10.116h-6.5s-13.638-4.161-12.859-15.418c.777-11.258 22.143-35.508 25.19-39.784 1.501-2.1 6.324-3.842 10.833-5.063z" fill="#39A89E"/><path d="M229.479 143.197v-5.822s-11.028-1.434-17.635-4.296l-2.878 10.118h20.513z" fill="#F5F1D4"/><path d="M256.208 82.932l.243.009c3.038 10.892 5.208 22.415 7.043 33.174 4.58 3.407 10.326 8.267 11.266 11.921.52 2.007-1.625 3.684-4.766 5.045l2.878 10.116h6.5s13.637-4.161 12.858-15.418c-.777-11.258-22.142-35.508-25.189-39.784-1.503-2.1-6.324-3.842-10.833-5.063z" fill="#39A89E"/><path d="M252.358 143.197v-5.822s11.028-1.434 17.636-4.296l2.877 10.118h-20.513z" fill="#F5F1D4"/><path d="M216.462 143.197H270.5v-35.424h-54.038v35.424z" fill="#302F31"/><path d="M254.272 82.155c-.598 3.691-2.976 10.892-12.448 10.892-9.446 0-12.968-7.153-14.15-10.853a42.79 42.79 0 0 1 2.495-.74 42.345 42.345 0 0 1 21.943.057c.724.193 1.445.413 2.16.644z" fill="#F5F1D4"/><path d="M252.111 81.51c-2.559 2.76-6.952 6.554-11.779 6.677-5.623.14-8.858-4.36-10.164-6.733a42.344 42.344 0 0 1 21.943.057z" fill="#EBE1B3"/><path d="M254.565 68.877c0 9.536-6.117 17.27-13.669 17.27-7.549 0-13.671-7.734-13.671-17.27 0-9.535 6.122-17.268 13.671-17.268 7.552 0 13.669 7.733 13.669 17.268z" fill="#F5F1D4"/><path d="M231.794 72.12a4.083 4.083 0 0 1-4.079 4.08 4.079 4.079 0 1 1 4.079-4.08zm26.851 0a4.08 4.08 0 0 1-4.08 4.08 4.08 4.08 0 1 1 4.08-4.08z" fill="#F5F1D4"/><path d="M256.075 68.328c-.174 1.299-2.383 1.392-2.069 2.664-.362-1.058-1.024-2.568-1.845-3.331-.018-3.025-2.341-5.882-5.299-6.521-2.147-.46-4.376.151-6.569.039a10.106 10.106 0 0 1-6.832-3.203c-3.043 3.76-5.35 8.484-5.437 13.319-.392-1.238-1.325-2.072-2.498-2.62 0 0-3.356-11.132 1.116-13.398 0 0-1.878-5.508 5.506-6.546 7.387-1.036 20.282 2.396 22.417-2.46 0 0 2.981 7.901 0 9.783 0 0 3.146-.072 1.51 12.273z" fill="#4E3398"/><path d="M71.834 65.624c.002-1.615-.085-3.27-.198-4.958-.334-4.972.997-9.133 3.41-12.77-.087.267-.17.532-.248.803-1.578 5.487-1.258 11.62-2.964 16.925zm32.347 1.844c.247-5.396 3.542-10.505 2.825-15.862-1.283-9.62-15.163-15.69-23.737-12.943-3.075.986-5.309 3.263-6.816 5.992-2.5 2.774-4.443 6.04-5.38 9.65-.898 3.474-.341 6.959-.195 10.487a20.818 20.818 0 0 1-.153 3.53 14.568 14.568 0 0 1-2.028 3.028c-1.492 1.702-3.444 2.937-5.025 4.552-2.011 2.055-3.36 4.663-4.483 7.311-1.607 3.78-2.814 8.052-1.533 11.953 1.269 3.866 4.742 6.597 8.349 8.482 6.789 3.554 14.698 4.931 22.286 3.879 4.7-.648 9.424-2.302 12.787-5.647 3.297-3.281 4.991-7.921 5.428-12.551.438-4.629-.284-9.291-1.246-13.842-.559-2.646-1.203-5.315-1.079-8.019z" fill="#F14E41"/><path d="M49.025 194.212c-11.243-1.271-18.703-5.792-22.167-13.438-10.017-22.096 17.665-62.375 18.847-64.08l3.194 2.218c-.277.399-27.613 40.165-18.499 60.259 2.862 6.312 9.275 10.069 19.065 11.178l-.44 3.863z" fill="#F5F1D4"/><path d="M75.942 141.978H44.931c-5.483 0-9.928-4.445-9.928-9.928v-21.083c0-5.481 4.445-9.928 9.928-9.928h31.011v40.939zm15.083 54.305h-52.34a3.68 3.68 0 1 1 0-7.361h52.34a3.681 3.681 0 1 1 0 7.361z" fill="#302F31"/><path d="M65.371 188.585s27.195 1.244 35.75 0l-8.166 52.253h10.618s22.815-62.827 15.041-70.601c-7.776-7.774-32.267-6.919-32.267-6.919L63.8 174.905l1.572 13.68z" fill="#FFB800"/><path d="M94.706 240.808l.268 3.297.355 4.484h19.178c1.083 0 1.592-1.356.762-2.057-1.154-.972-2.705-1.87-4.316-2.654-3.861-1.86-8.07-3.07-8.07-3.07h-8.177z" fill="#302F31"/><path d="M94.706 240.808l.268 3.297c1.242.674 2.603 1.134 3.99 1.428 2.21.467 4.49.515 6.758.495 2.023-.014 4.106-.53 5.231-2.15-3.861-1.86-8.07-3.07-8.07-3.07h-8.177z" fill="#F5F1D4"/><path d="M99.332 72.937s5.806 2.445 8.398 13.85c2.591 11.401 4.664 38.873 4.664 38.873l19.162 6.287.275 8.745-38.875 1.918 1.038-33.795 5.338-35.878z" fill="#39A89E"/><path d="M148.844 226.36l1.226 3.068 1.661 4.181 18.324-5.643c1.038-.321 1.123-1.766.124-2.19-1.388-.589-3.136-.992-4.905-1.267-4.237-.642-8.615-.557-8.615-.557l-7.815 2.408z" fill="#302F31"/><path d="M148.844 226.36l1.226 3.068c1.386.279 2.818.318 4.234.19 2.247-.202 4.44-.827 6.603-1.514 1.929-.61 3.766-1.714 4.367-3.595-4.237-.642-8.615-.557-8.615-.557l-7.815 2.408z" fill="#F5F1D4"/><path d="M50.09 153.72s-6.763 28.702 9.823 34.01c16.588 5.311 63.53-15.073 63.53-15.073l23.576 54.223 11.406-3.109s-13.479-69.093-22.291-70.051c-8.812-.96-36.801 0-36.801 0H50.09z" fill="#FFB800"/><path d="M99.332 153.716l-4.305.776-12.294 2.232-36.403 6.594s15.16-41.659 16.135-47.116c.971-5.458 1.102-20.456.068-27.774-1.042-7.316 10.464-15.495 10.464-15.495h26.335l.209.25c13.637 15.985-.209 80.533-.209 80.533z" fill="#48C1B4"/><path d="M95.026 154.492l-12.294 2.232c8-53.701-4.743-83.791-4.743-83.791h21.343l.208.25c7.87 10.053-2.525 70.245-4.514 81.309z" fill="#4E3398"/><path d="M77.99 72.937s7.645 11.766 15.94 9.174c8.291-2.591 5.402-9.174 5.402-9.174H77.989zm62.391 65.842c-1.925-1.7-5.797-6.456-8.826-6.832-1.466-.181-10.752 3.537-10.752 3.537s-15.981-.71-30.78-1.739l-.763 8.922c10.409-.153 22.295-.417 32.166-.783 7.336 2.014 14.874.275 18.474-.848.992-.3 1.251-1.567.481-2.257z" fill="#F5F1D4"/><path d="M73 72.937s-13.216 4.26-16.066 19.81c-2.853 15.548-1.297 51.831 3.368 54.425 4.665 2.591 32.654-1.295 32.654-1.295v-12.7l-18.728-1.035S84.92 82.409 73 72.937z" fill="#39A89E"/><path d="M61.241 237.999h7.112v-35.937H61.24v35.937z" fill="#EBE1B3"/><path d="M59.413 210.278H70.3v-13.995H59.413v13.995z" fill="#F5F1D4"/><path d="M43.389 240.838h42.933v-4.513H43.389v4.513z" fill="#302F31"/><path d="M49.682 244.712a3.875 3.875 0 1 1-7.751 0 3.874 3.874 0 0 1 3.874-3.874 3.874 3.874 0 0 1 3.877 3.874zm38.098 0a3.875 3.875 0 1 1-7.75 0 3.874 3.874 0 0 1 3.874-3.874 3.874 3.874 0 0 1 3.876 3.874z" fill="#EBE1B3"/><path d="M96.57 148.874h259.298v-5.677H96.569v5.677z" fill="#F14E41"/><path d="M103.764 155.248h244.912v-6.374H103.764v6.374z" fill="#E4372D"/><path d="M114.719 253.602l10.361-98.354h-7.778l-7.399 98.354h4.816zm227.818 0l-7.403-98.354h-7.774l10.359 98.354h4.818zM109.088 143.197h30.5v-3.829h-30.5v3.829z" fill="#302F31"/><path d="M178.04 143.197h-48.908l7.781-35.424h48.91l-7.783 35.424z" fill="#302F31"/><path d="M103.257 53.073s2.974 18.88-7.316 18.46c-10.292-.415-13.953-7.902-13.133-12.331.818-4.431 1.609-13.255 10.46-14.14 8.85-.886 9.989 8.01 9.989 8.01z" fill="#F5F1D4"/><path d="M85.46 63.459a3.404 3.404 0 0 1-6.693-1.24 3.4 3.4 0 0 1 3.964-2.724 3.4 3.4 0 0 1 2.729 3.964z" fill="#F5F1D4"/><path d="M80.334 59.944s2.626-1.02 4.477.825c0 0 12.83-2.99 12.705-9.878 0 0 2.616-1.198 5.082-.18 0 0-2.266-11.388-16.857-7.5-14.59 3.889-6.974 19.008-6.974 19.008s.025-1.265 1.567-2.275z" fill="#F14E41"/><path d="M83.475 62.416l-.47 2.539s-.063.46-.137 1.207c-.103.976-.233 2.44-.254 3.934-.039 2.323.158 4.739 1.036 5.586 1.87 1.82 9.132 2.319 10.161 1.877.323-.138.53-1.437.653-3.148.064-.915.11-1.939.14-2.977h-.007c.09-3.134.037-6.287.037-6.287l-11.159-2.73z" fill="#F5F1D4"/><path d="M82.868 66.162c-.103.976-.234 2.44-.255 3.934 2.844 1.391 8.604 4.026 11.85 4.315.064-.915.11-1.939.14-2.977h-.007c-.325-.075-10.514-2.394-11.728-5.272z" fill="#EBE1B3"/></svg>