<svg width="1440" height="1477" viewBox="0 0 1440 1477" fill="none" xmlns="http://www.w3.org/2000/svg"><path fill-rule="evenodd" clip-rule="evenodd" d="M-45-164h1530V917.477S1485 1477 720 1477-45 917.477-45 917.477V-164z" fill="url(#paint0_linear)"/><path fill-rule="evenodd" clip-rule="evenodd" d="M-.734-30h900.311s101.493 133.037-44.065 352.5c-145.557 219.463-323.463 55.114-446.743 228.299-123.28 173.184-303.434 162.993-444.11-16.428C-176.016 354.951-.734-30-.734-30z" fill="#fff"/><path fill-rule="evenodd" clip-rule="evenodd" d="M1648.25 675.852a49.958 49.958 0 0 1-.58 26.137l-76.08 257.779c-4.74 16.071-17.16 28.654-33.7 31.347-63.5 10.345-232.75 18.225-395.07-144.095-205.067-205.064-91.28-373.261 90.53-373.014 91.3.125 162.65-82.203 211.06-164.192 25.7-43.527 104.06-38.107 116.17 10.966l87.67 355.072z" fill="#BC89D9"/><defs><linearGradient id="paint0_linear" x1="732.155" y1="1457.14" x2="1141.29" y2="35.338" gradientUnits="userSpaceOnUse"><stop stop-color="#8825CD"/><stop offset="1" stop-color="#A165C4"/></linearGradient></defs></svg>