<svg width="484" height="378" viewBox="0 0 484 378" fill="none" xmlns="http://www.w3.org/2000/svg"><path d="M226.184 334.651c-13.94.034-27.88.312-41.795 1.595-5.246.483-10.383 1.547-15.642 1.977-10.504.857-20.82 2.455-31.361 3.193-8.489.594-17.013.945-25.478 1.698-7.935.706-16.72.543-24.594-.624-5.83-.864-11.686-1.35-17.418-2.738-6.412-1.553-13.377-2.662-20.058-2.623-9.526.057-18.803.064-27.92 2.805-3.2.962-7.117 2.544-9.547 4.564-5.563 4.623-6.316 16.158-.762 20.953 9.356 8.07 29.324 11.237 42.438 11.386 14.37.164 28.33-.72 42.722-1.24 13.372-.483 26.711-1.17 40.106-1.146 27.357.049 54.718 0 82.026-1.514 25.656-1.423 51.378-.935 77.09-.935 26.368 0 52.556.172 78.734 3.076 11.405 1.265 23.025 1.709 34.488 2.595 10.266.794 20.131-.016 30.357-.75 8.585-.616 17.115-2.443 24.915-5.533 6.176-2.445 17.183-10.043 19.075-15.88 5.307-16.364-74.811-15.971-87.112-15.934-13.761.041-27.632.416-41.383-.019-5.784-.182-11.483-1.12-17.128-2.146-5.623-1.023-11.288-.762-16.99-1.193-23.78-1.792-47.612-1.53-71.467-1.53-7.762 0-15.529-.057-23.296-.037z" fill="#F1F2F2"/><path d="M49.67 163.18c-.097.405-.178.861.046 1.212.197.307.57.441.92.547 8.159 2.459 16.91.286 25.15-1.889a189.73 189.73 0 0 0 4.122-1.121c.668-.194 1.355-.406 1.883-.858.735-.63 1.042-1.632 1.126-2.597.198-2.288-.662-4.523-1.56-6.638a137.44 137.44 0 0 0-7.91-15.748c-.38-.649-.774-1.306-1.337-1.804-1.11-.982-2.737-1.2-4.189-.909-1.452.291-2.77 1.029-4.045 1.784-4.478 2.653-7.457 5.378-8.375 10.509-1.093 6.106-4.391 11.508-5.832 17.512z" fill="#3B455A"/><path d="M80.813 134.045c-3.484-12.392-19.037-8.842-22.663 1.755-2.186 6.388 1.774 14.968 7.846 18.19-.202 1.654.194 5.982.282 5.982l6.527-.007a46.07 46.07 0 0 0-.093-4.845 10.54 10.54 0 0 0 2.3-.683c3.557-1.522 5.913-5.142 6.688-8.933.775-3.789.16-7.735-.887-11.459z" fill="#C67A6D"/><path d="M66.134 361.588l-.397 4.077-8.368 3.536-3.589-4.348 4.383-3.806 8.368-3.537-.397 4.078z" fill="#3B455A"/><path d="M73.123 278.951l-6.443 81.351-8.064 1.081-6.673-69.337-5.52-21.997 26.7 8.902z" fill="#CCD2D9"/><path d="M89.952 257.154l6.16 96.177-6.227 2.305L74.56 282.49l-8.431-21.179 23.823-4.157z" fill="#CCD2D9"/><path d="M90.54 358.836l8.74 2.636 3.192-4.851-4.762-3.375-7.954 1.477.784 4.113z" fill="#3B455A"/><path d="M81.393 156.88c-1.68-.21-3.4-.032-5.083.203a77.698 77.698 0 0 0-14.931 3.612c-1.561.545-3.113 1.146-4.53 1.991-6.893 4.111-6.334 10.551-7.598 17.723-.882 4.999-2.173 10.132-2.523 15.205-.91 13.227-5.065 26.606-10.799 38.717-2.418 5.105-5.3 10.031-7.018 15.405-2.849 8.905-2.841 19.397-2.036 28.614 8.108 2.198 15.702 6.315 24.041 7.382 6.86.877 13.789-.367 20.679-.968 8.148-.712 16.354-.522 24.51-1.141 8.156-.618 16.401-2.097 23.621-5.891-.745.391-11.078-27.233-11.807-29.71-1.221-4.147-1.875-8.433-2.56-12.698-3.387-21.063-7.663-42.074-14.541-62.326-1.767-5.203-2.12-14.707-8.708-16.003a10.33 10.33 0 0 0-.717-.115z" fill="#7FC5A3"/><path d="M69.355 130.709c3.772.678 8.424 3.857 9.333 7.784.439 1.89-.186 3.631.365 5.636 1.07 3.958-3.785 9.788 1.02 12.539 2.47 1.413 5.557.955 8.367.454.34-.061.697-.128.966-.343.444-.353.52-1.012.35-1.55-.168-.537-.528-.991-.844-1.459-3.302-4.898-2.502-11.922-3.786-17.5-1.282-5.567-4.314-11.111-9.905-13.396-2.787 1.781-4.814 4.683-5.508 7.887l-.358-.052z" fill="#3B455A"/><path d="M55.608 161.538c1.782-1.093 3.53-2.237 4.562-4.278 1.669-3.298.965-8.424 1.164-12.002.208-3.772.557-7.881 3.178-10.635 1.713-1.798 3.819-2.291 6.198-2.53 1.629-.164 1.744.439 3.048-.541 1-.751 1.732-2.803 1.876-3.979.244-1.984-.728-3.973-2.166-5.382-2.211-2.168-4.693-3.128-7.727-2.938-10.649.663-18.09 7.551-20.2 18.046-1.014 5.045.526 10.436-.6 15.304-.696 3.005-2.428 5.114-2.928 8.294-1.299 8.251-4.932 18.969-3.864 27.299.04.308.106.648.359.833.514.378 1.187-.191 1.562-.704l6.577-8.985c.86-1.176 1.732-2.372 2.23-3.736 1.243-3.397.088-7.559 2.231-10.487 1.17-1.599 2.85-2.567 4.5-3.579z" fill="#3B455A"/><path d="M44.652 165.107l-21.989 40.644 24.564 18.038 5.7-5.571-13.91-12.726 21.138-16.369-2.493-26.658-13.01 2.642z" fill="#7FC5A3"/><path d="M75.17 154.62a8.084 8.084 0 0 0 8.083-8.084h1.608c0 5.352-4.34 9.69-9.691 9.69v-1.606z" fill="#BABCBE"/><path d="M70.919 153.971h3.027c.831 0 1.505.675 1.505 1.506v.23c0 .832-.674 1.506-1.505 1.506H70.92a1.506 1.506 0 0 1-1.506-1.506v-.23c0-.831.675-1.506 1.506-1.506z" fill="#686E72"/><path d="M83.154 140.6v-6.648c0-7.185-5.824-13.009-13.009-13.009-7.183 0-13.008 5.824-13.008 13.009v6.648h-2.858v-6.698c0-8.763 7.104-15.867 15.866-15.867 8.763 0 15.867 7.104 15.867 15.867v6.698h-2.858zm-32.671-1.174c-.492.74-.492 1.244-.492 1.87v2.43c0 .626 0 1.131.492 1.871l.802.939v-8.05l-.802.94z" fill="#BABCBE"/><path d="M55.603 148.48h-1.534a2.785 2.785 0 0 1-2.784-2.785v-6.368a2.785 2.785 0 0 1 2.785-2.785h1.533a2.785 2.785 0 0 1 2.784 2.785v6.368a2.785 2.785 0 0 1-2.784 2.785z" fill="#686E72"/><path d="M90.037 139.426c.491.74.491 1.244.491 1.87v2.43c0 .626 0 1.131-.491 1.871l-.802.939v-8.05l.802.94z" fill="#777F87"/><path d="M84.92 148.48h1.533a2.785 2.785 0 0 0 2.784-2.785v-6.368a2.785 2.785 0 0 0-2.784-2.785h-1.534a2.785 2.785 0 0 0-2.784 2.785v6.368a2.785 2.785 0 0 0 2.784 2.785z" fill="#686E72"/><path d="M241.961 182.878l-8.033-3.144-1.461 1.572v2.6h-4.083l.362 4.699 3.721 1.421 7.837-1.06 1.657-6.088z" fill="#E1CFB5"/><path d="M309.157 347.254c.8-.88 1.733-1.361 2.787-1.195 1.013.159 1.923.846 2.341 1.763.285.627.345 1.325.401 2.007.292 3.534.266 11.923-4.441 13.132-1.979.507-3.615-.899-4.143-2.675-.796-2.676.382-10.089 3.055-13.032z" fill="#3B455A"/><path d="M307.483 293.946l.247 21.554c-.287 9.573 1.208 19.2.921 28.774-.066 2.201-.639 4.523-.085 6.706.543 2.134 2.277 2.511 4.057 1.431 2.386-1.448 2.001-4.83 2.398-7.297 1.092-6.78 2.372-13.528 3.511-20.299.559-3.32-.592-7.972-.342-11.332l3.482-18.063-14.189-1.474z" fill="#C67A6D"/><path d="M332.109 259.12l-9.38 41.67-1.993 39.351-14.874-.334-4.046-110.071 28.836.523 1.457 28.861z" fill="#8EC3CB"/><path d="M287.881 346.47c.835-.833 1.785-1.259 2.829-1.031 1.002.219 1.88.96 2.257 1.903.257.643.287 1.345.314 2.032.14 3.553-.245 11.948-4.988 12.879-1.993.392-3.564-1.112-4.014-2.92-.679-2.725.812-10.074 3.602-12.863z" fill="#3B455A"/><path d="M295.721 296.971l-1.262 21.519c-.103 5.98-.9 11.914-1.518 17.854-.576 5.516.319 11.263-2.564 16.281-.904 1.574-2.732 2.621-4.009.71-.985-1.473-.4-3.931-.589-5.603-.77-6.822-1.731-13.623-2.55-20.439-.402-3.343.968-7.936.876-11.304l-2.626-18.205 14.242-.813z" fill="#C67A6D"/><path d="M276.898 256.572l-1.21 40.45 6.347 40.905 15.131.452-.668-44.269 8.006-36.712 2.688-24.031-24.008-2.831-6.286 26.036z" fill="#8EC3CB"/><path d="M295.891 147.753l25.864-.617 14.996 27.89-5.329 26.123-.95 31.263-36.895.503-12.139-1.971 3.223-33.403-1.848-44.62 13.078-5.168z" fill="#CCD2D9"/><path d="M294.958 164.653l-13.473 26.933-14.526 2.887-29.086-4.447 3.569-9.099h26.671l15.06-28.006 11.785 11.732z" fill="#CCD2D9"/><path d="M297.51 126.082c3.9-11.336 18.865-7.087 21.95 3.006 2.013 6.585-3.072 15.13-9.894 17.021a6.46 6.46 0 0 0-.054.706c-.005 1.057-.135 2.099-.292 3.155-.058.394-6.029-.753-6.695-.884-.233-.046-.492-.109-.618-.305-.241-.375.151-1.479.195-1.895l.154-1.476c-3.365-1.642-5.489-5.141-6.081-8.703-.596-3.578.163-7.218 1.335-10.625z" fill="#C67A6D"/><path d="M307.275 115.839c.802.815 1.117 1.951 1.349 3.042.138.652.257 1.326.118 1.971-.557 2.574-3.108 2.439-5.082 3.269-2.435 1.023-4.534 2.906-5.897 5.075-2.134 3.396-1.174 7.766-.309 11.513.305 1.32.919 3.283-.105 4.46-1.04 1.197-3.444 1.012-4.691.396-1.138-.562-2.073-1.603-3.324-1.812-1.323-.221-3.111.36-3.727-.854-.171-.338-.187-.751-.403-1.06-.732-1.045-2.55.179-3.58-.558-.634-.453-.63-1.419-.416-2.184.215-.764.576-1.539.426-2.317-.127-.668-.61-1.196-.908-1.804-.589-1.202-.385-2.765.491-3.78 1.63-1.885 4.783-1.527 6.529-3.301.909-.924 1.262-2.257 1.601-3.518.339-1.261.746-2.591 1.718-3.446 1.201-1.056 2.935-.876 4.12-2.129.696-.736 1.161-1.693 1.942-2.333 1.03-.844 3.043-1.494 4.325-1.924 2.032-.682 4.304-.248 5.823 1.294z" fill="#3B455A"/><path d="M316.74 133.93c.07 3.731-1.783 7.764-.065 11.049 1.735 3.315 6.059 3.912 9.744 4.085.606.028 8.384.7 8.417.552.583-2.599 1.185-5.249 2.543-7.531s3.63-4.173 6.231-4.335c-.751-.13-1.129-1.049-1.043-1.824.087-.774.488-1.473.72-2.217.57-1.829.015-3.963-1.364-5.248-2.751-2.564-7.74-1.499-10.097-4.444-1.463-1.826-1.289-4.475-2.056-6.705-1.481-4.312-6.201-5.214-9.73-7.161-3.724-2.055-7.23-3.181-11.529-2.465-5.328.888-9.289 6.313-7.234 11.418 2.636 6.548 13.173 5.983 15.147 12.631.211.714.302 1.448.316 2.195z" fill="#3B455A"/><path d="M314.104 147.605l-8.024 11.341-3.772-.309-6.287-11.501 18.083.469z" fill="#8EC3CB"/><path d="M134.24 130.922l-4.995-9.12 4.91-9.406 5.119 2.711-.617 7.73 2.699 2.631-1.047 6.63-6.069-1.176z" fill="#EFBFA5"/><path d="M210.951 217.129l.679 58.691-6.255 75.552h-8.504l-10.176-69.704-11.637-69.824 35.893 5.285z" fill="#3B455A"/><path d="M196.919 354.958l9.196 4.599 4.599-4.599-4.599-4.598h-9.196v4.598zm-44.275-137.829l-.167 33.954 5.735 100.289h8.504l14.226-66.551 7.595-72.977-35.893 5.285z" fill="#3B455A"/><path d="M166.667 354.958l-9.196 4.598-4.598-4.598 4.598-4.598h9.196v4.598z" fill="#3B455A"/><path d="M143.8 237.574c-.182 5.387-.065 12.593 2.203 12.862.425.051.834-.137 1.208-.319 3.944-1.916 6.756-4.625 10.644-6.476 4.075-1.94 8.706-2.955 13.232-3.656 6.75-1.078 13.612-1.726 20.407-1.787 5.839-.051 11.911 2.612 17.431 4.078 2.125.563 3.853 2.112 5.619 3.326 2.607 1.794 3.75 2.504 3.394-1.161-.58-5.98-1.182-11.959-1.918-17.922-1.468-11.895-3.465-23.761-6.845-35.276-1.291-4.398-2.78-8.736-4.27-13.072l-5.439-15.84c-2.253-6.562-6.057-11.185-12.716-13.48-5.756-1.984-12.904-2.527-18.502.25-6.223 3.087-9.182 13.604-12.205 19.223-2.649 4.925-5.988 18.357-6.98 23.667-1.194 6.39-2.296 12.75-3.164 19.093-.962 7.026-1.639 14.031-1.835 20.995-.022.77-.177 2.923-.264 5.495z" fill="#FFB800"/><path d="M174.539 150.029l11.492.11s12.332 43.096 12.785 50.524c.445 7.291 3.562 36.858 3.562 36.858s-12.727.3-27.392 2.086c-14.336 3.068-15.541 1.254-15.541 1.254s7.738-31.075 7.994-40.003c.263-9.132 1.432-39.293 1.432-39.293l5.668-11.536z" fill="#fff"/><path d="M177.433 149.917c.135.117.29.21.47.269.357.117.744.074 1.118.03l4.56-.54c-.501-4.655 2.221-5.708 4.872-8.702 2.688-3.036 1.861-7.128 1.71-10.843-.043-1.034-.094-2.1-.531-3.039-.767-1.647-2.555-2.556-4.29-3.095-4.428-1.376-9.492-1.037-13.391 1.473-1.037.667-2.006 1.507-2.568 2.606-.867 1.694-.647 3.714-.405 5.602.371 2.901 1.23 5.75 2.87 8.194 1.528 2.278 4.442 3.369 4.776 6.103.087.706.301 1.5.809 1.942z" fill="#EFBFA5"/><path d="M169.105 130.306c.259 1.17.804 2.354.52 3.517-1.858-.63-3.072-2.531-3.73-4.463-.299-.876-.516-1.803-.441-2.73.076-.926.478-1.857 1.21-2.381 1.02-.731 2.852-.444 3.144.88.294 1.336-1.092 3.417-.703 5.177z" fill="#3B455A"/><path d="M159.24 120.03c.044-1.402.578-2.654 1.831-3.5 1.08-.73 2.325-1.335 2.981-2.494.509-.9.584-2.014 1.088-2.917.914-1.634 2.897-2.115 4.622-2.669 4.316-1.386 6.639-2.986 11.21-1.212 3.25 1.262 7.449 1.431 10.465 3.271 1.26.768 2.331 2.003 3.211 3.378 3.047 4.764 3.779 11.463 1.794 16.432-.444 1.112-1.009 2.135-1.612 3.114-1.207 1.959-2.499 4.368-4.636 5.326-.134-.922-.821-1.431-1.036-2.338-.155-.653-.103-1.337-.069-2.008.131-2.613.932-6.744-1.677-8.04-3.299-1.638-9.488-.16-12.666 1.227-2.811 1.227-7.557 2.823-10.554 1.509-2.783-1.221-5.046-6.085-4.952-9.079z" fill="#3B455A"/><path d="M168.248 149.101l-20.284 17.039-4.734-34.83-10.751-2.083-1.882 47.337 11.504 10.805 20.925-10.335 5.222-27.933z" fill="#FFB800"/><path d="M177.803 233.791c0-40.084 32.495-72.579 72.579-72.579 40.084 0 72.578 32.495 72.578 72.579 0 40.084-32.494 72.579-72.578 72.579s-72.579-32.495-72.579-72.579z" fill="#474EBB"/><path d="M267.417 185.371c-2.173-1.922-5.181-2.883-9.024-2.883-3.177 0-6.06.669-8.65 2.006-2.591 1.337-4.618 3.114-6.078 5.326-1.463 2.216-2.194 4.66-2.194 7.333 0 3.009 1.085 5.475 3.259 7.396 2.172 1.923 5.222 2.883 9.15 2.883 3.176 0 6.037-.646 8.586-1.942 2.549-1.295 4.555-3.072 6.017-5.328 1.462-2.256 2.194-4.679 2.194-7.27 0-3.091-1.086-5.598-3.26-7.521zm-1.805 86.099s-11.555 4.607-10.507-1.331l7.914-44.849c.986-5.589-3.313-10.714-8.988-10.714h-22.006l-.66 2.794s8.28.447 7.018 7.601l-8.12 46.012c-.703 3.987.719 8.127 3.716 10.847 4.484 4.069 10.64 3.802 16.071 2.069 1.813-.578 17.592-7.638 17.568-7.696l-2.006-4.733z" fill="#fff"/><path d="M250.315 306.37h-.021.021zm-.067 0h-.024.024zm-.069-.001h-.02.02zm-.072 0h-.016.016zm-.084 0h-.004.004zm-.066 0l-.016-.001.016.001zm-.07-.001h-.014.014zm-.071 0h-.011.011zm-.151-.002h-.001.001zm-.069 0h-.005.005zm-.074-.001h-.001.001z" fill="#E9E9E9"/><path d="M322.96 233.725v-.021.021zm0-.066v-.025.025zm0-.07v-.02.02zm-.001-.072v-.016.016zm0-.083v-.008.008zm0-.066v-.018.018zm-.001-.07v-.016.016zm0-.071v-.012.012zm-.001-.151v-.003.003zm-.001-.069V233v.007zm-.001-.073v-.003.003z" fill="#83B3BA"/><path d="M250.381 306.37h-.157l-.044-.001h-.222l-.017-.001h-.136l-.139-.002h-.075l-.068-.001h-.001c-24.109-.28-45.375-12.326-58.37-30.651 11.843 8.397 26.3 13.35 41.923 13.35 40.084 0 72.579-32.495 72.579-72.579 0-15.622-4.953-30.08-13.35-41.922 18.325 12.994 30.371 34.26 30.651 58.368v.003l.001.066v.007l.001.066v.003l.001.139v.083l.001.052v.166a.937.937 0 0 1 .001.053v.222c0 18.968-7.275 36.234-19.188 49.165a73.399 73.399 0 0 1-6.132 5.921 72.533 72.533 0 0 1-21.246 12.692 72.416 72.416 0 0 1-26.013 4.801z" fill="#444AAC"/><path d="M188.174 228.271c-.003-.274-.008-.548-.008-.823a58.78 58.78 0 0 1 10.234-33.229v-.015c0-.446.28-.821.663-.938 10.74-15.106 28.407-24.964 48.382-24.964a59.29 59.29 0 0 1 20.174 3.515 79.427 79.427 0 0 0-.977-.006c-36.542 0-67.545 23.657-78.468 56.46z" fill="#6C71C9"/><path d="M.514 107.231c-1.571 12.719-.19 32.899 13.488 60.131 13.68 27.232 29.043 40.388 40.184 46.721 7.963 4.526 18.014 4.623 26.598.312l4.794-2.409c3.894-1.956 5.568-6.492 3.74-10.132l-11.455-22.803c-1.828-3.64-6.466-5.005-10.36-3.049l-6.699 3.365c-2.207 1.109-4.8 1.098-6.844-.071-10.417-5.961-18.594-22.665-18.594-22.665s-8.518-16.533-7.081-28.448c.282-2.338 1.822-4.424 4.03-5.533l6.698-3.365c3.894-1.956 5.568-6.492 3.74-10.132L31.299 86.35c-1.829-3.64-6.467-5.005-10.36-3.05l-4.795 2.409C7.56 90.02 1.637 98.14.514 107.23z" fill="#D34E4E"/><path d="M67.569 217.555c-4.69 0-9.31-1.157-13.383-3.472-11.142-6.333-26.505-19.489-40.184-46.722a162.837 162.837 0 0 1-4.952-10.826c.633 1.048 32.537 53.526 72.098 53.526 2.436 0 4.906-.2 7.394-.622a8.216 8.216 0 0 1-2.965 2.547l-4.794 2.408c-4.193 2.106-8.735 3.161-13.214 3.161z" fill="#C14A4A"/><path d="M51.375 225.702c1.3 1.658 6.304 4.138 8.492 3.527 5.052-1.41-.938-4.877-2.74-6.542.774-.453 1.535-.868 2.192-1.451.603-.535-6.237-3.788-7.268-3.679-2.474.262-2.811 1.808-4.227 3.647 1.215 1.467 2.373 2.994 3.55 4.498z" fill="#C67A6D"/><path d="M184.75 142.786a8.509 8.509 0 0 0 8.509-8.508h1.692c0 5.633-4.567 10.2-10.201 10.2v-1.692z" fill="#BABCBE"/><path d="M180.274 142.104h3.187c.875 0 1.585.71 1.585 1.585v.242c0 .876-.71 1.585-1.585 1.585h-3.187a1.585 1.585 0 0 1-1.585-1.585v-.242c0-.875.71-1.585 1.585-1.585z" fill="#686E72"/><path d="M193.154 128.029v-6.998c0-7.562-6.13-13.693-13.693-13.693s-13.694 6.131-13.694 13.693v6.998h-3.007v-7.05c0-9.224 7.477-16.702 16.701-16.702s16.702 7.478 16.702 16.702v7.05h-3.009zm-34.391-1.236c-.517.779-.517 1.31-.517 1.969v2.558c0 .659 0 1.19.517 1.969l.844.989v-8.474l-.844.989z" fill="#BABCBE"/><path d="M164.153 136.324h-1.615a2.931 2.931 0 0 1-2.931-2.931v-6.704a2.931 2.931 0 0 1 2.931-2.931h1.615a2.93 2.93 0 0 1 2.93 2.931v6.704a2.93 2.93 0 0 1-2.93 2.931z" fill="#686E72"/><path d="M200.399 126.793c.517.779.517 1.31.517 1.969v2.558c0 .659 0 1.19-.517 1.969l-.844.989v-8.474l.844.989z" fill="#BABCBE"/><path d="M195.013 136.324h1.614a2.931 2.931 0 0 0 2.931-2.931v-6.704a2.931 2.931 0 0 0-2.931-2.931h-1.614a2.93 2.93 0 0 0-2.931 2.931v6.704a2.93 2.93 0 0 0 2.931 2.931z" fill="#686E72"/><path d="M312.108 145.92a8.09 8.09 0 0 0 8.091-8.09h1.609c0 5.356-4.343 9.699-9.7 9.699v-1.609z" fill="#BABCBE"/><path d="M307.852 145.271h3.029c.833 0 1.507.675 1.507 1.508v.23c0 .833-.674 1.507-1.507 1.507h-3.029a1.506 1.506 0 0 1-1.507-1.507v-.23c0-.833.674-1.508 1.507-1.508z" fill="#686E72"/><path d="M320.099 131.888v-6.654c0-7.192-5.829-13.021-13.02-13.021s-13.021 5.829-13.021 13.021v6.654h-2.861v-6.704c0-8.771 7.111-15.881 15.882-15.881 8.77 0 15.881 7.11 15.881 15.881v6.704h-2.861zm-32.701-1.175c-.492.74-.492 1.245-.492 1.872v2.432c0 .627 0 1.131.492 1.872l.802.941v-8.057l-.802.94z" fill="#BABCBE"/><path d="M292.522 139.775h-1.535a2.787 2.787 0 0 1-2.787-2.787v-6.374a2.787 2.787 0 0 1 2.787-2.787h1.535a2.787 2.787 0 0 1 2.787 2.787v6.374a2.787 2.787 0 0 1-2.787 2.787z" fill="#686E72"/><path d="M326.987 130.713c.492.74.491 1.245.491 1.872v2.432c0 .627.001 1.131-.491 1.872l-.802.941v-8.058l.802.941z" fill="#BABCBE"/><path d="M321.865 139.775h1.535a2.787 2.787 0 0 0 2.787-2.787v-6.374a2.787 2.787 0 0 0-2.787-2.787h-1.535a2.787 2.787 0 0 0-2.787 2.787v6.374a2.787 2.787 0 0 0 2.787 2.787z" fill="#686E72"/><path d="M216.341 100.64l-2.401-9.707-8.262-3.488-1.566 5.584 4.432 5.582.616 4.946 7.181-2.917z" fill="#EFBFA5"/><path d="M188.538 149.784l25.843-10.394-8.1-40.732 9.322-1.109 15.618 42.507-3.217 12.879-29.242 19.702-10.224-22.853z" fill="#FFB800"/><path d="M275.863 0l-140.08.604c-7.255.032-13.167 5.993-13.135 13.249l.3 69.525c.031 7.256 5.993 13.167 13.249 13.136l97.054-.419 23.065 31.125 4.029-31.242 15.932-.069c7.256-.03 13.167-5.993 13.135-13.249l-.299-69.525C289.081 5.88 283.12-.03 275.863 0z" fill="#ECECEE"/><path d="M323.179 212.565l2.461 3.604-4.99 6.5-5.55-.453-2.73-4.282 3.486-2.503-.486-1.015.699-1.514 7.11-.337z" fill="#C67A6D"/><path d="M322.613 149.059l28.646 32.954 1.399 14.434-28.255 22.306-5.069-7.336 18.273-19.511-17.701-17.33 2.707-25.517z" fill="#CCD2D9"/><path d="M406.652 362.61l7.304-6.748c2.119-1.072 4.361-1.821 6.178-1.798 1.319.017 2.414.44 3.074 1.441.635.962.763 2.227.331 3.254a4.367 4.367 0 0 1-.635 1.027l-.003.004c-.218.273-.456.53-.692.785-.151.162-.317.336-.494.518-1.512 1.638-4.045 4.306-5.05 4.91-1.475.884-4.719 3.244-8.554.589l.045-.037c-1.395-.944-1.805-2.495-1.504-3.945z" fill="#3B455A"/><path d="M412.385 303.851l.59 8.467 2.894 41.22-2.894 4.795s-.59 3.834 3.834 3.539c1.316-.087 5.978-6.014 5.978-6.014l-.674-2.716 3.281-30.95-.031-8.989 1.57-9.981-14.548.629z" fill="#EFBFA5"/><path d="M458.69 352.142c1.359-.427 2.626-.361 3.641.443.975.774 1.534 2.03 1.436 3.229-.067.817-.412 1.573-.753 2.312-1.764 3.824-6.712 12.468-12.388 10.884-2.385-.666-3.288-3.102-2.803-5.253.729-3.241 6.319-10.185 10.867-11.615z" fill="#3B455A"/><path d="M430.079 298.907l.988 12.191 23.932 43.09s-3.44 6.009-1.258 6.531c2.182.522 8.58-1.298 8.593-8.084-2.516-8.219-12.406-36.126-12.406-36.126l-4.631-7.201.068-13.533-15.286 3.132z" fill="#EFBFA5"/><path d="M457.117 258.097c.19-3.594-.961-12.971-2.141-16.331-4.306-12.252-5.135-18.291-5.135-28.263 0-9.972-1.923-41.132-1.923-41.132l-9.024-9.685-18.426.517-10.232 3.375s-2.166 39.78-2.781 52.601c-.439 9.15-1.074 17.075-1.91 27.677 0 0-2.346 24.18 1.278 50.103 0 0 .808 8.607 1.171 9.361l.075.394h41.121v-14.773a576.71 576.71 0 0 0 3.901-14.279c1.578-6.068 3.676-12.895 4.026-19.565z" fill="#CCD2D9"/><path d="M448.451 165.473l3.499 4.176s-1.826 37.5-2.11 43.854c-.284 6.355 7.906 31.749 7.906 31.749l-33.922 4.425s-4.989-27.12-6.425-40.593c-1.435-13.472 19.088-46.316 19.088-46.316l11.964 2.705z" fill="#8825CD"/><path d="M414.443 164.833l-6.923 3.286s.974 40.482-.801 50.763c-1.082 6.268-5.295 26.564-5.295 26.564l10.955 3.748s6.744-25.387 8.084-38.86c1.34-13.472-.12-46.976-.12-46.976l-5.9 1.475z" fill="#8825CD"/><path d="M415.787 150.004c-.899 3.478 1.165 6.914 2.971 9.847.737 1.199 1.88 2.866.928 4.234-1.065 1.532-3.712 1.225-4.876.08-.822-.808-1.226-1.905-1.577-2.974-1.572-4.79-3.765-11.5-3.337-16.536.345-4.038 5.296-11.208 10.397-8.642.926.465 1.519 1.34 2.027 2.201.304.513.596 1.051.657 1.638.24 2.338-2.014 2.939-3.496 4.196-1.826 1.549-3.12 3.735-3.694 5.956z" fill="#3B455A"/><path d="M424.299 162.498c-3.407-.433-6.254-2.814-7.779-5.681-1.523-2.867-1.887-6.165-1.827-9.382.198-10.704 14.392-11.299 19.911-3.606 4.81 6.704-.4 19.928-10.305 18.669z" fill="#EFBFA5"/><path d="M433.988 148.882c.117 1.296.776 2.671.958 4.003.335 2.451-.214 5.632.683 7.872 2.49-.341 5.517-1.898 7.361-3.606 1.883-1.745 1.544-4.339 1.965-6.908.39-2.377.886-4.765.75-7.17-.743-13.165-13.881-20.364-25.455-14.425-4.379 2.246-6.294 7.956-3.073 11.708 3.464 4.036 10.503 2.286 14.652 5.28.92.664 1.628 1.857 2.159 3.246z" fill="#3B455A"/><path d="M424.013 161.394l.519 2.39c.078.366.049 1.412.364 1.662.164.131.407.111.622.085.616-.075 6.124-.777 6.065-1.127-.162-.94-.341-1.86-.634-2.757-.237-.725-.328-2.088-.765-2.638-.935.639-1.902 1.035-3.005 1.348-1.063.301-2.132.585-3.205.851l.039.186zm-22.037-46.873l3.372-9.955 8.959-2.923 1.147 5.987-5.134 5.454-1.081 5.125-7.263-3.688z" fill="#EFBFA5"/><path d="M420.207 173.86l-18.998-17.512 11.477-43.015-9.664-1.984-20.11 43.14 2.233 13.771 28.887 23.215 6.175-17.615z" fill="#8825CD"/><path d="M422.157 161.996a8.27 8.27 0 0 1-8.27-8.27h-1.644c0 5.475 4.439 9.914 9.914 9.914v-1.644z" fill="#BABCBE"/><path d="M426.508 161.333h-3.098c-.85 0-1.54.689-1.54 1.54v.236c0 .85.69 1.54 1.54 1.54h3.098c.85 0 1.54-.69 1.54-1.54v-.236c0-.851-.69-1.54-1.54-1.54z" fill="#686E72"/><path d="M413.989 147.652v-6.801c0-7.35 5.958-13.309 13.309-13.309 7.351 0 13.309 5.959 13.309 13.309v6.801h2.924V140.8c0-8.965-7.268-16.233-16.233-16.233s-16.233 7.268-16.233 16.233v6.852h2.924z" fill="#BABCBE"/><path d="M447.415 146.451c.502.757.502 1.273.502 1.914v2.486c0 .641 0 1.156-.502 1.913l-.82.961v-8.235l.82.961z" fill="#CAC8D6"/><path d="M442.177 155.715h1.569a2.849 2.849 0 0 0 2.848-2.85v-6.515a2.849 2.849 0 0 0-2.848-2.849h-1.569a2.849 2.849 0 0 0-2.849 2.849v6.515a2.85 2.85 0 0 0 2.849 2.85z" fill="#686E72"/><path d="M406.947 146.451c-.503.757-.503 1.273-.503 1.914v2.486c0 .641 0 1.156.503 1.913l.821.961v-8.235l-.821.961z" fill="#CAC8D6"/><path d="M412.183 155.715h-1.569a2.849 2.849 0 0 1-2.848-2.85v-6.515a2.849 2.849 0 0 1 2.848-2.849h1.569a2.849 2.849 0 0 1 2.849 2.849v6.515a2.85 2.85 0 0 1-2.849 2.85z" fill="#686E72"/><path d="M367.919 165.109zm-.056-.014l-.015-.004.015.004zm7.404-30.045zm59.257-34.02a37.911 37.911 0 0 0 2.373-1.012c11.085-5.182 18.636-15.818 22.443-31.614 1.31-5.439 1.963-10.602 1.96-15.475.003 4.873-.65 10.036-1.96 15.475-3.807 15.796-11.358 26.432-22.443 31.614-.772.361-1.562.699-2.373 1.012z" fill="#E5E5E5"/><path d="M431.591 288.234l-59.912-1.944a.88.88 0 0 1-.852-.909l3.307-101.909a.881.881 0 0 1 .909-.852l59.913 1.945a.88.88 0 0 1 .852.909l-3.307 101.908a.88.88 0 0 1-.91.852z" fill="#3B455A"/><path d="M428.361 273.836l-52.525-1.705 2.726-83.996 52.525 1.704-2.726 83.997zm-20.245 9.444l-12.691-.412a.556.556 0 0 1-.539-.574l.106-3.279a.558.558 0 0 1 .576-.539l12.691.413a.555.555 0 0 1 .538.574l-.106 3.279a.557.557 0 0 1-.575.538z" fill="#F7F7F7"/><path d="M444.647 230.436l-4.276 9.601-9.191 2.085-.59-6.067 5.615-4.958 1.55-5.004 6.892 4.343z" fill="#EFBFA5"/><path d="M440.434 171.704l12.788 27.8-15.467 26.589 6.341 5.879 21.764-27.312 3.283-9.385-17.193-25.626-11.516 2.055z" fill="#8825CD"/><path d="M104.13 147.459l-.905-3.954.973-.946 1.946 1.706 2.514-5.068 4.137-2.468 2.148 2.332-3.544 5.42-2.316 3.419-1.966 7.183-3.406-1.045.419-6.579z" fill="#C67A6D"/><path d="M98.98 168.616a205.994 205.994 0 0 0 3.054-19.648 17.78 17.78 0 0 1 8.107 1.251 167.194 167.194 0 0 1-1.6 34.889c-.076.496-.181 1.04-.576 1.348-.332.258-.783.281-1.203.281-4.076 0-8.051-1.195-11.905-2.52a165.634 165.634 0 0 1-17.258-7.044c.624-3.55.758-7.187.399-10.774-.497-4.96.644-11.741 6.747-7.921 1.653 1.035 14.517 8.767 14.235 10.138z" fill="#7FC5A3"/></svg>