<svg width="205" height="374" viewBox="0 0 205 374" fill="none" xmlns="http://www.w3.org/2000/svg"><path d="M176 143.878l3.372-9.955 8.96-2.923 1.147 5.986-5.135 5.455-1.081 5.125-7.263-3.688z" fill="#EFBFA5"/><path d="M154.411 168.57c4.977-6.82 8.81-14.576 13.955-21.152 2.465-3.149 2.382-4.407 6.766-4.8 1.094-.1 10.128 2.34 9.932 3.129a388.054 388.054 0 0 1-16.124 50.164c-3.893 9.774-10.689 7.034-19.973 6.917-9.916-.126-19.833-.252-29.747-.376-5.451-.069-11.638-.473-15.1-4.683-3.996-4.857-6.244-14.428-5.53-20.513 1.27-10.802 9.074-10.029 17.573-8.728l28.935 4.432c1.788.275 3.704.531 5.336-.251 1.249-.6 2.149-1.726 2.993-2.824.333-.435.661-.874.984-1.315z" fill="#FFB800"/><path d="M148.882 312.484c-1.059-9.153-5.647-16.416-14.12-20.395-6.874-3.226-14.599-3.986-22.131-4.952-16.77-2.152-32.783-4.303-49.718-3.638-13.542.533-21.89 12.087-28.228 23.483-3.994 7.181-2.885 10.55 2.144 16.564a60.774 60.774 0 0 0 16.549 13.836c12.447 7.072 31.567 5.325 45.273 3.797a105.728 105.728 0 0 0 37.139-11.333c7.428-3.878 14.122-8.451 13.092-17.362z" fill="#142538"/><path d="M64.888 340.307a160.004 160.004 0 0 0-5.88 16.113c-.883 2.895-1.693 5.873-1.58 8.898.262 7.081 8.142 12.213 13.294 5.664a35.616 35.616 0 0 0 5.345-9.505c1.889-5.04-2.1-2.104-5.47-3.652-3.88-1.783-3.786-3.167-2.138-6.804 2.122-4.686 4.635-7.737 4.333-13.126-.083-1.489-.503-3.215-1.875-3.797-1.041-.442-2.29-.013-3.116.759-.825.772-1.319 1.827-1.78 2.858-.385.861-.763 1.724-1.133 2.592z" fill="#1A3151"/><path d="M90.262 166.29c6.379-.85 12.855-2.007 18.199.323 4.527 1.973 4.449 7.688 5.461 12.008 3.348 14.294 5.864 28.76 7.833 43.304.942 6.953 2.57 14.399 2.53 21.423-.033 5.635-1.443 11.113-1.011 16.857.335 4.412 2.209 9.175 6.251 10.981 2.033.907 4.369.95 6.407 1.848 2.037.898 3.782 3.298 2.756 5.275-.489.939-1.463 1.505-2.388 2.02-5.039 2.812-10.08 5.621-15.119 8.431-3.849 2.146-7.719 4.302-11.867 5.792-5.877 2.112-12.16 2.831-18.397 3.148a151.523 151.523 0 0 1-47.89-5.255c-8.37-2.31-16.456-6.407-14.426-15.877 2.091-9.747 6.131-19.471 10.49-28.396 5.276-10.806 6.842-23.824 10.577-35.225 3.47-10.581 6.979-21.183 10.821-31.635 1.886-5.133 5.222-9.943 10.153-12.537 6.099-3.208 13.011-1.603 19.62-2.485z" fill="#FFB800"/><path d="M118.498 343.161l4.353.234c1.578.084 3.338.108 4.511-.948 1.435-1.29 1.273-3.725.113-5.265-1.16-1.539-3.03-2.361-4.866-2.949-4.432-1.42-9.118-1.858-13.769-2.041-.465-.018-.948-.031-1.381.143-.753.303-1.181 1.099-1.435 1.87-2.638 8.013 6.831 8.654 12.474 8.956zm-55.868 13.64c-.08.645-.152 1.333.125 1.921.203.427.572.755.971 1.011 2.994 1.907 7.02-.148 9.312-2.861 2.292-2.711 3.845-6.141 6.769-8.155 6.691-4.611.565-13.051-6.428-11.115-8.164 2.26-9.88 12.068-10.75 19.199z" fill="#EACDB0"/><path d="M152.813 313.338c5.779-4.247 11.574-9.06 13.685-16.213 2.111-7.153-.868-17.254-8.324-21.378-9.091-5.029-18.02 1.151-24.503 6.986-13.278 11.935-27.749 22.488-41.898 33.406-4.782 3.689-21.37 17.276-21.37 17.276-.457 1.915 8.46 19.237 10.823 18.604 25.809-6.825 50.913-23.49 71.587-38.681z" fill="#1A3151"/><path d="M22.91 321.566c-5.658-2.754-11.349-6.072-13.588-12.689-2.237-6.613.308-17.499 7.316-23.562 8.546-7.391 17.279-3.518 23.659.645 13.069 8.511 27.235 15.327 41.107 22.593 4.687 2.456 20.972 11.76 20.972 11.76.496 1.8-7.51 21.457-9.79 21.435-24.905-.146-49.431-10.328-69.676-20.182zm85.855 25.092a161.91 161.91 0 0 0 15.977 6.736c2.88 1.036 5.847 2.002 8.906 2.039 7.163.086 12.736-7.615 6.381-13.142a36.037 36.037 0 0 0-9.332-5.87c-4.995-2.156-2.229 2.017-3.961 5.343-1.991 3.828-3.386 3.665-6.975 1.821-4.624-2.377-7.582-5.064-13.039-5.027-1.507.009-3.271.348-3.927 1.703-.497 1.03-.126 2.311.614 3.184.736.872 1.778 1.423 2.796 1.94.85.431 1.704.856 2.56 1.273z" fill="#1A3151"/><path d="M164.775 288.193l-73.306-23.049-90.664 4.665 51.292 22.624 112.678-4.24z" fill="#DDDAE8"/><path d="M164.538 281.853l2.736-71.188-112.047 2.809-3.236 76.127 112.547-7.748z" fill="#9EA6AD"/><path d="M2.368 269.709c16.484 6.603 32.97 13.204 49.455 19.805l.168.088-.133-3.509 112.68-4.24.237 6.34L53.2 292.391c-.23 1.07-1.07 1.891-2.306 1.397L1.44 273.983c-2.439-.977-1.548-5.264.928-4.274z" fill="#9EA6AD"/><path d="M50.683 265.26c.542.377 1.15.83 1.205 1.501.035.441-.188.856-.42 1.228-.68 1.087-1.575 2.118-2.772 2.499-1.197.381-2.722-.125-3.142-1.342-1.178 1.851-.076 4.391 1.485 5.91 1.563 1.52 3.575 2.567 4.826 4.368.964 1.387 1.38 3.089 1.777 4.745-5.235 1.47-11.275-1.045-14.051-5.848-1.07-1.848-1.67-3.935-2.262-5.997l-3.214-11.206c2.797-1.948 5.31-4.72 8.664-3.402 2.578 1.012 5.418 5.81 7.904 7.544z" fill="#EACDB0"/><path d="M30.915 222.586c-4.114 7.962-7.812 16.445-8.075 25.404-.263 8.959 3.597 18.533 11.463 22.828 2.186-4.819 6.453-8.375 9.141-12.933 6.842-11.6 2.187-26.756 6.507-39.511 2.396-7.073 7.323-12.703 11.553-18.708 2.24-3.178 4.237-6.35 6.008-9.81 1.03-2.013 4.218-6.129 4.696-7.968.33-1.278-.025-2.626-.442-3.878-.672-2.013-1.725-4.191-3.736-4.866-2.178-.73-4.492.628-6.185 2.18-6.042 5.54-9.697 15.182-14.37 22.008-5.69 8.31-11.92 16.277-16.56 25.254z" fill="#FFB800"/><path d="M82.765 172.255c.223.269.483.516.787.736 1.271.919 2.863 1.247 4.404 1.554 1.996.396 4.087.791 6.045.221 6.361-1.848 3.48-12.734 2.789-17.252 4.126-1.52 8.883-3.836 9.513-8.66.199-1.519-.068-3.083-.334-4.613l-3.302-18.97c-.381-2.186-.785-4.438-1.885-6.333-1.931-3.325-5.583-4.85-9.028-5.603-8.791-1.921-18.294-.058-24.96 6.151-1.774 1.654-3.367 3.655-4.116 6.115-1.153 3.792-.153 8.034.852 11.987.925 3.649 1.85 7.298 2.778 10.947 1.065 4.196 2.577 8.975 6.217 10.632 1.933.88 4.19.698 5.948 1.971 3.689 2.67 1.864 8.206 4.292 11.117z" fill="#EACDB0"/><path d="M94.06 119.828c.27.306.508.63.713.977 1.071 1.818 1.059 4.115 2.115 5.942 1.673 2.895 5.676 4.031 6.874 7.152.979 2.555-.321 5.433.068 8.14.422 2.958 2.853 5.348 3.144 8.294.254 2.557-.627 6.402-1.718 8.713.339-.716 4.58-1.34 5.536-2.225 1.462-1.356 1.524-2.036 1.668-3.874.145-1.826-.579-3.45-.168-5.374.504-2.359 2.12-4.342 2.331-6.792.289-3.344-2.062-6.335-2.594-9.649-.806-5.015 2.55-10.57.035-14.984-1.475-2.588-4.525-3.819-6.544-6.01-1.533-1.665-2.408-3.815-3.624-5.725-1.213-1.908-3.004-3.702-5.257-3.901-1.252-.11-2.496.288-3.753.309-2.172.031-4.204-1.063-6.359-1.34-3.083-.393-7.587 3.554-8.78 6.339-1.182 2.766.08 4.66 2.222 6.461 3.568 3.003 10.92 3.956 14.091 7.547z" fill="#1A3151"/><path d="M49.998 113.792c-1.475 1.618-3.427 2.966-4.707 4.766-2.495 3.513-2.148 8.256-1.408 12.502.658 3.779-.312 7.451.885 11.289.804 2.576 2.46 5.012 4.915 6.134 3.058 1.397 7.31.871 9.119 3.703 1.964 3.078-.645 7.98 2.038 10.455 1.481 1.367 3.798 1.143 5.672 1.885 2.09.826 3.472 2.776 4.982 4.441 1.51 1.664 3.587 3.219 5.8 2.82-.587-3.368-1.022-6.041-3.072-8.818-1.194-1.618-4.311-4.414-2.816-6.728.865-1.847 3.565-2.934 3.236-4.947-.155-.946-.97-1.611-1.646-2.291-2.61-2.631-3.629-6.63-2.953-10.275.676-3.643 2.925-6.9 5.875-9.141 3.458-2.63 2.652-3.442 3.027-7.333.343-3.584 2.098-4.762 4.89-6.605 2.506-1.656 3.245-2.521 3.737-5.279.36-2.017.816-4.438-.673-6.308-1.185-1.487-2.953-2.364-4.661-3.194-3.57-1.736-7.547-3.515-11.372-2.453-2.123.59-3.947 2.012-6.08 2.57-1.422.371-2.918.341-4.369.584-2.471.413-4.91 1.681-6.604 3.545-1.71 1.879-1.34 3.412-2.034 5.728-.339 1.136-.992 2.082-1.781 2.95z" fill="#1A3151"/><path d="M60.342 98.264c-.095-2.41-.95-5.403-3.339-5.742-1.307-.186-2.58.563-3.903.56-2.815-.003-4.398-3.094-6.294-5.177-.284-.312-.609-.62-1.021-.712-.587-.132-1.164.208-1.736.396-2.626.873-5.208-1.371-7.938-1.824-3.379-.56-6.933 2.199-7.229 5.611-.122 1.401.234 2.81.137 4.215-.39 5.687-7.822 9.572-6.895 15.198.626 3.802 5.05 6.673 4.319 10.456-.468 2.419-3.035 4.522-2.224 6.848.521 1.497 2.372 2.214 3.921 1.878 1.55-.334 2.806-1.475 3.769-2.732 1.531-1.997 2.51-4.361 3.934-6.436 1.423-2.074 3.502-3.942 6.01-4.132 2.43-.181 4.948 1.232 7.224.361 1.82-.694 2.88-2.658 4.636-3.506 1.642-.792 3.58-.475 5.385-.727 1.807-.252 3.811-1.623 3.498-3.42-.075-.433-.287-.857-.234-1.296.148-1.228 2.129-1.559 2.27-2.79-1.22-1.247-2.43-.468-3.476-2.208-.81-1.348-.757-3.307-.814-4.82z" fill="#1A3151"/><path d="M113.276 64.3c9.033 25.134 77.49 75.409 77.49 75.409s20.792-82.35 11.76-107.484C193.493 7.093 166.192-6.1 141.547 2.756c-24.646 8.857-37.303 36.412-28.271 61.544z" fill="#8825CD"/><path d="M136.205 53.795c4.246 11.816 17.079 18.016 28.663 13.854 11.585-4.165 17.535-17.115 13.289-28.93-4.245-11.814-17.079-18.015-28.663-13.852-11.585 4.163-17.534 17.115-13.289 28.928z" fill="#fff"/><path d="M190.766 139.709s1.922-8.611 4.269-21.185c-6.25-2.718-12.382-5.751-18.356-8.898-18.531-9.766-35.152-16.765-50.043-31.66-5.388-5.39-10.321-11.292-14.591-17.641a50.621 50.621 0 0 0 1.099 3.602l.132.373c6.746 18.77 46.637 51.565 66.403 66.967a616.925 616.925 0 0 0 9.734 7.439 217.45 217.45 0 0 0 1.353 1.003z" fill="#723AA0"/></svg>