<svg width="72" height="73" viewBox="0 0 72 73" fill="none" xmlns="http://www.w3.org/2000/svg"><circle cx="36" cy="36.763" r="36" fill="#FFB800" fill-opacity=".7"/><path d="M32.727 19.242c-11.296 0-20.454 8.21-20.454 18.338 0 3.733 1.247 7.203 3.383 10.1-.28 3.346-1.088 8.06-3.383 10.355 0 0 7.013-.984 11.763-3.853a22.36 22.36 0 0 0 8.691 1.737c11.297 0 20.455-8.21 20.455-18.339 0-10.128-9.158-18.338-20.455-18.338z" fill="#fff"/><path d="M59.727 30.556c0-10.128-9.158-18.339-20.455-18.339-8.157 0-15.197 4.283-18.481 10.476 3.36-2.169 7.48-3.45 11.936-3.45 11.297 0 20.455 8.21 20.455 18.338 0 3.874-1.344 7.465-3.63 10.426 4.58 2.213 10.175 3.004 10.175 3.004-2.295-2.295-3.103-7.009-3.383-10.356 2.136-2.897 3.383-6.366 3.383-10.099z" fill="#A165C4"/><path d="M22.09 40.036a2.455 2.455 0 1 0 0-4.91 2.455 2.455 0 0 0 0 4.91zm10.637 0a2.455 2.455 0 1 0 0-4.91 2.455 2.455 0 0 0 0 4.91zm10.637 0a2.455 2.455 0 1 0 0-4.91 2.455 2.455 0 0 0 0 4.91z" fill="#8825CD"/></svg>