<svg width="74" height="96" viewBox="0 0 74 96" fill="none" xmlns="http://www.w3.org/2000/svg"><path fill-rule="evenodd" clip-rule="evenodd" d="M5.878 5.877v89.411H74V33.552H48.455a2.129 2.129 0 0 1-2.13-2.129V5.877H5.879zm44.705 2.13v21.288h21.289L50.583 8.005zm-34.26 36.19c.066-.004.133-.004.2 0h46.833a2.13 2.13 0 1 1 0 4.257H16.522a2.131 2.131 0 1 1-.2-4.258zm0 11.708c.066-.003.133-.003.2 0h46.833a2.13 2.13 0 1 1 0 4.258H16.522a2.131 2.131 0 1 1-.2-4.258zm0 11.708c.066-.003.133-.003.2 0h46.833a2.13 2.13 0 1 1 0 4.258H16.522a2.131 2.131 0 1 1-.2-4.258zm0 11.709c.066-.003.133-.003.2 0h46.833a2.13 2.13 0 1 1 0 4.258H16.522a2.131 2.131 0 1 1-.2-4.258z" fill="#FFB800" fill-opacity=".7"/><path fill-rule="evenodd" clip-rule="evenodd" d="M2 2v89.41h68.123V29.676H44.577a2.13 2.13 0 0 1-2.13-2.13V2H2zm44.705 2.129v21.288h21.289L46.705 4.13zm-34.26 36.19c.066-.003.133-.003.2 0h46.833a2.129 2.129 0 1 1 0 4.258H12.644a2.131 2.131 0 1 1-.2-4.258zm0 11.709c.066-.004.133-.004.2 0h46.833a2.129 2.129 0 1 1 0 4.257H12.644a2.131 2.131 0 1 1-.2-4.257zm0 11.708c.066-.003.133-.003.2 0h46.833a2.13 2.13 0 1 1 0 4.258H12.644a2.131 2.131 0 1 1-.2-4.258zm0 11.709c.066-.004.133-.004.2 0h46.833a2.129 2.129 0 1 1 0 4.257H12.644a2.131 2.131 0 1 1-.2-4.257z" stroke="#8825CD" stroke-width="2.585"/></svg>