<svg width="35" height="35" viewBox="0 0 35 35" fill="none" xmlns="http://www.w3.org/2000/svg"><path d="M17.499 21.003a3.509 3.509 0 0 0 3.505-3.503c0-.763-.25-1.467-.663-2.042a3.499 3.499 0 0 0-2.84-1.462c-1.17 0-2.203.579-2.841 1.461a3.487 3.487 0 0 0-.663 2.042 3.505 3.505 0 0 0 3.502 3.504zm7.651-7.789V9.841l-.44.001-2.935.01.012 3.374 3.363-.012z" fill="#8825CD"/><path d="M17.5 0C7.85 0 0 7.85 0 17.5S7.85 35 17.5 35C27.149 35 35 27.15 35 17.5S27.15 0 17.5 0zm9.953 15.458v8.149a3.85 3.85 0 0 1-3.847 3.847H11.394a3.85 3.85 0 0 1-3.847-3.847V11.395a3.85 3.85 0 0 1 3.847-3.847h12.211a3.85 3.85 0 0 1 3.848 3.847v4.063z" fill="#8825CD"/><path d="M22.944 17.5c0 3-2.441 5.444-5.444 5.444a5.45 5.45 0 0 1-5.443-5.444c0-.722.144-1.412.4-2.042h-2.97v8.149c0 1.053.854 1.905 1.907 1.905h12.21a1.908 1.908 0 0 0 1.908-1.905v-8.15H22.54c.259.63.404 1.321.404 2.043z" fill="#8825CD"/></svg>