<svg width="480" height="361" viewBox="0 0 480 361" fill="none" xmlns="http://www.w3.org/2000/svg"><path d="M413.19 360.4c-2.971 0-5.958-.176-8.979-.607-11.543-1.648-23.244-2.471-34.73-4.822-26.359-5.396-52.73-5.715-79.281-5.715-10.543 0-21.084-.151-31.624-.151-15.347 0-30.688.319-46.004 1.888-23.89 2.444-47.82 2.834-71.753 2.834-3.615 0-7.23-.009-10.846-.021l-.696-.001c-13.254 0-26.456 1.248-39.69 2.131-13.292.886-26.219 2.341-39.434 2.341-1.192 0-2.388-.012-3.585-.038-13.206-.277-33.313-6.16-42.734-21.154-5.593-8.91-4.835-30.343.767-38.932 2.447-3.753 6.392-6.692 9.614-8.48 9.18-5.093 18.522-5.106 28.115-5.211.117-.002.233-.003.35-.003 6.62 0 13.503 2.041 19.848 4.875 5.771 2.579 11.668 3.483 17.538 5.088 4.804 1.314 9.944 1.943 15.027 1.943 3.307 0 6.59-.266 9.74-.783 8.523-1.401 17.107-2.052 25.655-3.156 10.615-1.369 21.003-4.34 31.58-5.933 5.295-.797 10.468-2.774 15.751-3.672 14.012-2.384 28.049-2.899 42.087-2.964 1.149-.005 2.298-.007 3.448-.007 6.671 0 13.342.076 20.01.077 5.436 0 10.871-.025 16.304-.025 18.576 0 37.135.291 55.661 2.868 5.742.798 11.447.315 17.109 2.215 5.685 1.907 11.423 3.649 17.248 3.989 4.982.29 9.978.386 14.98.386 8.901 0 17.819-.303 26.691-.352a518.22 518.22 0 0 1 3.661-.014c19.855 0 89.021 1.396 84.059 29.62-1.907 10.845-12.991 24.962-19.208 29.506-7.855 5.739-16.444 9.135-25.09 10.28-7.288.965-14.393 2-21.589 2z" fill="#F6EAEA"/><path d="M244.022 202.973h10.709V29.41h-10.709v173.563zm42.775 4.326h-74.244c-3.914 3.243-6.292 7.493-6.292 12.151v3.045h86.828v-3.045c0-4.658-2.378-8.908-6.292-12.151zM154.696 25.128l-38.926 85.177-7.148 15.643h3.916l40.93-89.56 5.145-11.26h-3.917z" fill="#292949"/><path d="M158.673 25.128l38.926 85.177 7.148 15.643h-3.916a38879834.8 38879834.8 0 0 1-46.075-100.82h3.917z" fill="#292949"/><path d="M157.741 124.927h-51.316l7.641 15.301a6.885 6.885 0 0 0 6.157 3.808h72.922a6.883 6.883 0 0 0 6.157-3.808l7.641-15.301h-49.202z" fill="#8CABEF"/><path d="M341.275 25.128l-38.927 85.177a74405.8 74405.8 0 0 1-7.148 15.643h3.917l40.929-89.56 5.145-11.26h-3.916z" fill="#292949"/><path d="M345.253 25.128a5410382.867 5410382.867 0 0 0 46.074 100.82h-3.916l-40.929-89.56-5.146-11.26h3.917z" fill="#292949"/><path d="M344.32 124.927h-51.316l7.641 15.301a6.885 6.885 0 0 0 6.158 3.808h72.921a6.883 6.883 0 0 0 6.157-3.808l7.642-15.301H344.32z" fill="#8CABEF"/><path d="M343.877 30.207l-188.392.232c-2.328.003-4.216-1.681-4.219-3.761V26.6c-.003-2.08 1.882-3.769 4.209-3.772l188.393-.231c2.327-.003 4.216 1.681 4.219 3.761v.077c.003 2.08-1.883 3.768-4.21 3.771z" fill="#292949"/><path d="M254.043 35.6h-8.735a3.395 3.395 0 0 1-3.395-3.395V3.395A3.395 3.395 0 0 1 245.308 0h8.735a3.395 3.395 0 0 1 3.395 3.394v28.81a3.395 3.395 0 0 1-3.395 3.395z" fill="#8825CD"/><path d="M216.36 207.703h66.631v-7.15H216.36v7.15z" fill="#3B3387"/><path d="M358.43 230.263v-7.058H156.782c-11.456 0-20.829 9.373-20.829 20.829v12.216c0 11.455 9.373 20.828 20.829 20.828H358.43v-7.057h-40.665v-39.758h40.665z" fill="#474EBB"/><path d="M163.621 230.263c-10.725 0-19.499 6.917-19.499 15.371v9.015c0 8.454 8.774 15.372 19.499 15.372h188.782v-39.758H163.621z" fill="#DBDAD5"/><path d="M153.632 263.111h192.433v-2.717H153.632v2.717zm0-7.74h192.433v-2.717H153.632v2.717zm0-7.742h192.433v-2.716H153.632v2.716zm0-7.741h192.433v-2.717H153.632v2.717z" fill="#ECECEC"/><path d="M367.758 322.026H131.244a3.285 3.285 0 0 1-3.275-3.275v-37.479a3.285 3.285 0 0 1 3.275-3.276h236.514a3.285 3.285 0 0 1 3.276 3.276v37.479a3.285 3.285 0 0 1-3.276 3.275z" fill="#FFB800"/><path d="M135.453 47.829l3.038-16 15.084-8.458 1.47 5.886s-8.462 8.367-8.279 9.102c.184.736.367 4.599.367 4.599l-4.691 4.689-6.989.182z" fill="#EFBFA5"/><path d="M82.724 71.258l28.108 1.997 26.347-34.513 9.896 3.1-24.024 43.808-12.219 6.992-27.444 1.886-.664-23.27z" fill="#8825CD"/><path d="M84.147 71.823L56.2 60.736s-9.932 24.67-21.223 64.19c-11.292 39.52 5.242 89.826 5.242 89.826s64.028-15.217 76.812-17.727l-16.036-72.238-16.847-52.964z" fill="#8825CD"/><path d="M62.368 170.157v14.09L81.154 245.3l-4.697 63.402L88.2 311.05l18.786-77.491-.72-22.799-8.673-46.499-35.224 5.896z" fill="#8825CD"/><path d="M77.27 186.839L58.396 315.992h-8.58l-5.42-70.447-11.74-70.447 44.616 11.741z" fill="#8825CD"/><path d="M86.656 309.846l8.963 9.486-2.59 4.809-18.493-8.878 3.406-7.027 8.714 1.61zm-28.422 4.332l11.05 6.945-1.306 5.303-20.125-3.974 1.542-7.656 8.84-.618z" fill="#292949"/><path d="M85.073 33.05c-7.61.56-14.725-5.689-22.214-4.137-4.87 1.008-8.715 5.327-10.2 10.195-.693 2.27-.939 4.742-.261 6.998.44 1.465 1.252 2.785 2.207 3.957a16.58 16.58 0 0 0 4.573 3.87 29.95 29.95 0 0 1-3.257 4.323l10.527 4.032 2.328-6.05a16.076 16.076 0 0 0 3.137-.476c6.23-1.617 11.396-7.074 12.786-13.508.651-3.014.526-6.13.374-9.203z" fill="#EFBFA5"/><path d="M83.15 35.347L59.622 32.55l-4.567 17.973-6.645-5.273 3.425-29.41 33.206-.714L99.42 23.56l-.609 8.453-12.856 8.654-2.803-5.321z" fill="#292949"/><path d="M74.019 65.07L46.07 53.983s-9.933 24.671-21.224 64.19c-11.292 39.52 5.243 89.825 5.243 89.825s57.274-28.3 70.059-30.808l-9.284-59.155L74.02 65.07z" fill="#fff"/><path d="M45.763 54.94L14.67 120.156l10.996 17.442 14.408-8.721 14.788-52.705-9.1-21.234z" fill="#8825CD"/><path d="M24.424 119.017c11.292-39.519 21.224-64.19 21.224-64.19l27.948 11.087.045.143c-.619 1.614-1.266 3.22-1.826 4.858A112.301 112.301 0 0 0 66.96 90.78c-1.767 11.875-1.952 24.084-1.572 36.067.364 11.497 1.548 22.973 3.592 34.295 2.7 14.967 7.006 29.551 12.555 43.667-25.995 5.282-56.588 11.526-56.588 11.526s-11.814-57.799-.523-97.319z" fill="#8825CD"/><path d="M86.794 128.2c1.265 5.322 2.618 11.318 1.538 16.492 0 0-3.486 7.284-3.785 6.985-.013-.233-3.975-3.505-5.084-5.942-1.891-4.16-2.298-9.352-2.338-14.045-.14-16.65.845-33.435-1.963-49.849-3.277-.996-6.086-3.406-4.072-6.826 6.377 2.418 7.052 16.77 8.445 22.632l7.26 30.553z" fill="#FFB800"/><path d="M101.522 143.019l11.766 11.262 17.191-1.874-2.221-5.645s-11.749-1.898-12.026-2.603c-.278-.706-2.371-3.957-2.371-3.957l-6.543-1.093-5.796 3.91z" fill="#EFBFA5"/><path d="M32.654 114.478L50.537 113l60.295 25.079-8.59 10.228-80.093-17.727 10.505-16.102zm107.058 207.548h15.847v-44.03h-15.847v44.03z" fill="#8825CD"/></svg>