<svg width="588" height="501" viewBox="0 0 588 501" fill="none" xmlns="http://www.w3.org/2000/svg"><path d="M395.38 483.57c-9.93 7.264.112 13.746 12.653 8.935 6.758-2.592 13.237-5.152 20.154-6.887 2.233-.56 15.75-3.481 15.751-6.518.005-8.047-15.228-6.148-24.809-4.806-7.722 1.081-15.563 3.286-23.749 9.276zm-219.702 4.441c-1.594.319-3.499 1.008-3.73 2.603-.189 1.318.922 2.444 1.994 3.244 8.797 6.563 20.636 6.983 31.648 7.137 1.286.016 2.617.027 3.8-.472 2.356-.992 3.488-4.095 2.39-6.385-.4-.836-1.033-1.54-1.698-2.19-8.849-8.613-23.394-6.146-34.404-3.937zM10.933 313.931c-2.696 2.374-.265 9.323.531 13.91.238 1.375.557 2.797 1.426 3.895 1.188 1.503 3.16 2.119 5.01 2.656 3.281.951 7.257 1.758 9.763-.546 1.859-1.71 2.122-4.498 2.119-7.01a65.422 65.422 0 0 0-.37-6.873c-.118-1.095-.276-2.227-.863-3.163-.75-1.196-2.085-1.894-3.394-2.448-4.693-1.988-11.527-2.795-14.222-.421zM555.53 187.167c.251 2.191 1.603 4.083 2.912 5.868 2.523 3.44 5.084 6.922 8.414 9.607 1.409 1.137 3.048 2.152 4.863 2.215 1.655.057 3.237-.691 4.578-1.653 3.267-2.341 5.471-6.082 5.922-10.051.62-5.445-1.914-10.745-4.858-15.382-1.825-2.873-3.953-5.736-7.005-7.276-5.118-2.582-8.502-.327-9.931 4.205-1.316 4.171-5.427 7.822-4.895 12.467zm-67.142-132.65c1.453.502 3.046.04 4.509-.435.937-.305 2.089-.975 1.837-1.92-.122-.456-.55-.759-.969-.982-1.925-1.03-4.421-1.789-6.356-.472-1.934 1.317-.475 3.308.979 3.809zm-28.121-6.222c4.415 3.647 10.04 5.829 15.781 6.123 1.532.08 3.201-.019 4.384-.988 1.461-1.202 1.618-3.657.321-5.033-.815-.866-2.004-1.254-3.11-1.703-1.888-.767-3.737-1.865-4.806-3.585-.31-.5-.577-1.072-1.092-1.363-3.195-1.796-17.287 1.752-11.478 6.55zm-167.661-30.03c-5.076 0-9.192 3.153-9.192 7.042 0 3.89 4.127 6.708 9.192 7.043 16.509 1.09 16.509-5.584 16.509-9.474 0-6.213-11.431-4.612-16.509-4.612zM124.201 63.701c19.317 1.293 27.398-11.887 36.474-28.827 24.848-46.377 80.183-41.908 98.744-13.35 13.147 20.227 41.501 16.067 64.435 8.15 22.574-7.792 61.034-15.278 91.667-5.967 26.756 8.134 37.735 37.473 62.126 35.669 53.207-3.938 80.03 48.592 70.395 71.501-6.291 14.952-9.415 31.679-4.3 47.066 5.633 16.946 18.498 30.361 28.897 44.929 10.398 14.567 18.774 32.778 13.604 49.868-4.423 14.626-17.618 24.741-25.81 37.673-25.435 40.16-.274 101.705-34.166 135.18-24.261 23.96-63.814 18.428-97.761 23.001-28.308 3.814-54.949 15.704-83.128 20.361-57.069 9.432-114.701-11.344-172.555-11.93-5.162-.052-10.35.055-15.539.161-15.292.315-30.6.63-45.338-3.123-26.335-6.705-48.745-26.967-57.882-52.333-12.608-35.004-.662-75.513-14.905-109.895C27.556 283.826-.82 261.039.966 230.814c1.11-18.815 13.966-34.555 22.808-51.247C36.914 154.763 19.516 56.696 124.2 63.702z" fill="#F1F6FC"/><path d="M256.574 458.124c0 2.466-21.4 4.465-47.795 4.465-26.395 0-47.793-1.999-47.793-4.465 0-2.466 21.398-4.467 47.793-4.467s47.795 2.001 47.795 4.467zm245.538 0c0 2.466-21.398 4.465-47.795 4.465-26.394 0-47.793-1.999-47.793-4.465 0-2.466 21.399-4.467 47.793-4.467 26.397 0 47.795 2.001 47.795 4.467zm53.796-314.481a66.006 66.006 0 0 0-.445-2.456.62.62 0 0 0-1.213.242c.157.784.304 1.588.438 2.412a.616.616 0 0 0 .709.51.615.615 0 0 0 .511-.708zm-1.636-7.309a46.629 46.629 0 0 0-1.654-4.714.617.617 0 1 0-1.142.473 45.15 45.15 0 0 1 1.609 4.59.618.618 0 1 0 1.187-.349zm-3.86-9.211a32.864 32.864 0 0 0-2.829-4.147.618.618 0 0 0-.964.774 31.606 31.606 0 0 1 2.722 3.992.618.618 0 1 0 1.071-.619zm-6.291-7.794a30.266 30.266 0 0 0-4.024-3.019.62.62 0 0 0-.659 1.047 29.006 29.006 0 0 1 3.86 2.895.618.618 0 0 0 .823-.923zm-8.466-5.36a40.686 40.686 0 0 0-4.708-1.709.618.618 0 1 0-.353 1.185 39.348 39.348 0 0 1 4.565 1.657.616.616 0 0 0 .813-.319.617.617 0 0 0-.317-.814zm-9.563-2.886a66.712 66.712 0 0 0-4.926-.756.618.618 0 1 0-.145 1.228c1.644.193 3.258.437 4.836.742a.62.62 0 0 0 .235-1.214zm-9.878-1.197a131.98 131.98 0 0 0-4.954-.213.619.619 0 0 0-.031 1.237c1.651.042 3.289.108 4.907.21a.618.618 0 1 0 .078-1.234zm-9.906-.274h-.426c-1.505 0-3.014.011-4.52.026a.619.619 0 0 0 .013 1.237c1.503-.015 3.008-.026 4.507-.026h.423a.619.619 0 0 0 .003-1.237zm-9.883.077c-1.014.009-2.025.016-3.031.017l-1.924.005a.618.618 0 1 0 .003 1.237l1.924-.005c1.009-.001 2.023-.009 3.04-.017a.618.618 0 1 0-.012-1.237zm-9.942.032l-4.968.01a.618.618 0 1 0 .003 1.237l4.967-.01a.619.619 0 0 0-.002-1.237zm-9.928.021l-4.955.01a.618.618 0 1 0 .002 1.237c1.739-.004 3.392-.008 4.955-.01a.619.619 0 0 0-.002-1.237zm-9.908.02l-4.952.01a.619.619 0 0 0 .003 1.236c1.708-.002 3.358-.006 4.951-.009a.619.619 0 0 0-.002-1.237zm-9.901.021c-1.608.002-3.257.006-4.948.01a.618.618 0 1 0 .003 1.237c1.69-.004 3.34-.008 4.948-.01a.62.62 0 0 0 .617-.62.62.62 0 0 0-.62-.617zm-9.896.02l-4.946.01a.618.618 0 1 0 .002 1.236c1.681-.002 3.331-.006 4.947-.01a.618.618 0 1 0-.003-1.236zm-9.893.021c-1.622.002-3.271.006-4.945.01a.619.619 0 0 0 .002 1.236l4.946-.01a.618.618 0 1 0-.003-1.236zm-9.891.02c-1.626.003-3.274.007-4.944.009a.62.62 0 0 0-.617.621.617.617 0 0 0 .62.616c1.669-.002 3.318-.006 4.945-.01a.617.617 0 1 0-.004-1.236zm-9.888.021l-4.944.009a.619.619 0 0 0 .003 1.237l4.944-.01a.619.619 0 0 0-.003-1.236zm-9.888.019a7637.8 7637.8 0 0 1-4.944.011.617.617 0 1 0 .002 1.237l4.944-.011a.618.618 0 1 0-.002-1.237zm-9.887.021l-4.944.01a.618.618 0 1 0 .002 1.237l4.944-.01a.619.619 0 0 0-.002-1.237zm-9.887.02l-4.943.011a.618.618 0 1 0 .002 1.237l4.943-.011a.618.618 0 1 0-.002-1.237zm-9.886.021l-4.943.01a.62.62 0 0 0 .003 1.237l4.942-.01a.619.619 0 1 0-.002-1.237zm-9.886.02l-4.941.01a.619.619 0 0 0 .002 1.237l4.942-.01a.618.618 0 1 0-.003-1.237zm-9.884.021l-4.943.01a.617.617 0 1 0 .003 1.237c1.654-.004 3.301-.008 4.942-.01a.618.618 0 1 0-.002-1.237zm-9.885.02l-4.942.011a.618.618 0 1 0 .003 1.237l4.941-.012a.618.618 0 1 0-.002-1.236zm-9.885.021l-4.941.01a.617.617 0 1 0 .002 1.236l4.942-.01a.618.618 0 1 0-.003-1.236zm-9.884.02c-1.642.003-3.29.007-4.942.009a.619.619 0 1 0 .003 1.238l4.941-.011a.619.619 0 1 0-.002-1.236zm-9.883.021l-4.942.009a.618.618 0 1 0 .002 1.237l4.942-.01a.618.618 0 0 0-.002-1.236zm-9.884.019l-4.922.012a.617.617 0 1 0 .003 1.235l4.922-.01a.619.619 0 0 0-.003-1.237zm-9.852.021l-4.937.01a.619.619 0 0 0 .003 1.237l4.936-.01a.617.617 0 0 0 .617-.62.617.617 0 0 0-.619-.617zm-9.882.02c-1.651.004-3.302.008-4.954.01a.617.617 0 1 0 .002 1.237l4.954-.01a.619.619 0 0 0-.002-1.237zm-9.916.021l-4.941.01a.618.618 0 1 0 .002 1.237c1.647-.004 3.294-.008 4.942-.01a.619.619 0 0 0-.003-1.237zm-9.884.02l-4.942.01a.619.619 0 0 0 .002 1.237l4.942-.01a.619.619 0 0 0-.002-1.237zm-9.885.021l-4.942.01a.618.618 0 1 0 .003 1.237c1.646-.004 3.293-.008 4.942-.01a.62.62 0 0 0-.003-1.237zm-9.883.02l-4.943.01a.617.617 0 0 0-.616.619c0 .343.277.619.619.617 1.645-.002 3.292-.006 4.942-.01a.618.618 0 0 0-.002-1.236zm-9.885.021c-1.65.002-3.297.006-4.942.01a.618.618 0 1 0 .003 1.236l4.942-.01a.618.618 0 1 0-.003-1.236zm-9.884.02l-4.942.01a.618.618 0 0 0 .002 1.236c1.644-.002 3.291-.006 4.943-.01a.617.617 0 1 0-.003-1.236zm-9.884.021c-1.652.002-3.3.006-4.943.01a.618.618 0 1 0 .003 1.236l4.943-.01a.619.619 0 0 0-.003-1.236zm-9.884.019c-1.654.004-3.301.008-4.943.01a.618.618 0 1 0 .002 1.237c1.642-.002 3.29-.006 4.943-.01a.618.618 0 0 0-.002-1.237zm-9.885.021l-4.943.01a.619.619 0 0 0 .003 1.237l4.943-.01a.619.619 0 0 0-.003-1.237zm-9.886.02c-1.654.004-3.303.008-4.941.01a.618.618 0 1 0 .002 1.237l4.942-.01a.617.617 0 1 0-.003-1.237zm-9.884.021l-4.943.01a.618.618 0 1 0 .002 1.237c1.638-.004 3.286-.008 4.943-.01a.62.62 0 0 0-.002-1.237zm-9.886.02c-1.659.004-3.307.008-4.943.01a.619.619 0 0 0 .002 1.237l4.943-.01a.619.619 0 0 0-.002-1.237zm-9.887.021l-4.943.01a.619.619 0 0 0 .002 1.237c1.635-.004 3.284-.008 4.945-.01a.617.617 0 0 0 .615-.62.617.617 0 0 0-.618-.617h-.001zm-9.886.02l-4.944.01a.618.618 0 0 0 .002 1.236l4.944-.009a.62.62 0 0 0-.002-1.237zm-9.888.021c-1.666.002-3.315.006-4.944.01a.619.619 0 1 0 .002 1.236c1.63-.003 3.278-.007 4.944-.009a.619.619 0 0 0-.002-1.237zm-9.889.02l-4.945.01a.619.619 0 0 0 .003 1.236c1.627-.002 3.275-.006 4.945-.01a.619.619 0 0 0-.003-1.236zm-9.889.021c-1.675.002-3.323.006-4.947.01a.618.618 0 1 0 .003 1.236l4.946-.01a.618.618 0 0 0-.002-1.236zm-9.892.019c-1.681.004-3.33.008-4.947.01a.62.62 0 0 0 .003 1.237c1.616-.002 3.266-.006 4.946-.01a.618.618 0 1 0-.002-1.237zm-9.894.022c-1.69.002-3.34.006-4.949.009a.619.619 0 0 0 .003 1.237l4.948-.01a.617.617 0 1 0-.002-1.236zm-9.898.019c-1.706.004-3.357.008-4.95.01a.619.619 0 0 0 .002 1.237l4.95-.01a.618.618 0 1 0-.002-1.237zm-9.903.021l-4.955.01a.619.619 0 0 0 .003 1.237l4.955-.01a.619.619 0 0 0-.002-1.237zm-9.915.02l-4.966.011a.62.62 0 0 0 .002 1.237c1.481-.004 3.14-.008 4.967-.011a.618.618 0 1 0-.002-1.237zm-9.951.021l-3.704.008a41.12 41.12 0 0 0-1.322.023.618.618 0 1 0 .042 1.235c.422-.013.85-.021 1.282-.022l3.704-.007a.618.618 0 0 0-.002-1.237zm-10.014.52a31.98 31.98 0 0 0-4.879 1.202.617.617 0 1 0 .39 1.172 31.005 31.005 0 0 1 4.693-1.155.619.619 0 0 0-.204-1.219zm-9.502 3.199a26.747 26.747 0 0 0-4.187 2.809.619.619 0 0 0 .783.958 25.477 25.477 0 0 1 3.994-2.681.617.617 0 1 0-.59-1.086zm-7.77 6.36a27.984 27.984 0 0 0-2.866 4.146.618.618 0 1 0 1.076.61 26.787 26.787 0 0 1 2.739-3.963.618.618 0 1 0-.95-.793zm-4.973 8.717a33.212 33.212 0 0 0-1.357 4.84.62.62 0 0 0 1.212.244c.32-1.588.754-3.147 1.307-4.66a.618.618 0 0 0-1.162-.424zm-1.992 9.822a36.435 36.435 0 0 0 .06 5.018.62.62 0 1 0 1.232-.099 35.634 35.634 0 0 1-.057-4.85.62.62 0 0 0-1.235-.069zm.802 9.984c.363 1.648.842 3.26 1.431 4.817a.62.62 0 0 0 1.157-.438 33.543 33.543 0 0 1-1.38-4.646.618.618 0 1 0-1.208.267zm3.572 9.369a28.396 28.396 0 0 0 2.876 4.142.618.618 0 0 0 .947-.795 27.128 27.128 0 0 1-2.75-3.961.618.618 0 0 0-1.073.614zm6.487 7.674a23.042 23.042 0 0 0 4.28 2.7.618.618 0 1 0 .54-1.113 21.68 21.68 0 0 1-4.05-2.556.62.62 0 0 0-.77.969zm9.049 4.39a24.5 24.5 0 0 0 5.012.627.619.619 0 0 0 .03-1.236 23.266 23.266 0 0 1-4.76-.596.618.618 0 1 0-.282 1.205zm9.717 1.229a13.925 13.925 0 0 1 4.19 2.136.62.62 0 0 0 .737-.995 15.148 15.148 0 0 0-4.563-2.322.618.618 0 0 0-.364 1.181zm7.525 5.499a18.117 18.117 0 0 1 2.293 4.173.617.617 0 0 0 1.152-.45 19.34 19.34 0 0 0-2.45-4.457.618.618 0 0 0-.995.734zm3.444 8.797c.077.667.116 1.339.116 2.009 0 .918-.073 1.835-.224 2.739a.619.619 0 1 0 1.22.202c.162-.973.24-1.958.24-2.941 0-.718-.041-1.437-.123-2.15a.619.619 0 0 0-1.229.141zm-1.582 9.238a14.773 14.773 0 0 1-2.801 3.794.618.618 0 0 0 .866.883 16.017 16.017 0 0 0 3.034-4.112.618.618 0 1 0-1.1-.565zm-6.635 6.586c-1.307.702-2.787 1.298-4.451 1.762a.62.62 0 0 0 .332 1.191c1.746-.486 3.311-1.115 4.705-1.864a.618.618 0 1 0-.586-1.089zm-9.196 2.65a38.972 38.972 0 0 1-4.043.213c-.285 0-.566.006-.843.016a.62.62 0 0 0 .048 1.237c.262-.012.527-.017.797-.017a39.889 39.889 0 0 0 4.173-.22.617.617 0 1 0-.132-1.229zm-9.9 1.078a14.903 14.903 0 0 0-4.55 2.35.618.618 0 1 0 .75.982 13.705 13.705 0 0 1 4.177-2.154.618.618 0 1 0-.377-1.178zm-7.997 6.149a15.88 15.88 0 0 0-1.959 4.725.62.62 0 0 0 1.203.288 14.68 14.68 0 0 1 1.804-4.358.618.618 0 0 0-1.048-.655zm-2.41 9.804a17.75 17.75 0 0 0 1 5.001.618.618 0 1 0 1.164-.415 16.53 16.53 0 0 1-.929-4.653.617.617 0 0 0-1.235.067zm3.467 9.485a13.348 13.348 0 0 0 3.904 3.348.618.618 0 1 0 .606-1.077 12.115 12.115 0 0 1-3.542-3.041.619.619 0 0 0-.968.77zm8.155 4.845c.81.139 1.658.211 2.542.211h.031a.618.618 0 1 0 .003-1.237h-.034a13.77 13.77 0 0 1-2.333-.193.619.619 0 0 0-.21 1.219z" fill="#CFDDF3"/><path d="M49.04 234.464a5.924 5.924 0 0 1-11.675 1.991 5.923 5.923 0 0 1 11.676-1.991zm512.089-88.06a5.925 5.925 0 0 1-6.89 4.765 5.92 5.92 0 0 1-4.763-6.888 5.923 5.923 0 0 1 11.653 2.123zm-451.721 44.799c-.853 4.811-2.102 9.51-3.623 14.147-3.277 10.005-7.803 19.638-12.38 29.148-2.386 4.972-12.069 16.473-17.263 18.661.606-12.972.656-28.121-.853-41.217-1.447-12.614 3.091-22.173-1.855-33.872a340.257 340.257 0 0 0-1.942-4.489c-2.46-5.565-4.896-11.155-5.663-17.153-.99-7.605 1.372-16.274 7.952-20.231 4.736-2.845 10.907-2.696 15.964-.458 5.059 2.238 9.115 6.332 12.194 10.92 8.619 12.812 10.178 29.358 7.469 44.544z" fill="#6589CE"/><path d="M85.901 149.546c9.56 13.486 10.415 29.268 11.25 46.013.073 1.442.109 2.886.109 4.33 0 15.19-3.982 30.379-11.479 43.591a.617.617 0 1 0 1.076.61c7.604-13.403 11.64-28.794 11.64-44.201 0-1.464-.037-2.929-.11-4.392-.843-16.725-1.667-32.806-11.477-46.665a.618.618 0 1 0-1.009.714z" fill="#2744A0"/><path d="M86.002 401.442c-6.786-5.999-13.653-12.089-18.668-19.63-4.367-6.569-7.188-14.028-10.998-20.935-2.466-4.469-5.377-8.775-6.805-13.676-1.43-4.902-1.087-10.705 2.396-14.437 3.632-3.894 9.88-4.49 14.811-2.484 4.932 2.007 8.702 6.152 11.581 10.63a50.69 50.69 0 0 1 7.444 19.699c.964 6.334.717 12.808 1.701 19.138.917 5.899 2.9 11.564 5.4 16.968 2.266 4.902 8.009 13.642 9.474 18.666-4.058 2.033-13.443-11.383-16.336-13.939z" fill="#3BB29C"/><path d="M99.568 414.267a.624.624 0 0 1-.265-.105c-3.43-2.404-7.285-7.424-11.194-13.55-3.9-6.125-7.819-13.35-11.223-20.106a27.015 27.015 0 0 1-1.577-3.899l1.296-.002a24.856 24.856 0 0 0 1.385 3.345c3.392 6.731 7.296 13.927 11.162 19.996 3.677 5.784 7.353 10.553 10.413 12.876l.003 1.388v.057zM74.94 375.372c-1.68-6.049-1.727-12.557-2.91-18.576-.666-3.427-1.635-7.028-3.21-10.086-1.577-3.062-3.737-5.562-6.796-6.901a.62.62 0 0 1 .496-1.133c3.394 1.486 5.744 4.247 7.4 7.467 1.658 3.225 2.645 6.929 3.324 10.417 1.215 6.29 1.274 12.886 2.978 18.809-.431.001-.858.001-1.282.003z" fill="#267461"/><path d="M52.6 382.99c-5.632-2.224-13.153-3.138-16.764 1.722-3.023 4.07-1.458 9.839.63 14.459 1.764 3.899 4.003 7.865 7.722 9.985 2.54 1.449 5.516 1.883 8.42 2.23a201.925 201.925 0 0 0 24.408 1.411c9.451-.026 20.901 3.833 28.721 9.728-10.035-18.655-34.18-32.05-53.136-39.535z" fill="#4058B1"/><path d="M42.693 395.734c7.158.303 14.34.809 21.135 2.82 3.433 1.012 11.975 4.64 20.121 8.653 4.078 2.008 8.066 4.115 11.286 6.043 1.61.964 3.028 1.883 4.164 2.715 1.135.831 1.991 1.585 2.456 2.171a.62.62 0 0 0 .966-.773c-.592-.737-1.509-1.527-2.691-2.395-4.129-3.025-11.536-6.944-18.714-10.361-7.18-3.414-14.082-6.304-17.238-7.239-6.968-2.06-14.252-2.564-21.433-2.869a.618.618 0 1 0-.052 1.235z" fill="#2744A0"/><path d="M114.033 344.71c-7.328-11.478-19.87-19.489-33.37-21.302-4.471-.601-9-.557-13.522-.514-5.562.055-11.115.108-16.54-1.036-10.335-2.167-19.66-8.826-25.057-17.913-5.398-9.088-6.803-20.448-3.77-30.574 2.312-7.695 7.592-14.984 15.235-17.453 4.163-1.34 8.72-1.156 12.975-.132 3.927.946 7.578 2.587 10.94 4.729 7.696 4.871 13.908 12.372 18.583 20.329 4.242 7.237 14.71 18.504 21.828 25.833a378.533 378.533 0 0 0 7.209 7.21c4.886 6.067 2.6 23.586 5.489 30.823z" fill="#6ACCAF"/><path d="M34.533 278.73c23.92 10.796 49.973 24.946 66.846 44.871a.62.62 0 0 0 .943-.799c-17.098-20.178-43.3-34.368-67.28-45.2a.62.62 0 0 0-.509 1.128z" fill="#3BB29C"/><path d="M99.365 316.339a186.762 186.762 0 0 1-5.75-5.465l3.402-.006a.619.619 0 0 0-.001-1.237h-.002l-4.633.009c-11.115-11.213-26.764-29.755-31.457-49.125 1.07.676 2.11 1.405 3.122 2.178 3.463 8.329 8.556 16.29 13.96 23.331-.485.117-.96.263-1.421.435a.618.618 0 1 0 .43 1.159c.59-.219 1.2-.391 1.83-.51 7.55 9.648 15.567 17.467 20.505 21.961l.016 7.27z" fill="#56C3AA"/><path d="M85.136 233.144c-1.495 0-2.974-.873-3.388-2.667l-.021-.094c-.691-3.111-.336-6.348.09-9.505.095-.702.192-1.401.291-2.103l1.25 1.102c-.062 1.63.017 3.253.365 4.839l.025.099c.413 1.791 1.893 2.665 3.389 2.665.783 0 1.571-.24 2.212-.715l-.648 3.461c-.36 1.926-1.972 2.918-3.565 2.918zm-1.677-14.827l-1.144-1.008c.806-5.691 1.578-11.406 1.105-17.119-.567-6.854-3.199-13.876-8.616-18.1a29.208 29.208 0 0 0-1.37-4.02c-.63-1.497-1.286-2.993-1.942-4.489a15.6 15.6 0 0 1 1.336.494c8.138 3.488 11.897 12.095 12.589 20.455.581 6.9-.668 13.813-1.595 20.676a64.54 64.54 0 0 0-.363 3.111zm9.711-6.847c.602-2.922 1.474-5.809 3.859-7.839l.155-.128a87.865 87.865 0 0 1-.32 4.688 6.45 6.45 0 0 0-1.836 1.108 9.213 9.213 0 0 0-1.858 2.171zm4.967-3.616c.154-1.714.26-3.432.314-5.151.221-.107.448-.2.68-.277l.01 5.385a3.408 3.408 0 0 0-.278-.007c-.243 0-.486.017-.726.05z" fill="#5779C5"/><path d="M96.865 208.191a87.69 87.69 0 0 0 .32-4.688 6.48 6.48 0 0 1 1.266-.8 89.073 89.073 0 0 1-.313 5.152 5.686 5.686 0 0 0-1.273.336z" fill="#293F96"/><path d="M104.15 313.251c-5.638-29.442-8.603-33.978-6.123-41.36 3.16-9.407 1.384-18.863 4.365-28.328 2.982-9.464 5.011-19.642 2.606-29.268-.76-3.044-2.302-6.362-5.959-6.489-1.465-.05-2.895.541-4.01 1.493-2.819 2.402-3.53 5.999-4.174 9.436L88.7 230.226c-.7 3.736-6.099 3.956-6.953.251l-.02-.094c-.692-3.11-.337-6.348.09-9.505.926-6.87 2.173-13.78 1.602-20.688-.692-8.359-4.454-16.967-12.596-20.446-2.887-1.234-6.144-1.513-9.184-.734-8.498 2.181-10.698 10.487-9.451 17.578.877 4.989 3.219 9.579 5.336 14.183 5.17 11.242 1.377 21.553 2.093 33.908 1.975 34.095 44.532 68.572 44.532 68.572z" fill="#90D9C2"/><path d="M65.627 188.045c4.195 20.949 8.438 42.09 16.607 61.918 1.172 2.838 2.076 6.242 4.417 10.893 2.343 4.653 6.122 10.545 13.055 18.455a.619.619 0 1 0 .93-.815c-6.88-7.85-10.59-13.649-12.88-18.196-2.29-4.549-3.164-7.853-4.379-10.809-8.11-19.678-12.344-40.74-16.537-61.689a.617.617 0 1 0-1.213.243z" fill="#3BB29C"/><path d="M229.772 193.293c-4.341-4.959-8.348-10.005-12.565-14.865-2.733-3.153-5.552-6.232-8.619-9.151a87.373 87.373 0 0 0-4.749-4.242c-9.794-8.087-20.726-14.802-32.412-19.798-7.049-3.018-14.494-5.504-20.479-10.314-5.986-4.798-10.289-12.688-8.298-20.096 1.446-5.342 5.985-9.497 11.191-11.402 5.194-1.892 10.957-1.743 16.361-.581 15.087 3.252 27.689 14.098 36.259 26.922.148.223.309.458.458.693 6.282 9.584 10.672 20.244 14.493 31.101 1.224 3.488 2.387 7 3.537 10.5 1.731 5.231 7.049 16.051 4.823 21.233z" fill="#6589CE"/><path d="M160.641 116.044c16.24 3.092 27.799 13.871 40.01 25.358 12.12 11.394 20.915 26.297 25.032 42.416a.62.62 0 0 0 1.198-.307c-4.177-16.35-13.09-31.45-25.383-43.011-12.203-11.467-23.945-22.485-40.624-25.67a.618.618 0 0 0-.233 1.214z" fill="#2744A0"/><path d="M206.361 158.494a103.458 103.458 0 0 1-.815-6.678 75.693 75.693 0 0 1-.229-5.677 87.936 87.936 0 0 1 3.568 4.167c.038.914.094 1.83.165 2.741.105 1.31.308 3.211.625 5.44l-3.314.007zm2.467-10.21a87.84 87.84 0 0 0-3.495-3.946 75.437 75.437 0 0 1 1.585-13.879 95.842 95.842 0 0 1 2.867 4.663 75.582 75.582 0 0 0-.957 13.162z" fill="#5779C5"/><path d="M208.885 150.306a87.355 87.355 0 0 0-3.568-4.167c-.001-.601.004-1.202.016-1.801a86.61 86.61 0 0 1 3.495 3.946c.01.674.03 1.346.057 2.022z" fill="#293F96"/><path d="M245.77 119.007c-1.392 6.172-5.122 11.505-8.405 16.915a132.608 132.608 0 0 0-4.859 8.747 132.983 132.983 0 0 0-10.953 29.957c-.802 3.4-1.248 6.737-.605 10.191-8.115-1.853-11.346-24.914-11.898-31.77-.972-12.344 1.131-24.991 6.212-36.299 2.22-4.964 5.083-9.837 9.495-13.015 4.4-3.177 10.638-4.294 15.3-1.523 2.811 1.668 4.61 4.439 5.489 7.591.855 2.942.893 6.225.224 9.206z" fill="#6ACCAF"/><path d="M218.412 177.78c-1.63-4.088-2.414-9.794-2.412-16.186-.003-12.866 3.154-28.524 8.51-39.668 2.405-5.012 5.816-9.666 10.531-12.414a.618.618 0 1 0-.623-1.067c-5.02 2.93-8.55 7.8-11.022 12.945-5.459 11.379-8.629 27.139-8.632 40.204.002 6.495.78 12.319 2.499 16.644a.619.619 0 1 0 1.149-.458z" fill="#3BB29C"/><path d="M232.506 144.669c-2.22-3.73-3.73-7.854-4.15-12.161-.683-7.184 2.061-14.88 7.906-19.109 2.731-1.97 5.936-3.086 9.284-3.598.082.281.156.566.223.853-1.985.625-3.867 1.519-5.567 2.745-5.845 4.229-8.589 11.925-7.906 19.109.28 2.898 1.057 5.708 2.21 8.373a139.725 139.725 0 0 0-2 3.788z" fill="#56C3AA"/><path d="M292.576 172.682a26.216 26.216 0 0 1-2.101 6.829c-3.599 7.788-11.15 14.472-22.47 19.91 0 0-.631-12.32-.762-15.616-.552-14.118-15.878-21.932-25.571-32.228-4.936-5.253-8.68-11.886-9.376-19.069-.682-7.184 2.062-14.88 7.906-19.109 4.898-3.532 11.307-4.307 17.336-3.847 9.718.774 19.528 4.845 25.57 12.437.262.288.486.591.708.893 3.704 5.056 5.609 11.215 7.001 17.349 2.417 10.624 3.506 21.682 1.759 32.451z" fill="#3BB29C"/><path d="M276.429 158.349c-.772-5.189-2.438-10.178-5.182-14.718-6.07-10.049-16.584-16.639-27.166-22.108a.618.618 0 1 1 .569-1.099c10.633 5.504 21.368 12.178 27.655 22.568 2.87 4.748 4.591 9.958 5.373 15.354l-1.249.003z" fill="#267461"/><path d="M470.034 263.764c6.759-11.131 3.306-25.447 5.66-38.255 1.808-9.846 7.287-18.975 15.125-25.202 4.921-3.909 11.831-6.7 17.389-3.77 1.203.634 2.635 1.527 3.795.814.693-.427.97-1.284 1.133-2.081 1.41-6.917-1.917-14.473.8-20.989 1.464-3.509 4.49-6.129 7.697-8.172a41.96 41.96 0 0 1 20.736-6.505c1.944-.079 3.967-.005 5.707.867 3.143 1.576 4.58 5.49 4.158 8.979-.422 3.491-2.346 6.614-4.483 9.406-7.1 9.284-17.503 17.295-18.875 28.902-.173 1.466-.173 3.019.5 4.331.65 1.268 1.862 2.173 2.542 3.424 2.188 4.021-2.036 8.578-6.163 10.554a35.575 35.575 0 0 1-12.017 3.325c-2.863.269-6.099.337-8.048 2.453-3.595 3.904.536 10.147-.218 15.402-.471 3.28-2.85 5.927-5.238 8.224a94.095 94.095 0 0 1-14.468 11.409c-4.199 2.691-8.644 5.068-12.367 8.387-3.724 3.319-6.733 7.81-6.975 12.791l3.61-24.294z" fill="#6ACCAF"/><path d="M479.547 253.062c1.082-5.287 3.561-10.229 6.045-15.142 3.882-7.681 7.821-15.417 13.607-21.628 4.39-4.72 9.817-8.502 14.403-13.269a50.057 50.057 0 0 0 8.243-11.443c1.183-2.266 2.186-4.577 3.698-6.456 1.791-2.239 4.323-3.892 6.608-5.932a29.223 29.223 0 0 0 7.229-9.972.617.617 0 1 0-1.131-.498 27.98 27.98 0 0 1-6.924 9.548c-2.182 1.962-4.781 3.641-6.745 6.08-1.65 2.057-2.672 4.449-3.831 6.657a48.752 48.752 0 0 1-8.038 11.159c-4.468 4.655-9.901 8.439-14.417 13.283-5.942 6.385-9.921 14.234-13.805 21.913-2.483 4.915-5.025 9.949-6.152 15.451a.618.618 0 1 0 1.21.249z" fill="#3BB29C"/><path d="M567.119 271.487c-1.521 5.862-3.784 11.661-7.668 16.311-2.683 3.203-6.022 5.738-9.67 7.804-1.88 1.075-3.859 2.015-5.85 2.856a70.219 70.219 0 0 1-24.448 5.417c-4.127.154-8.294-.051-12.455-.256-8.155-.402-16.288-.805-24.051 1.505-5.38 1.595-10.339 4.501-14.407 8.347a35.034 35.034 0 0 0-6.468 8.175l1.595-10.141c2.956-10.907 5.972-22.012 12.008-31.572 3.896-6.195 8.954-11.587 14.333-16.546 8.595-7.94 18.129-14.927 28.653-20.034 8.509-4.13 17.957-7.037 27.355-5.887 9.386 1.138 18.612 7.074 21.543 16.065 1.879 5.775 1.063 12.082-.47 17.956z" fill="#6589CE"/><path d="M472.199 304.131c8.9-13.169 22.241-23.296 37.319-28.328 9.397-3.141 19.41-4.345 29.075-7.131 9.667-2.791 19.384-7.535 25.143-15.974a.618.618 0 1 0-1.021-.696c-5.496 8.072-14.933 12.735-24.465 15.482-9.536 2.755-19.565 3.957-29.123 7.145-15.342 5.122-28.894 15.41-37.953 28.809a.618.618 0 1 0 1.025.693z" fill="#2744A0"/><path d="M477.602 401.198c.534-13.638 7.585-26.229 16.147-36.86 7.142-8.865 15.759-16.979 26.403-21.018 3.334-1.266 6.994-2.115 10.458-1.265 3.463.852 6.603 3.815 6.666 7.382.052 3.007-1.967 5.634-4.094 7.762-6.997 7.008-16.042 11.505-24.516 16.628-14.569 8.804-28.415 20.557-34.196 36.568l3.132-9.197z" fill="#6ACCAF"/><path d="M483.556 389.517c4.397-9.813 12.327-19.161 21.042-26.308 8.708-7.151 18.216-12.093 25.635-13.168a.62.62 0 0 0-.179-1.224c-7.783 1.144-17.398 6.189-26.24 13.436-8.835 7.251-16.879 16.71-21.386 26.758a.618.618 0 0 0 1.128.506zm-11.52 22.525c-.121-2.286 7.332-8.262 9.013-9.785 9.306-8.441 20.37-14.65 32.055-18.318 4.729-1.485 9.751-2.563 14.483-1.421 4.731 1.142 9.07 5.017 9.535 10.121.452 4.948-2.87 9.791-7.107 12.185-4.235 2.395-9.19 2.758-13.916 2.482-7.301-.426-14.468-2.24-21.796-2.184-7.327.057-17.615.798-22.267 6.92z" fill="#3BB29C"/><path d="M496.886 398.67l-.002-1.293c9.648-2.942 20.079-4.718 29.412-4.72 2.587 0 5.092.137 7.472.425a.617.617 0 1 1-.148 1.227 61.257 61.257 0 0 0-7.324-.416h-.024c-9.286 0-19.751 1.806-29.386 4.777z" fill="#267461"/><path d="M282.928 158.335c-1.697-6.762-2.936-14.223-3.445-22.373-.303-4.833 1.05-9.811 3.624-13.973.263.288.486.591.709.893a31.57 31.57 0 0 1 2.947 4.951c-1.066 2.978-1.557 6.156-1.362 9.279.479 7.683 1.608 14.758 3.159 21.212l-5.632.011z" fill="#369D93"/><path d="M344.381 172.057c11.184-3.972 22.799-7.14 32.967-13.263 3.075-1.851 6.038-4.004 8.221-6.853 2.181-2.85 3.522-6.484 3.036-10.04-.495-3.616-2.808-7.078-2.029-10.644.513-2.349 2.276-4.186 3.624-6.178 3.207-4.739 4.16-10.933 2.531-16.418-1.754-5.891-6.17-10.606-8.683-16.216a27.064 27.064 0 0 1-2.092-14.718c-9.382.124-17.946 5.25-27.171 6.96-7.056 1.309-14.397.597-21.392 2.204-12.754 2.931-23.181 14.156-25.164 27.093-5.918-1.015-12.283 1.117-16.393 5.492-4.372 4.653-6.833 11.263-6.435 17.636 2.882 46.285 29.381 70.431 29.381 70.431s25.335-33.971 29.599-35.486z" fill="#90D9C2"/><path d="M319.982 171.671a39.69 39.69 0 0 1-.202-4.013c-.002-9.872 3.533-19.66 7.564-28.905 4.456-10.232 9.574-20.235 16.425-28.977 6.848-8.741 15.541-16.217 25.764-20.408a.62.62 0 0 0-.469-1.144c-10.475 4.297-19.319 11.921-26.269 20.789-6.948 8.868-12.108 18.969-16.586 29.246-4.046 9.294-7.662 19.228-7.666 29.399 0 1.377.067 2.756.208 4.138a.619.619 0 1 0 1.231-.125z" fill="#3BB29C"/><path d="M328.705 95.73c-.354 3.058-.527 6.298-.527 9.605 0 7.792.964 15.952 2.842 22.967a.618.618 0 1 0 1.195-.321c-1.845-6.885-2.801-14.957-2.8-22.646 0-3.264.171-6.458.518-9.463a.617.617 0 0 0-.543-.685.617.617 0 0 0-.685.543zm5.151 29.287c10.61-6.815 26.642-11.193 39.773-11.187 1.074 0 2.127.03 3.157.088a.618.618 0 1 0 .071-1.234 56.88 56.88 0 0 0-3.228-.09c-13.399.007-29.557 4.41-40.441 11.382a.619.619 0 1 0 .668 1.041zm-29.002 1.953c3.379 1.426 5.947 3.731 7.923 6.507 2.963 4.162 4.568 9.388 5.451 14.123.886 4.736 1.054 8.963 1.193 11.168a.62.62 0 0 0 1.235-.079c-.187-2.912-.422-9.577-2.388-16.278-.985-3.354-2.402-6.724-4.483-9.651-2.08-2.925-4.833-5.405-8.45-6.93a.618.618 0 1 0-.481 1.14zm19.361 19.176c7.627-5.475 17.781-8.199 27.06-8.197 3.524 0 6.922.392 10.002 1.168a.619.619 0 0 0 .301-1.2c-3.193-.803-6.688-1.203-10.303-1.203-9.517.002-19.886 2.769-27.781 8.426a.62.62 0 0 0 .721 1.006zm28.375-56.02c-2.895 3.575-3.902 7.718-3.903 10.977 0 .502.024.983.069 1.439a.618.618 0 0 0 1.231-.121 13.42 13.42 0 0 1-.063-1.318c-.002-3.011.94-6.887 3.627-10.198a.619.619 0 0 0-.961-.779zm.112 10.005c2.913-1.491 6.449-2.293 10.344-2.293 2.485 0 5.117.327 7.82 1.004a.618.618 0 1 0 .302-1.2c-2.797-.7-5.528-1.04-8.122-1.04-4.064 0-7.792.834-10.908 2.428a.618.618 0 0 0 .564 1.101z" fill="#3BB29C"/><path d="M77.066 121.965c1.317-.069 10.287-6.715 13.743-8.953.972-.631 1.959-1.291 2.638-2.23.679-.938.995-2.226.501-3.272-.613-1.301-1.63-2.598-4.198-2.594-4.47.009-6.02 1.479-8.195 3.726-7.188 7.432-4.489 13.323-4.489 13.323zm40.221 26.801c3.905 1.755 8.079 3.505 12.327 2.962 1.648-.21 3.446-.96 3.994-2.528.469-1.339-.178-2.875-1.239-3.816-1.064-.941-2.465-1.396-3.842-1.733-5.2-1.27-12.5-.567-17.649.896 0 0 4.078 3.172 6.409 4.219zm25.726-57.694c-1.742-1.102-3.667-2.572-3.665-4.632.002-2.067 2.156-3.642 4.223-3.653 2.066-.01 3.984 1.118 5.536 2.48 6.573 5.77 5.754 12.35 5.754 12.35s-9.908-5.32-11.848-6.545zm5.182-17.601c-1.527-.657-3.107-1.45-4.002-2.85-.438-.683-.685-1.548-.415-2.312.45-1.278 1.25-2.426 4.473-1.841 10.202 1.85 12.424 8.837 12.424 8.837s-9.771-.67-12.48-1.834zm29.891 15.454c4.092-.352 8.318-2.39 10.897-5.587.975-1.207 1.866-2.538 2.19-4.055.326-1.516-.021-3.255-1.194-4.266-1.433-1.234-3.706-1.036-5.284.005-1.578 1.041-2.592 2.74-3.414 4.444-1.093 2.27-3.195 9.46-3.195 9.46z" fill="#4C4BA8"/><path d="M105.424 237.68l-29.726-26.204c-5.283-4.654-10.61-9.405-13.883-15.472-2.447-4.534-3.556-9.546-3.556-14.647-.004-9.558 3.908-19.428 10.152-26.889 9.59-11.47 23.704-18.291 37.95-23.261 14.246-4.976 29.142-8.479 42.845-15.112 4.306-2.086 8.637-4.687 12.209-7.952 3.57-3.263 6.384-7.206 7.594-11.95.404-1.589.601-3.223.601-4.857 0-4.248-1.331-8.497-3.845-11.939-3.482-4.763-9.123-7.843-15.013-8.198a.619.619 0 0 0-.074 1.235c5.508.326 10.838 3.236 14.089 7.693 2.351 3.216 3.607 7.22 3.606 11.209 0 1.535-.185 3.067-.563 4.552-1.134 4.452-3.784 8.19-7.23 11.343-3.443 3.149-7.677 5.699-11.913 7.751-13.536 6.558-28.384 10.056-42.714 15.056-14.33 5.005-28.661 11.892-38.49 23.638-6.42 7.676-10.438 17.785-10.441 27.681 0 5.279 1.15 10.502 3.706 15.234 3.416 6.323 8.872 11.154 14.152 15.812l29.726 26.205a.619.619 0 0 0 .818-.928z" fill="#2744A0"/><path d="M184.421 79.235c-1.285 3.964-4.504 7.248-8.069 10.436-3.557 3.192-7.435 6.271-9.924 9.986a.618.618 0 1 0 1.028.688c2.325-3.486 6.126-6.537 9.722-9.754 3.588-3.22 6.995-6.62 8.418-10.972a.618.618 0 1 0-1.175-.384zm-37.726 10.18c2.133 2.245 4.596 4.046 6.33 6.366 1.708 2.277 2.693 5.245 2.692 8.249-.002 3.414-1.256 6.857-4.129 9.469a.62.62 0 0 0 .832.916c3.151-2.861 4.536-6.671 4.534-10.385-.001-3.272-1.062-6.484-2.94-8.99-1.89-2.512-4.401-4.335-6.422-6.476a.617.617 0 1 0-.897.851zm-53.288 46.609c8.845 6.811 20.437 11.345 31.615 11.781a.617.617 0 1 0 .048-1.235c-10.877-.419-22.269-4.865-30.908-11.526a.617.617 0 1 0-.755.98zm-19.05 11.581c-.982-2.894-1.453-5.936-1.453-8.988-.003-9.176 4.27-18.424 11.612-23.947a.62.62 0 0 0-.745-.988c-7.683 5.791-12.1 15.382-12.103 24.935 0 3.179.49 6.355 1.518 9.386a.62.62 0 0 0 1.17-.397" fill="#2744A0"/><path d="M393.34 97.651c-.475-1.469-.45-3.273.636-4.371.861-.87 2.305-1.26 3.425-.767 8.693 3.823 7.753 17.384 7.753 17.384s-8.245-1.191-11.814-12.246zm-.211 25.404c-5.623 10.163 14.364 9.387 21.571 3.402 0 0-16.73-12.15-21.571-3.402zM418.4 98.422c-1.357-1.86-1.839-4.63-.361-6.396 1.099-1.315 3.016-1.72 4.699-1.396 1.684.324 4.207 1.882 5.282 3.219 6.576 8.181 3.485 16.19 3.485 16.19s-10.883-8.571-13.105-11.617zm79.374 25.165c-.485-1.583-.373-3.515.858-4.623.776-.7 1.882-.954 2.924-.874 1.043.079 2.038.457 2.991.892 2.038.932 3.623 2.559 4.601 4.575 2.472 5.092.794 11.394.794 11.394s-10.958-7.42-12.168-11.364zm-24.969 18.65c-3.533-3.104-8.946-4.022-13.252-2.132-1.096.479-2.136 1.157-2.836 2.127-1.578 2.182-1.025 5.375.614 7.513 1.637 2.14 4.121 3.442 6.575 4.555 4.448 2.018 11.351 2.423 16.085 3.631 0 0-.018-9.4-7.186-15.694z" fill="#4C4BA8"/><path d="M398.978 100.012c3.02 9.86 11.491 17.222 20.877 21.205 9.383 3.977 19.659 5.011 29.716 5.664 10.057.649 20.178.977 29.796 3.59 9.369 2.539 18.618 7.832 22.554 16.507 1.428 3.141 2.058 6.465 2.059 9.852.004 8.007-3.551 16.355-8.375 23.102-6.876 9.63-16.227 17.459-23.013 27.421-2.797 4.118-5.231 8.907-5.236 13.974 0 .572.031 1.15.098 1.729.433 3.786 2.244 7.05 4.635 9.924 2.393 2.876 5.373 5.382 8.222 7.684a.62.62 0 0 0 .778-.962c-2.835-2.289-5.755-4.752-8.049-7.512-2.297-2.763-3.96-5.803-4.358-9.275a13.895 13.895 0 0 1-.089-1.588c-.006-4.655 2.279-9.254 5.022-13.278 6.645-9.778 15.987-17.604 22.996-27.397 4.93-6.904 8.601-15.448 8.605-23.822 0-3.539-.661-7.047-2.17-10.364-4.19-9.18-13.792-14.589-23.355-17.188-9.806-2.662-20.011-2.981-30.04-3.631-10.028-.648-20.164-1.687-29.312-5.567-9.144-3.876-17.317-11.039-20.179-20.429a.617.617 0 1 0-1.182.361z" fill="#2744A0"/><path d="M422.261 96.715c6.558 7.245 11.848 18.695 13.114 28.384a.62.62 0 0 0 1.227-.161c-1.322-9.992-6.672-21.57-13.424-29.051a.62.62 0 0 0-.874-.045.62.62 0 0 0-.043.873zm-22.079 28.621c3.805 1.009 7.711 2.047 11.755 2.058h.027c4.157-.014 8.784-2.244 11.734-5.08a.62.62 0 0 0-.86-.889c-2.701 2.625-7.167 4.746-10.874 4.732h-.024c-3.83-.007-7.637-1.004-11.442-2.015a.616.616 0 0 0-.755.439.615.615 0 0 0 .439.755zm103.673-.707c3.448 3.328 5.552 8.037 5.729 12.825.006.151.009.303.009.458.014 4.632-2.613 10.302-5.712 13.763a.62.62 0 0 0 .924.823c3.283-3.701 6.011-9.508 6.025-14.586 0-.17-.003-.336-.009-.503-.193-5.118-2.424-10.11-6.107-13.669a.618.618 0 1 0-.859.889zm-37.292 22.489c7.129 6.564 13.355 11.888 21.3 17.475 1.657 1.165 3.998 2.451 6.394 3.46 2.401 1.005 4.831 1.741 6.755 1.747a5.31 5.31 0 0 0 1.337-.156.617.617 0 1 0-.315-1.195 4.05 4.05 0 0 1-1.022.115c-1.609.006-3.967-.674-6.275-1.651-2.314-.972-4.603-2.234-6.163-3.332-7.889-5.549-14.062-10.826-21.174-17.374a.616.616 0 0 0-.873.038.617.617 0 0 0 .036.873z" fill="#2744A0"/><path d="M546.994 297.071a16.62 16.62 0 0 0-1.996-1.619c-4.473-3.082-10.024-4.145-15.438-4.576a71.768 71.768 0 0 0-5.718-.227c-9.265 0-18.537 1.769-27.167 5.134l-.011-4.944c8.629-3.365 17.898-5.136 27.16-5.136 1.916 0 3.829.076 5.737.228 5.417.433 10.969 1.496 15.433 4.575 1.917 1.324 3.599 3.092 4.786 5.095a48.584 48.584 0 0 1-2.786 1.47z" fill="#5779C5"/><path d="M529.56 290.876c5.414.43 10.966 1.494 15.439 4.576 4.471 3.08 7.616 8.582 6.573 13.912-1.214 6.207-7.633 10.246-13.912 11.009-6.278.763-12.552-.964-18.747-2.24a133.67 133.67 0 0 0-41.773-1.909c-3.469.389-6.761 1.077-9.799 2.852-.976-8.279 19.66-19.057 25.93-21.867 11.313-5.069 23.924-7.319 36.289-6.333z" fill="#6ACCAF"/><path d="M473.118 314.322c4.345-3.826 11.814-7.199 20.37-9.576 8.558-2.381 18.209-3.788 26.947-3.788 2.543 0 5.009.119 7.347.368 5.528.583 11.056 2.236 15.226 5.755a.619.619 0 1 0 .797-.945c-4.443-3.744-10.216-5.438-15.893-6.041a71.506 71.506 0 0 0-7.477-.373c-8.869.001-18.61 1.422-27.278 3.833-8.668 2.417-16.257 5.804-20.856 9.838a.62.62 0 0 0 .817.929z" fill="#3BB29C"/><path d="M453.575 213.318l4.947-.01a.619.619 0 0 0-.003-1.236l-4.946.01a.617.617 0 1 0 .002 1.236zm9.893-.019l4.947-.012a.618.618 0 0 0-.002-1.236l-4.947.011a.618.618 0 1 0 .002 1.237zm9.894-.021l4.946-.01a.618.618 0 1 0-.002-1.237l-4.947.01a.618.618 0 1 0 .003 1.237zm9.893-.02l4.946-.011a.62.62 0 0 0-.002-1.237l-4.947.011a.617.617 0 1 0 .003 1.237zm9.893-.021l4.947-.01a.62.62 0 0 0-.003-1.237l-4.946.01a.619.619 0 1 0 .002 1.237zm9.893-.021l4.947-.01a.619.619 0 0 0-.003-1.237l-4.946.011a.617.617 0 1 0 .002 1.236zm9.893-.02l4.947-.01a.62.62 0 0 0-.002-1.237l-4.947.01a.618.618 0 1 0 .002 1.237zm9.894-.02l4.946-.011a.618.618 0 1 0-.002-1.237l-4.947.012a.617.617 0 1 0 .003 1.236zm9.893-.021l4.947-.01a.619.619 0 0 0-.003-1.236l-4.947.009a.619.619 0 0 0 .003 1.237zm9.893-.02l4.947-.011a.618.618 0 1 0-.003-1.236l-4.946.011a.618.618 0 1 0 .002 1.236zm9.893-.021l1.096-.002h.043c1.254 0 2.484.112 3.676.326a.618.618 0 1 0 .219-1.217 22.033 22.033 0 0 0-3.895-.346h-.047l-1.094.003a.618.618 0 0 0 .002 1.236zm9.399 1.718a20.608 20.608 0 0 1 4.137 2.418c.272.205.66.151.865-.123a.616.616 0 0 0-.122-.865 21.782 21.782 0 0 0-4.385-2.563.617.617 0 1 0-.495 1.133zm7.607 5.722a20.682 20.682 0 0 1 2.616 4.01.62.62 0 0 0 1.109-.55 21.93 21.93 0 0 0-2.776-4.251.617.617 0 1 0-.949.791zm4.235 8.518c.345 1.489.529 3.039.532 4.633v-.002.131a.619.619 0 0 0 1.237.005v-.137a21.99 21.99 0 0 0-.563-4.908.62.62 0 0 0-1.206.278zm-.039 9.519a20.519 20.519 0 0 1-1.657 4.495.618.618 0 1 0 1.101.56 21.76 21.76 0 0 0 1.759-4.766.618.618 0 0 0-1.203-.289zm-4.31 8.484a20.749 20.749 0 0 1-3.497 3.275.618.618 0 1 0 .734.995 21.883 21.883 0 0 0 3.706-3.47.618.618 0 1 0-.943-.8zm-7.653 5.657a20.497 20.497 0 0 1-4.594 1.354.617.617 0 0 0 .209 1.219 21.675 21.675 0 0 0 4.871-1.436.617.617 0 1 0-.486-1.137zm-9.419 1.654l-4.947.01a.618.618 0 0 0 .003 1.237l4.948-.011a.615.615 0 0 0 .615-.62.616.616 0 0 0-.619-.616zm-9.893.02l-4.947.01a.62.62 0 0 0 .003 1.237l4.947-.01a.617.617 0 0 0 .616-.62.617.617 0 0 0-.619-.617zm-9.894.021l-4.946.01a.618.618 0 1 0 .004 1.237l4.946-.01a.618.618 0 1 0-.004-1.237zm-9.893.02l-4.945.01a.617.617 0 1 0 .002 1.237l4.947-.01a.619.619 0 0 0-.004-1.237zm-9.893.021l-4.945.01a.617.617 0 1 0 .002 1.237l4.947-.01a.618.618 0 1 0-.004-1.237zm-9.893.02l-4.946.01a.618.618 0 1 0 .003 1.236l4.946-.01a.62.62 0 0 0 .618-.619.62.62 0 0 0-.621-.617zm-9.892.021l-4.947.01a.617.617 0 1 0 .003 1.236l4.946-.01a.618.618 0 0 0-.002-1.236zm-342.06 31.017l-4.947.012a.618.618 0 1 0 .003 1.236l4.946-.011a.619.619 0 0 0-.002-1.237zm-9.893.022l-4.947.009a.62.62 0 0 0 .002 1.237l4.947-.01a.618.618 0 0 0-.002-1.236zm-9.894.019l-4.946.01a.619.619 0 0 0 .002 1.237l4.947-.01a.618.618 0 1 0-.003-1.237zm-9.893.021l-4.947.01a.619.619 0 0 0 .003 1.237l4.947-.01a.619.619 0 0 0-.003-1.237zm-9.893.02l-4.946.01a.618.618 0 1 0 .002 1.237l4.946-.01a.617.617 0 1 0-.002-1.237zm-9.893.02l-4.947.011a.618.618 0 1 0 .003 1.237l4.946-.011a.618.618 0 1 0-.002-1.237zm-9.893.021l-4.947.01a.618.618 0 1 0 .003 1.236l4.946-.009a.62.62 0 0 0-.002-1.237zm-9.893.02l-.702.001a12.599 12.599 0 0 0-4.37.789.618.618 0 1 0 .43 1.159 11.32 11.32 0 0 1 3.943-.71l.701-.003a.618.618 0 1 0-.002-1.236zm-9.44 3.544a12.633 12.633 0 0 0-2.903 4.269.618.618 0 0 0 1.143.471c.602-1.46 1.5-2.77 2.62-3.851a.618.618 0 0 0-.86-.889zm-3.848 9.344a12.554 12.554 0 0 0 1.164 5.032.62.62 0 0 0 1.121-.521 11.32 11.32 0 0 1-1.048-4.537.618.618 0 0 0-1.237.026zm4.248 9.172a12.586 12.586 0 0 0 4.484 2.563.618.618 0 1 0 .38-1.176 11.374 11.374 0 0 1-4.043-2.313.619.619 0 0 0-.82.926zm9.56 3.169l4.947-.01a.619.619 0 0 0-.003-1.237l-4.947.01a.618.618 0 1 0 .003 1.237zm9.893-.02l4.947-.01a.619.619 0 0 0-.003-1.237l-4.946.01a.618.618 0 1 0 .002 1.237z" fill="#2744A0"/><path d="M39.255 339.7a21.833 21.833 0 0 0-5.042.578.62.62 0 0 0 .288 1.203c1.456-.349 3.04-.54 4.757-.544a.618.618 0 1 0-.003-1.237zm-9.79 2.447a16.192 16.192 0 0 0-3.984 3.214.618.618 0 1 0 .919.827 14.981 14.981 0 0 1 3.68-2.969.618.618 0 1 0-.616-1.072zm-6.77 7.507a17.451 17.451 0 0 0-1.372 4.921.617.617 0 1 0 1.227.157 16.22 16.22 0 0 1 1.275-4.573.618.618 0 1 0-1.129-.505zm-1.3 10.022a18.505 18.505 0 0 0 1.47 4.884.62.62 0 0 0 1.124-.516 17.28 17.28 0 0 1-1.371-4.558.619.619 0 0 0-1.223.19zm4.213 9.181a19.706 19.706 0 0 0 3.774 3.414.617.617 0 1 0 .707-1.015 18.445 18.445 0 0 1-3.538-3.2.618.618 0 0 0-.943.801zm8.248 5.809a26.729 26.729 0 0 0 4.852 1.409.617.617 0 1 0 .235-1.214 25.475 25.475 0 0 1-4.628-1.344.62.62 0 0 0-.46 1.149zm9.853 1.975c.49.018.99.028 1.496.028h.081l3.433-.006a.618.618 0 1 0-.003-1.237l-3.432.006h.001-.08a36.2 36.2 0 0 1-1.448-.027.619.619 0 0 0-.048 1.236zm9.994.011l4.973-.01a.618.618 0 0 0-.003-1.237c-1.807.004-3.466.008-4.972.01a.618.618 0 0 0 .002 1.237zm9.939-.02c1.573-.004 3.228-.008 4.963-.01a.619.619 0 0 0-.003-1.237l-4.963.01a.618.618 0 1 0 .003 1.237zm9.923-.021l4.959-.01a.618.618 0 0 0-.003-1.237c-1.707.004-3.36.008-4.959.01a.619.619 0 0 0 .003 1.237zm9.916-.02l4.956-.011a.619.619 0 0 0-.002-1.237l-4.957.011a.619.619 0 0 0 .003 1.237zm9.911-.021c1.621-.002 3.273-.006 4.956-.01a.618.618 0 1 0-.003-1.237c-1.683.004-3.334.008-4.955.01a.618.618 0 1 0 .002 1.237zm9.91-.02l4.954-.011a.618.618 0 1 0-.003-1.237l-4.954.012a.618.618 0 1 0 .003 1.236zm9.908-.021l4.953-.01a.619.619 0 0 0-.003-1.236l-4.953.01a.618.618 0 1 0 .003 1.236zm9.906-.02l4.952-.011a.618.618 0 1 0-.002-1.236l-4.953.011a.617.617 0 1 0 .003 1.236zm9.905-.021l4.952-.01a.618.618 0 1 0-.003-1.236l-4.951.01a.619.619 0 0 0 .002 1.236zm9.903-.019l4.953-.012a.618.618 0 0 0-.002-1.236l-4.953.011a.62.62 0 0 0 .002 1.237zm9.905-.021c1.638-.004 3.289-.008 4.951-.01a.618.618 0 1 0-.002-1.237l-4.952.01a.618.618 0 1 0 .003 1.237zm9.903-.021l4.951-.01a.618.618 0 1 0-.003-1.237l-4.951.01a.618.618 0 1 0 .003 1.237zm9.902-.02c1.642-.004 3.293-.008 4.951-.01a.619.619 0 0 0-.002-1.237l-4.952.01a.619.619 0 0 0 .003 1.237zm9.903-.021l4.95-.01a.618.618 0 1 0-.002-1.237c-1.658.004-3.308.008-4.952.01a.618.618 0 1 0 .004 1.237zm9.902-.02l4.95-.01a.619.619 0 0 0-.002-1.237l-4.952.01a.62.62 0 0 0 .004 1.237zm9.9-.021l4.952-.01a.62.62 0 0 0-.003-1.237c-1.655.004-3.305.008-4.951.01a.618.618 0 1 0 .002 1.237zm9.902-.02l4.951-.011a.617.617 0 1 0-.003-1.237l-4.95.011a.617.617 0 1 0 .002 1.237zm9.901-.021l4.95-.01a.616.616 0 0 0 .617-.619.616.616 0 0 0-.619-.617l-4.951.009a.62.62 0 0 0-.617.62.62.62 0 0 0 .62.617zm9.901-.02l4.951-.011a.618.618 0 1 0-.002-1.236l-4.952.011a.618.618 0 1 0 .003 1.236zm9.882-.021l4.939-.01a.618.618 0 1 0-.003-1.236l-4.939.01a.619.619 0 0 0 .003 1.236zm9.885-.019l4.954-.012a.617.617 0 1 0-.002-1.236l-4.954.011a.618.618 0 0 0 .002 1.237zm9.916-.021l4.969-.01a.618.618 0 1 0-.003-1.237l-4.969.01a.619.619 0 0 0 .003 1.237zm9.92-.02l4.951-.011a.619.619 0 0 0-.003-1.237l-4.95.011a.618.618 0 1 0 .002 1.237zm9.901-.021l4.952-.01a.62.62 0 0 0-.003-1.237l-4.952.01a.62.62 0 0 0 .003 1.237zm9.902-.02l4.95-.011a.618.618 0 1 0-.002-1.237l-4.951.011a.617.617 0 1 0 .003 1.237zm9.902-.021l4.95-.01a.62.62 0 0 0-.002-1.237l-4.952.01a.62.62 0 0 0 .004 1.237zm9.9-.02l4.951-.011a.618.618 0 1 0-.003-1.237l-4.95.011a.619.619 0 0 0 .002 1.237zm9.901-.021l4.952-.01a.619.619 0 0 0-.003-1.236l-4.951.009a.618.618 0 1 0 .002 1.237zm9.902-.021c1.656-.002 3.306-.006 4.952-.01a.618.618 0 1 0-.004-1.236c-1.645.003-3.295.007-4.951.009a.619.619 0 0 0 .003 1.237zm9.902-.02l4.95-.01a.617.617 0 1 0-.002-1.236c-1.644.002-3.295.006-4.951.01a.618.618 0 1 0 .003 1.236zm9.902-.021c1.657-.002 3.307-.006 4.95-.01a.618.618 0 1 0-.002-1.236l-4.951.01a.618.618 0 1 0 .003 1.236zm9.902-.02l4.951-.009a.62.62 0 0 0 .617-.62.617.617 0 0 0-.619-.617c-1.643.002-3.293.006-4.952.01a.618.618 0 1 0 .003 1.236zm9.903-.021l4.951-.009a.618.618 0 0 0-.002-1.237l-4.952.01a.618.618 0 1 0 .003 1.236zm9.902-.019l4.952-.011a.618.618 0 1 0-.002-1.237l-4.952.011a.619.619 0 1 0 .002 1.237zm9.904-.021l4.952-.01a.62.62 0 0 0 .617-.62.62.62 0 0 0-.62-.617l-4.951.01a.618.618 0 1 0 .002 1.237zm9.903-.02l4.953-.011a.618.618 0 1 0-.003-1.237l-4.952.011a.618.618 0 1 0 .002 1.237zm9.906-.021l4.951-.01a.617.617 0 0 0 .617-.62.617.617 0 0 0-.619-.617l-4.952.01a.618.618 0 1 0 .003 1.237zm9.905-.02l4.953-.011a.619.619 0 0 0-.002-1.237l-4.954.011a.618.618 0 1 0 .003 1.237zm9.906-.021l4.954-.01a.618.618 0 1 0-.003-1.237l-4.954.01a.618.618 0 0 0 .004 1.237h-.001zm9.909-.02l4.954-.011a.619.619 0 0 0-.002-1.237l-4.954.012a.618.618 0 0 0 .002 1.236zm9.911-.021l4.955-.01a.618.618 0 0 0-.002-1.236c-1.613.002-3.265.006-4.956.01a.619.619 0 0 0 .003 1.236zm9.913-.02l4.957-.011a.619.619 0 1 0-.002-1.236l-4.958.011a.617.617 0 1 0 .003 1.236zm9.918-.021l4.962-.01a.619.619 0 1 0-.002-1.236c-1.574.002-3.23.006-4.963.01a.618.618 0 1 0 .004 1.236h-.001zm9.929-.021l4.971-.01a.618.618 0 0 0-.002-1.236l-4.972.01a.618.618 0 1 0 .003 1.236zm9.954-.019l4.985-.01a.62.62 0 0 0 .617-.62.62.62 0 0 0-.62-.618l-4.985.011a.618.618 0 1 0 .003 1.237zm10.04-.765a14.272 14.272 0 0 0 4.541-2.405.619.619 0 0 0-.767-.971 13.008 13.008 0 0 1-4.15 2.198.618.618 0 0 0 .376 1.178zm7.934-6.265a15.678 15.678 0 0 0 1.895-4.763.619.619 0 0 0-1.208-.265 14.413 14.413 0 0 1-1.745 4.387.618.618 0 0 0 1.058.641zm2.183-9.878a15.183 15.183 0 0 0-1.378-4.94.617.617 0 1 0-1.116.53 14.005 14.005 0 0 1 1.265 4.539.618.618 0 1 0 1.229-.129zm-4.378-9.113a15.276 15.276 0 0 0-4.245-2.874.62.62 0 0 0-.517 1.123 14.049 14.049 0 0 1 3.904 2.642.618.618 0 0 0 .858-.891zm-9.125-4.334a24.812 24.812 0 0 0-4.025-.314h-.06.003l-.301.001c-.216 0-.43-.001-.643-.003a.618.618 0 0 0-.006 1.237l.649.002.303-.001h.055c1.368 0 2.641.104 3.825.298a.618.618 0 0 0 .2-1.22zm-9.946-.427a115.402 115.402 0 0 1-4.91-.31.619.619 0 0 0-.105 1.231c1.583.136 3.236.241 4.963.314a.617.617 0 1 0 .052-1.235zm-9.791-.856a74.466 74.466 0 0 1-4.834-.83.619.619 0 0 0-.25 1.211c1.537.318 3.173.601 4.913.844a.62.62 0 0 0 .171-1.225zm-9.578-2.015a40.304 40.304 0 0 1-4.577-1.654.62.62 0 0 0-.815.319.62.62 0 0 0 .321.815 41.23 41.23 0 0 0 4.718 1.705.619.619 0 0 0 .353-1.185zm-8.801-3.964c-1.537-1.071-2.632-2.188-3.318-3.276a.62.62 0 0 0-1.046.661c.8 1.265 2.017 2.486 3.658 3.63a.619.619 0 0 0 .706-1.015zm-4.046-7.473c.376-1.217 1.306-2.397 2.828-3.413a.618.618 0 0 0-.686-1.029c-1.693 1.129-2.841 2.519-3.323 4.077a.618.618 0 0 0 1.181.365zm7.159-5.333c1.393-.401 2.98-.708 4.747-.895a.617.617 0 1 0-.13-1.229c-1.831.193-3.487.511-4.96.937a.617.617 0 1 0 .343 1.187z" fill="#CFDDF3"/><path d="M44.865 339.323a5.923 5.923 0 1 1-11.677 1.991 5.923 5.923 0 0 1 11.677-1.991z" fill="#6589CE"/><path d="M481.506 323.773a5.922 5.922 0 1 1-11.677 1.99 5.922 5.922 0 0 1 11.677-1.99z" fill="#2744A0"/><path d="M115.841 427.89a8.983 8.983 0 0 1-7.917-4.732c.183.013.367.02.553.021l.17.003h.019l96.807-.2-.316 4.724-89.296.184h-.02zm99.896-.205c.387-1.521.794-3.098 1.221-4.727l14.412-.03c.095 1.603.186 3.18.274 4.723l-15.907.034zm26.505-.056l.439-4.724 238.08-.491a8.988 8.988 0 0 0 8.97-9.007l-.016-8.137c1.6-.1 3.151-.137 4.588-.148l.33-.001c.758 0 1.513.019 2.267.054l.026 12.94a8.987 8.987 0 0 1-8.968 9.007l-245.716.507zm247.452-32.238l-.015-7.362a90.679 90.679 0 0 1 7.173-6.156l.019 9.048a86.477 86.477 0 0 0-7.177 4.47zm-.053-25.613l-.111-54.361a135.624 135.624 0 0 1 7.185.062l.063 30.386a.62.62 0 0 0-.501-.467 24.82 24.82 0 0 0-4.025-.314h-.06.003l-.301.001c-.216 0-.43-.001-.643-.003h-.002a.619.619 0 0 0-.004 1.237l.649.002.303-.001h.055c1.367 0 2.641.104 3.825.298a.618.618 0 0 0 .701-.47l.031 14.552a108.225 108.225 0 0 0-3.06 3.638 105.784 105.784 0 0 0-4.108 5.44zm-.346-168.197l-.025-11.936c2.512-2.807 4.953-5.684 7.168-8.752l.033 15.963c-2.029.893-3.958 2.106-5.651 3.451-.519.412-1.028.837-1.525 1.274zm-.029-13.792l-.023-11.584h.1l-.019-8.508a9.866 9.866 0 0 0-.144-1.669 9.754 9.754 0 0 0-.084-.624 38.316 38.316 0 0 0 5.161 2.649c.559.235 1.12.454 1.676.653.313.91.484 1.887.485 2.903l.015 7.131c-.271.403-.547.8-.828 1.192-1.952 2.734-4.103 5.323-6.339 7.857zm5.934-20.685a26.507 26.507 0 0 1-.463-.191c-2.307-.97-4.59-2.226-6.151-3.323a8.702 8.702 0 0 0-.43-.923 8.997 8.997 0 0 1 7.044 4.437z" fill="#D0DBEF"/><path d="M489.423 263.957l-.017-8.204 3.565-.008a.619.619 0 0 0-.001-1.236h-.001l-3.566.007-.049-23.86c2.134-3.935 4.438-7.751 7.163-11.221l.079 38.243a143.497 143.497 0 0 0-7.173 6.279zm-.074-35.847l-.055-26.529a41.127 41.127 0 0 1 1.525-1.274c1.693-1.345 3.622-2.558 5.652-3.451l.031 15.136-3.357.008a.618.618 0 0 0 .002 1.236h.001l3.356-.006.009 4.243c-2.746 3.295-5.058 6.907-7.164 10.637z" fill="#56C3AA"/><path d="M489.354 230.656l-.005-2.546c2.106-3.73 4.419-7.342 7.164-10.637l.004 1.962c-2.725 3.47-5.028 7.286-7.163 11.221z" fill="#369D93"/><path d="M489.485 294.085l-.016-7.862a73.682 73.682 0 0 1 7.176-4.66l.019 9.276c-1.145.447-2.278.92-3.398 1.424a84.731 84.731 0 0 0-3.781 1.822zm-.018-9.388l-.044-20.74a143.519 143.519 0 0 1 7.173-6.279l.046 22.467a74.917 74.917 0 0 0-7.175 4.552z" fill="#5779C5"/><path d="M489.469 286.223l-.002-1.526a74.917 74.917 0 0 1 7.175-4.552l.004 1.418a73.576 73.576 0 0 0-7.177 4.66z" fill="#293F96"/><path d="M489.679 388.029l-.018-9.003a74.173 74.173 0 0 1 2.488-3.278c1.095-.003 1.919-.005 2.459-.005a.62.62 0 0 0 .617-.62.621.621 0 0 0-.619-.618h-.001l-1.442.003a83.528 83.528 0 0 1 3.666-4.097l.023 11.462a90.47 90.47 0 0 0-7.173 6.156zm-.023-11.089l-.003-1.187.914-.003c-.308.395-.612.792-.911 1.19zm-.005-2.424l-.01-4.738a105.784 105.784 0 0 1 4.108-5.44c.991-1.23 2.01-2.446 3.06-3.638l.016 7.938a84.39 84.39 0 0 0-5.268 5.874c-.574 0-1.21.003-1.906.004z" fill="#56C3AA"/><path d="M489.661 379.026l-.005-2.086c.299-.398.603-.795.911-1.19l1.582-.002a74.173 74.173 0 0 0-2.488 3.278zm1.895-4.514a84.66 84.66 0 0 1 5.269-5.874l.003 1.774a82.595 82.595 0 0 0-3.665 4.097l-1.607.003zm-1.841 30.758l-.009-4.108c2.318-.9 4.722-1.734 7.18-2.492l.014 6.505a48.894 48.894 0 0 0-2.267-.054l-.33.001a83.873 83.873 0 0 0-4.588.148zm-.011-5.432l-.01-4.447a86.626 86.626 0 0 1 7.176-4.47l.014 6.456a108.044 108.044 0 0 0-7.18 2.461z" fill="#369D93"/><path d="M489.707 401.162l-.003-1.324a108.621 108.621 0 0 1 7.18-2.461l.003 1.293a106.573 106.573 0 0 0-7.18 2.492z" fill="#236559"/><path d="M489.27 189.645l-.004-1.856c2.236-2.534 4.387-5.123 6.339-7.857.281-.392.557-.789.828-1.192l.004 2.153c-2.214 3.068-4.656 5.945-7.167 8.752zm6.663-20.939a32.867 32.867 0 0 1-1.676-.653 38.39 38.39 0 0 1-5.162-2.649 8.874 8.874 0 0 0-.509-1.814c1.561 1.097 3.843 2.353 6.151 3.323.153.065.308.13.463.191.294.505.54 1.04.733 1.602z" fill="#293F96"/><path d="M489.495 299.03l-.01-4.945a84.731 84.731 0 0 1 3.781-1.822 72.718 72.718 0 0 1 3.398-1.424l.011 4.944a76.17 76.17 0 0 0-3.404 1.426 87.642 87.642 0 0 0-3.776 1.821z" fill="#4D6DBE"/><path d="M496.715 315.479a135.624 135.624 0 0 0-7.185-.061l-.02-9.468a91.485 91.485 0 0 1 3.978-1.203 103.24 103.24 0 0 1 3.203-.834l.024 11.566zm-7.208-10.826l-.012-5.623a87.642 87.642 0 0 1 3.776-1.821 76.17 76.17 0 0 1 3.404-1.426l.014 6.859c-1.194.287-2.372.591-3.532.914a93.586 93.586 0 0 0-3.65 1.097z" fill="#56C3AA"/><path d="M489.51 305.95l-.003-1.297a93.586 93.586 0 0 1 3.65-1.097c1.16-.323 2.338-.627 3.532-.914l.002 1.271a105.37 105.37 0 0 0-3.203.834 91.485 91.485 0 0 0-3.978 1.203z" fill="#369D93"/><path d="M489.406 255.753l-.003-1.237 3.566-.007h.001a.618.618 0 0 1 .001 1.236l-3.565.008zm3.741-42.516a.618.618 0 1 1-.002-1.237l3.357-.008.002 1.238-3.356.007h-.001z" fill="#293F96"/><path d="M489.653 375.752l-.002-1.236c.696-.001 1.332-.004 1.906-.004l1.606-.004 1.442-.003h.001a.62.62 0 0 1 .001 1.238l-2.458.004-1.582.003-.914.002zm6.524-29.125a.555.555 0 0 1-.1-.009 23.645 23.645 0 0 0-3.825-.298h-.055l-.303.001-.649-.002a.618.618 0 0 1 .004-1.237h.002c.213.001.427.003.643.003l.301-.002h-.003.06c1.43 0 2.771.109 4.025.315a.62.62 0 0 1 .501.467v.283a.618.618 0 0 1-.601.479z" fill="#B2C3E8"/><path d="M480.67 422.413l-372.095.768a8.99 8.99 0 0 1-9.007-8.971l-.51-246.506a8.99 8.99 0 0 1 8.972-9.008l372.095-.766c4.964-.012 8.997 4.005 9.008 8.969l.508 246.506a8.99 8.99 0 0 1-8.971 9.008z" fill="#fff"/><path d="M479.519 157.932l-370.503.764c-5.404.012-9.776 4.402-9.765 9.806l.018 8.508 390.074-.805-.018-8.508c-.011-5.404-4.402-9.776-9.806-9.765z" fill="#4058B1"/><path d="M109.461 423.181l55.981-.117-.508-246.19-65.765.136.488 236.417c.01 5.397 4.401 9.765 9.804 9.754z" fill="#CFDDF3"/><path d="M480.234 157.931h-.019l-372.095.768a8.989 8.989 0 0 0-8.97 9.006l.509 246.506a8.989 8.989 0 0 0 8.988 8.971h.019l372.095-.768a8.987 8.987 0 0 0 8.97-9.006l-.508-246.508a8.99 8.99 0 0 0-8.989-8.969zm.001 2.473c3.585 0 6.507 2.918 6.515 6.501l.508 246.506a6.523 6.523 0 0 1-6.502 6.53l-372.109.768c-3.585 0-6.508-2.917-6.515-6.503l-.509-246.505a6.48 6.48 0 0 1 1.899-4.612 6.474 6.474 0 0 1 4.603-1.917l372.09-.768h.02z" fill="#4058B1"/><path d="M156 404.361l-43.14.089a3.445 3.445 0 0 1-3.454-3.439l-.002-.426a3.447 3.447 0 0 1 3.441-3.454l43.14-.089a3.447 3.447 0 0 1 3.454 3.439v.428a3.443 3.443 0 0 1-3.439 3.452zm-5.186-167.019l-36.731.075a6.313 6.313 0 0 1-6.327-6.302l-.076-36.729a6.315 6.315 0 0 1 6.301-6.328l36.73-.076a6.314 6.314 0 0 1 6.328 6.303l.076 36.729a6.316 6.316 0 0 1-6.301 6.328z" fill="#fff"/><path d="M308.055 347.368l-127.967.264a4.501 4.501 0 0 1-4.511-4.492l-.001-.558a4.5 4.5 0 0 1 4.491-4.51l127.967-.264a4.5 4.5 0 0 1 4.511 4.491l.001.559a4.501 4.501 0 0 1-4.491 4.51zm-7.397-145.799l-101.126.208a4.502 4.502 0 0 1-4.512-4.492l-.001-.558a4.502 4.502 0 0 1 4.493-4.511l101.127-.208a4.5 4.5 0 0 1 4.51 4.492l.002.558a4.504 4.504 0 0 1-4.493 4.511zm159.861 102.272l-134.831.277a4.502 4.502 0 0 1-4.511-4.491l-.002-.559a4.502 4.502 0 0 1 4.493-4.51l134.831-.279a4.502 4.502 0 0 1 4.51 4.493l.002.558a4.502 4.502 0 0 1-4.492 4.511zm-152.425 63.294l-127.966.263a4.502 4.502 0 0 1-4.511-4.492l-.001-.559a4.501 4.501 0 0 1 4.492-4.51l127.967-.264a4.502 4.502 0 0 1 4.511 4.492l.001.558a4.503 4.503 0 0 1-4.493 4.512zm.041 19.764l-127.966.264a4.501 4.501 0 0 1-4.511-4.491l-.001-.558a4.501 4.501 0 0 1 4.492-4.511l127.967-.265a4.503 4.503 0 0 1 4.511 4.493l.001.558a4.502 4.502 0 0 1-4.493 4.51zm149.649 12.892l-128.965.266a7.434 7.434 0 0 1-7.449-7.419l-.114-55.389a7.434 7.434 0 0 1 7.419-7.45l128.964-.266a7.434 7.434 0 0 1 7.45 7.418l.113 55.389a7.433 7.433 0 0 1-7.418 7.451zM120.647 167.658a3.153 3.153 0 1 1-6.306.012 3.153 3.153 0 0 1 6.306-.012zm13.344-.027a3.152 3.152 0 1 1-6.304.014 3.152 3.152 0 0 1 6.304-.014zm13.346-.028a3.153 3.153 0 1 1-6.305.013 3.153 3.153 0 0 1 6.305-.013zm42.784 29.413a9.115 9.115 0 0 1-9.097 9.133 9.113 9.113 0 0 1-9.133-9.095 9.113 9.113 0 0 1 9.096-9.134 9.116 9.116 0 0 1 9.134 9.096z" fill="#CFDDF3"/><path d="M153.374 245.045l-40.375.084a1.7 1.7 0 0 1-1.701-1.696v-.21a1.697 1.697 0 0 1 1.694-1.702l40.374-.084a1.699 1.699 0 0 1 1.703 1.696v.21c.003.939-.757 1.7-1.695 1.702zm.015 7.709l-40.374.084a1.7 1.7 0 0 1-1.702-1.696v-.21a1.7 1.7 0 0 1 1.695-1.703l40.374-.083c.939-.002 1.7.757 1.702 1.695l.001.211a1.7 1.7 0 0 1-1.696 1.702z" fill="#fff"/><path d="M199.618 269.054l-11.418.116.085 47.832-9.852.019a6.294 6.294 0 0 1-6.308-6.281l-.182-88.452a6.361 6.361 0 0 1 6.348-6.375l21.203-.055.124 53.196z" fill="#CFDDF3"/><path d="M273.682 215.716h-.016l-94.301.194a7.433 7.433 0 0 0-7.419 7.45l.177 86.24a7.433 7.433 0 0 0 7.433 7.419h.016l94.303-.194a7.434 7.434 0 0 0 7.418-7.45l-.178-86.24a7.432 7.432 0 0 0-7.433-7.419zm.001 0v1.237c3.409 0 6.188 2.774 6.196 6.184l.178 86.241a6.204 6.204 0 0 1-6.185 6.21l-94.316.194a6.207 6.207 0 0 1-6.197-6.184l-.177-86.241a6.204 6.204 0 0 1 6.185-6.21l94.302-.194.014-1.237zm157.475 70.983l-125.794-28.431a7.434 7.434 0 0 1-5.612-8.89l14.151-62.61a7.434 7.434 0 0 1 8.89-5.613l125.793 28.431a7.434 7.434 0 0 1 5.612 8.889l-14.151 62.611a7.433 7.433 0 0 1-8.889 5.613z" fill="#CFDDF3"/><path d="M187.704 456.986l-17.601.036-4.307-22.424 26.123-.055-4.215 22.443z" fill="#4058B1"/><path d="M170.668 434.587c.005 1.83-.345 4.902.874 4.946 1.219.047.714-2.915 2.103-2.835.887.05-.413 9.743 2.938 9.977 2.303.159 1.883-4.754 2.119-7.829.16-2.082 2.825-1.674 2.846-.296.025 1.54-.072 2.571.002 4.323.125 2.926 4.624 2.15 4.463-1.761-.16-3.911-.01-6.556-.01-6.556l-15.335.031z" fill="#CFDDF3"/><path d="M166.455 448.132a4.729 4.729 0 0 1-1.04-.108c-1.296-.287-2.206-.968-2.705-2.027-1.794-3.804 2.93-10.933 3.114-11.25l.247 1.283c-.044.075-4.15 6.202-2.537 9.621.383.812 1.066 1.317 2.086 1.543.282.062.578.091.884.09 6.339-.011 17.176-11.827 17.295-11.963.443-.532 1.271-.03.977.418-.496.569-11.507 12.378-18.321 12.393z" fill="#17243B"/><path d="M378.409 158.139c1.793-1.136 3.519-2.392 5.043-3.85a39.055 39.055 0 0 1 3.197 3.832l-8.24.018z" fill="#D0DBEF"/><path d="M311.318 158.277a42.88 42.88 0 0 1 7.484-6.986c.361 2.866.492 5.331.589 6.97l-8.073.016zm9.44-.02c.673-3.381 1.653-6.734 2.814-10.041 8.179-4.609 17.531-6.781 25.992-6.781.622 0 1.24.011 1.854.035 15.058.576 25.226 5.656 32.034 12.819-1.524 1.458-3.25 2.714-5.043 3.85l-57.651.118zm-.387-3.835a78.72 78.72 0 0 0-.427-3.942c.652-.45 1.317-.882 1.989-1.297a80.024 80.024 0 0 0-1.562 5.239z" fill="#77D0BB"/><path d="M320.63 158.259c-.06-.986-.13-2.298-.259-3.836a78.84 78.84 0 0 1 1.562-5.24 50.24 50.24 0 0 1 1.639-.967c-1.162 3.307-2.141 6.661-2.814 10.042l-.128.001z" fill="#369D93"/><path d="M319.391 158.261c-.097-1.639-.228-4.104-.589-6.97.376-.276.757-.546 1.142-.811a79.99 79.99 0 0 1 .428 3.942c.128 1.539.199 2.851.258 3.837l-1.239.002z" fill="#369D93"/><path d="M307.832 210.178c-2.108 0-3.89-2.531-3.654-5.93a83.058 83.058 0 0 1-.875-3.545 4.491 4.491 0 0 0 1.847-3.646l-.001-.557a4.505 4.505 0 0 0-3.226-4.309c-.558-5.717-.283-10.913.665-15.602l11.908-.023c-2.321 5.862-4.153 14.074-5.568 25.494 0 0 .49 1.653.736 3.461l-1.024 4.534v.001a2.766 2.766 0 0 1-.808.122zm88.729-12.669l-7.724-1.427c-.663-8.537-2.518-14.906-4.985-19.66l10.816-.022c1.756 7.559 2.08 15.082 1.893 21.109zm-85.246-39.229c.001-.003.001-.002.003-.003l8.073-.016 1.239-.002.128-.002 57.651-.118 8.239-.018.002.003-75.335.156z" fill="#DFE5EF"/><path d="M302.588 176.59c1.24-6.123 3.627-11.385 6.808-15.833l78.926-.164c3.083 4.929 5.085 10.376 6.346 15.807l-10.815.023c-5.317-10.239-13.479-12.985-18.715-13.757l-31.027.064-.396-.002c-8.532 0-14.773 2.608-19.219 13.838l-11.908.024z" fill="#3C52AC"/><path d="M309.396 160.757a40.122 40.122 0 0 1 1.92-2.477l75.334-.156a41.167 41.167 0 0 1 1.672 2.47l-78.926.163z" fill="#3C52AC"/><path d="M303.303 200.703a70.931 70.931 0 0 1-1.38-8.512 4.505 4.505 0 0 1 3.226 4.308l.002.558a4.495 4.495 0 0 1-1.848 3.646zm5.338 9.352l1.024-4.534c.269 1.979.248 4.144-1.024 4.535" fill="#B2C3E8"/><path d="M351.416 137.53c-25.015-.957-59.454 17.544-47.237 62.779l4.75-2.189c4.165-33.632 11.956-39.451 25.182-39.33l31.027-.064c7.667 1.13 21.982 7.936 24.072 34.859l7.352-.016c.602-19.448-4.106-54.47-45.146-56.039z" fill="#FFB800"/><path d="M346.3 138.266l-3.715 8.166s.443 4.6 4.957 4.504c4.512-.096 5.116-2.18 5.116-2.18l.589-9.376-6.947-1.114z" fill="#F9AA99"/><path d="M365.4 131.455c-4.236 7.488-6.112 9.818-11.651 10.944-7.173 1.458-15.215-3.379-11.476-15.302 3.048-9.721 7.662-8.223 12.182-7.856 4.519.367 15.52 4.124 10.945 12.214z" fill="#F9AA99"/><path d="M348.564 125.548c-1.126-.588-2.574-.089-3.447.832-.899.946-1.333 2.363-.951 3.61-1.734.026-3.256 1.725-3.09 3.451-1.185-2.764-.543-5.637-.778-8.464-.234-2.829.075-5.903 1.908-8.07.752-.888 1.72-1.571 2.748-2.117 3.9-2.072 8.801-2.143 12.76-.18.819.405 2.875 1.7 5.741 1.006 5.464-1.32 8.662 2.375 5.377 5.836 1.055.381 2.211.851 2.689 1.865.122.258.187.584.023.82-.115.164-.311.246-.501.31a5.95 5.95 0 0 1-2.876.229c.368.313 2.397.435 3.008 1.615 1.628 3.139-4.826 1.553-5.809 1.239 1.123.21 4.071 2.563 3.127 4.176-.185.319-4.166 2.639-8.349-2.221-.974-1.13-2.187-2.174-3.628-2.557-1.131-.302-2.315.115-3.409.528-.799.3-2.839 1.542-3.424.803-.643-.812.185-2.063-1.119-2.711z" fill="#17243B"/><path d="M390.002 193.591c-1.109 3.815-2.23 4.196-.886 4.803 1.345.607 2.432-1.531 2.432-1.531l6.205 1.234s-1.4-4.031-2.379-4.517c-.978-.487-5.372.011-5.372.011zm-81.073 4.529c.81 2.013 1.034 2.027 2.163 4.447 2.159 4.626-2.898 11.94-6.038 3.955-.859-2.189-.875-6.213-.875-6.213l4.75-2.189z" fill="#F9AA99"/><path d="M357.399 115.26c4.239.23 9.462-2.764 12.783 1.081.306.354.924-.115.653-.503-3.175-4.558-9.073-1.168-13.436-1.283-.455-.012-.45.681 0 .705zm1.703-2.34c-2.898.504-5.693-.862-8.598-.408-2.363.371-4.467 1.581-6.25 3.134-.458.397.141 1.176.649.841 2.498-1.644 4.899-3.063 8.015-2.836 2.262.166 4.186.834 6.432.164.581-.174.332-.995-.248-.895zm-16.495 3.957c-2.041 1.269-3.217 2.965-3.458 5.407-.174 1.751-.228 5.78 1.543 6.768.423.238.868-.321.522-.674-1.135-1.152-1.237-4.255-1.155-5.718.125-2.242 1.061-3.947 2.841-5.283.289-.218.032-.702-.293-.5zm31.376 6.964c-1.049-1.82-3.736-3.429-5.802-2.274-.324.181-.17.676.187.684.903.017 1.728-.1 2.614.172 1 .306 1.836.889 2.44 1.745.238.335.771.04.561-.327z" fill="#17243B"/><path d="M236.371 312.491c13.116 4.818 24.506 19.865 21.892 30.802-2.952 12.353-11.475 17.682-11.475 17.682l-2.685-4.96s6.813-10.653 6.221-15.682c-.948-8.057-11.12-13.438-11.12-13.438l-2.833-14.404z" fill="#8825CD"/><path d="M204.081 451.889s-8.056 3.254-10.069 5.09l15.955-.033-.011-5.069-5.875.012zm35.255-.31s2.287 2.651 2.708 5.305l-10.887.022c.188-1.837.971-3.594 2.03-5.316l6.149-.011z" fill="#17243B"/><path d="M239.999 451.816l-7.432.012c.148-8.755-1.658-38.596-3.401-60.905-1.027-13.084-2.041-23.596-2.634-25.723l3.982-.878 15.025-3.339c2.572 11.748-3.364 65.691-5.54 90.833z" fill="#2C7F75"/><path d="M212.683 364.729c-5.798 9.133-7.297 75.118-9.723 87.348l7.049.4s8.095-41.602 25.338-88.371l-22.664.623z" fill="#359A91"/><path d="M229.166 390.923c-.202-2.565-.402-5.032-.6-7.356a589.883 589.883 0 0 1 6.751-19.382l3-.085a603.48 603.48 0 0 0-9.151 26.823z" fill="#266F6C"/><path d="M228.566 383.567c-.807-9.528-1.557-16.656-2.034-18.367l3.982-.878 4.803-.137a589.883 589.883 0 0 0-6.751 19.382z" fill="#2E8886"/><path d="M212.683 364.729c-5.798 9.133-7.297 75.118-9.723 87.348l7.049.4s8.095-41.602 25.338-88.371l-22.664.623z" fill="#359A91"/><path d="M217.112 291.064s-4.511 17.196 6.76 17.173l-.668 4.394 8.56.936-1.85-6.122s1.693-10.812 1.805-12.764c.213-3.647-10.003-10.071-14.607-3.617z" fill="#F9AA99"/><path d="M189.265 285.823l-3.322.005-.029-14.035 3.321-.006.03 14.036z" fill="#17243B"/><path d="M197.11 271.771l-19.071.039a2.418 2.418 0 0 1-2.422-2.412l-.001-.5a2.417 2.417 0 0 1 2.412-2.421l19.071-.037a2.417 2.417 0 0 1 2.422 2.411l.001.499a2.417 2.417 0 0 1-2.412 2.421z" fill="#4058B1"/><path d="M185.018 289.489c-.089-3.183-2.714-2.35-1.269-7.543.896-3.212 7.527.515 6.701 2.743-.825 2.226-1.777 5.748-1.777 5.748l-3.655-.948z" fill="#F9AA99"/><path d="M223.953 311.619c-16.856 1.116-17.966 6.798-25.509 5.908-11.165-1.314-9.211-22.048-7.831-29.484l-6.668.014s-12.02 47.231 25.945 38.498c-1.458 8.273 7.983 21.784-1.171 38.183 14.412 3.914 27.859 4.874 39.374-.078-2.016-2.716 4.133-30.158-7.907-49.914-2.35-3.856-15-3.209-16.233-3.127z" fill="#4058B1"/><path d="M223.953 311.619c-16.856 1.116-17.966 6.798-25.509 5.908-11.165-1.314-9.211-22.048-7.831-29.484l-6.668.014s-12.02 47.231 25.945 38.498c-1.458 8.273 7.983 21.784-1.171 38.183 14.412 3.914 27.859 4.874 39.374-.078-2.016-2.716 4.133-30.158-7.907-49.914-2.35-3.856-15-3.209-16.233-3.127z" fill="#8825CD"/><path d="M221.631 294.36c1.098.28 2.378.491 2.965 1.425.381.606.355 1.36.318 2.066.202-.739 1.02-1.271 1.81-1.181.792.092 1.455.797 1.468 1.56.008.358-.111.707-.243 1.043a12.578 12.578 0 0 1-1.254 2.386c1.377.506 2.53 4.533 3.219 5.786 2.316-.58 7.467-2.57 7.916-10.771.209-3.82-.956-8.393-5.099-10.938-2.927-1.796-7.785-1.821-11.135-.965-2.717.694-7.051 3.407-5.031 6.579 1.021 1.601 3.25 2.546 5.066 3.01z" fill="#EF731E"/><path d="M236.069 289.137c1.569-.521 3.559-.244 4.501 1.066.736 1.023.669 2.365.908 3.586.114.588.323 1.189.779 1.595.547.486 1.338.601 2.082.642 1.814.096 3.651-.134 5.44.169 1.789.304 3.618 1.315 4.128 2.987.281.923.128 1.941.466 2.848.507 1.361 1.956 2.135 3.219 2.926a20.99 20.99 0 0 1 6.62 6.588c1.047 1.67 1.852 3.524 1.979 5.466.127 1.944 1.528 4.51 1.155 6.425-.403 2.064-2.432 4.854-6.442 6.145-6.929 2.229-9.125 3.195-15.763-.75-.801-.476-2.366-2.095-3.089-2.673-.568-.454-.929-1.112-1.127-1.795-.552-1.905.087-3.959 1.081-5.692.996-1.733 2.336-3.266 3.349-4.989.609-1.037 1.106-2.187 1.049-3.374-.023-.444-.135-.909-.458-1.228-.279-.276-.68-.407-1.073-.484-1.458-.286-3.061.016-4.383-.638-1.285-.638-1.988-2.19-1.599-3.525.26-.891.936-1.643 1.128-2.551.278-1.305-.542-2.647-1.678-3.412-1.137-.764-2.539-1.06-3.908-1.286-.674-.111-1.38-.221-1.929-.614-.677-.487-.987-1.335-.978-2.145.029-2.563 2.118-4.478 4.543-5.287z" fill="#EF731E"/><path d="M234.826 296.049c8.339 1.806-2.187 9.708 2.221 13.488 1.256 1.079 2.722.739 4.195.943 5.661.782 2.566 4.627 2.18 7.641-.058.454.695.548.796.107.481-2.082 2.393-4.625 1.408-6.839-.87-1.952-3.02-1.723-4.784-1.776-2.21-.067-4.648.003-3.821-4.397.185-.978.967-1.971 1.348-2.891.438-1.061.731-2.115.491-3.275-.405-1.962-2.042-3.116-3.915-3.43-.277-.046-.402.367-.119.429zm-17.183-10.206c6.429-3.265 12.839-2.613 18.269 2.175.368.326.867-.172.54-.54-4.765-5.362-13.238-6.31-18.985-1.935-.175.132-.03.404.176.3z" fill="#EF731E"/><path d="M433.639 306.015l-2.787 5.604 6.812 2.785.727-6.452-4.752-1.937z" fill="#F9AA99"/><path d="M437.751 287.773c-15.448 6.724-9.119 23.022.285 21.108 4.576-.932 6.894-15.669 6.894-15.669l-7.179-5.439z" fill="#F9AA99"/><path d="M442.882 285.455c-.508-.946-.988-1.953-1.826-2.626-.837-.672-2.162-.885-2.949-.154-1.039.965-.432 2.775.622 3.726-.905.11-1.982-.516-2.65.106-.506.472-.329 1.308-.04 1.937a8.625 8.625 0 0 0 3.166 3.628c-.784.446-1.692 1.306-1.223 2.075.131.213.35.36.478.574.299.5.009 1.134-.291 1.631a29.724 29.724 0 0 1-1.576 2.34c.531-.729 1.826-.429 2.214.383.39.814.051 1.818-.55 2.488-.333.374-.758.684-1.247.797-.424.099-2.295 5.885-.835 7.019 1.805 1.401 7.943.185 8.831-1.397.888.963 2.189 1.693 3.475 1.437 1.285-.255 2.266-1.842 1.572-2.952 1.389.512 3.078.06 4.027-1.076.948-1.138 1.087-2.882.332-4.157.757-.227.909-1.251.716-2.018-.392-1.552-1.656-2.852-3.196-3.286.782.014 1.403-.774 1.44-1.554.036-.782-.369-1.519-.862-2.126-1.451-1.788-3.168-2.267-5.31-2.538-2.166-.273-3.36-2.478-4.318-4.257z" fill="#1F2431"/><path d="M428.406 450.816s-9.038 4.341-10.252 5.694c0 0 17.784.8 19.177-.04 1.391-.84-2.848-5.665-2.848-5.665l-6.077.011zm33.625-4.905s-7.945 6.116-8.85 7.69c0 0 18.751-2.783 18.751-4.008 0-1.224-3.96-4.954-3.96-4.954l-5.941 1.272z" fill="#17243B"/><path d="M437.146 367.02c-.335 1.837-12.71 50.691 22.698 79.98l10.256-2.352s-11.936-11.197-17.561-31.344c-5.32-19.052-1.096-20.921 2.095-31.415 3.531-11.615.905-20.047.905-20.047l-18.393 5.178z" fill="#FFB800"/><path d="M420.223 366.87c-5.614 13.414-15.251 59.132 5.754 84.873l10.488-.022s-8.262-9.054-9.186-30.064c-.923-21.007 4.417-30.23 8.185-37.161 3.767-6.933 7.254-18.713 7.254-18.713l-22.495 1.087z" fill="#FFB800"/><path d="M412.822 283.705c-2.787 9.824-3.703 27.974 10.254 35.285l9.342-2.276s-16.841-8.83-13.234-31.146l-6.362-1.863z" fill="#2744A0"/><path d="M387.086 278.675l7.252-.894s-.873 30.45 34.294 33.014c26.844 1.958 28.954 52.333 28.954 52.333-8.656 5.827-23.181 7.591-41.793 6.257 0 0 1.191-35.939-1.766-45.777 0 0-29.217-9.192-26.941-44.933z" fill="#4058B1"/><path d="M378.22 273.149c-1.227 1.422 3.898 3.226 8.867 5.526l6.363-.785s.075-1.271-.005-2.596c-.08-1.324-.744-2.081-1.498-.943-.755 1.136-3.973 1.522-5.489.484s-7.01-3.108-8.238-1.686zm34.601 10.556c-2.331-2.294-1.713-2.155-1.713-2.155l7.112 1.608s1.565-3.47 2.889-3.568c1.325-.097-.999 2.392-.466 3.315.533.921-1.459 2.663-1.459 2.663l-6.363-1.863z" fill="#F9AA99"/><path d="M446.875 288.809c1.457.37 2.948.52 4.154 1.514 1.197.987 1.739 2.679.874 4.057-.404.646.558 1.15.993.581 1.108-1.446.808-3.428-.305-4.793-1.283-1.575-3.668-2.226-5.628-2.016-.35.039-.479.556-.088.657zm6.43 13.193c.964.567 1.775 1.488 1.366 2.679-.381 1.102-1.503 1.76-2.403 2.392-.433.304-.061.97.419.717 1.334-.705 2.749-1.698 2.957-3.321.182-1.419-.769-2.499-1.948-3.134-.438-.238-.821.413-.391.667zm-16.24 7.371c3.278 2.037 7.912 1.705 10.62-1.159.335-.352-.117-1.021-.543-.705-2.964 2.194-6.327 2.905-9.809 1.404-.307-.131-.566.274-.268.46z" fill="#4C4BA8"/><path d="M453.735 290.96c1.881 1.789-.004 4.24-1.211 5.774-.266.339.155.794.486.485 1.075-1.004 2.148-2.108 2.294-3.653.109-1.159-.367-2.264-1.4-2.827-.137-.073-.289.108-.169.221z" fill="#4C4BA8"/><path d="M244.546 65.042l-2.901-7.084 27.985-10.625-25.084 17.709z" fill="#2744A0"/><path d="M245.956 60.675l23.674-13.342-16.48 16.737-7.194-3.395zm-10.716-5.602l34.39-7.74-27.985 10.626-6.405-2.886z" fill="#6589CE"/><path d="M245.956 60.675l-1.41 4.367 4.271-3.016-2.861-1.35z" fill="#4058B1"/><path d="M241.361 63.485a10.64 10.64 0 0 0-1.768-.145 12.97 12.97 0 0 0-3.397.473.62.62 0 0 0 .326 1.193 11.723 11.723 0 0 1 3.071-.429 9.4 9.4 0 0 1 1.561.127.619.619 0 1 0 .207-1.219zm-9.817 2.505c-1.454 1.015-2.707 2.277-3.585 3.723a.619.619 0 0 0 1.057.642c.772-1.273 1.902-2.42 3.235-3.35a.617.617 0 1 0-.707-1.014zm-4.864 8.807c.093 1.135.442 2.297 1.08 3.448.324.582.852.993 1.448 1.268a.62.62 0 0 0 .518-1.123c-.43-.199-.723-.453-.884-.745-.56-1.01-.85-1.996-.93-2.95a.618.618 0 1 0-1.232.102zm7.822 4.851c.738-.23 1.409-.555 1.931-1.008.519-.446.902-1.072.901-1.805 0-.139-.014-.28-.041-.42a2.509 2.509 0 0 0-.708-1.317.62.62 0 0 0-.872.879c.193.192.314.404.366.671l.018.187c-.001.294-.137.57-.477.873-.336.295-.864.569-1.484.76a.62.62 0 0 0 .366 1.18zm-3.214-5.181c-2.013.533-3.486 1.489-4.519 2.614a.617.617 0 1 0 .91.837c.878-.952 2.12-1.775 3.927-2.257a.619.619 0 1 0-.318-1.194zm-6.713 7.371a9.49 9.49 0 0 0-.096 1.324c0 .483.041.889.105 1.203a8.085 8.085 0 0 0 1.025 2.631.618.618 0 0 0 1.051-.651c-.388-.626-.683-1.36-.865-2.231a5.025 5.025 0 0 1-.079-.953c0-.337.023-.728.084-1.147a.618.618 0 1 0-1.225-.176zm5.182 8.381c1.557.57 3.296.81 5.055.853a.62.62 0 0 0 .634-.603.62.62 0 0 0-.604-.633c-1.667-.04-3.278-.271-4.658-.778a.618.618 0 1 0-.427 1.161zm10.089.522a47.19 47.19 0 0 0 4.917-.982.619.619 0 0 0-.306-1.198 45.63 45.63 0 0 1-4.784.956.618.618 0 1 0 .173 1.224z" fill="#CFDDF3"/></svg>