<svg width="488" height="375" viewBox="0 0 488 375" fill="none" xmlns="http://www.w3.org/2000/svg"><path d="M112.257 310.193c-9.888.158-19.774.278-29.659.307-17.614.053-40.702-2.564-53.849 7.401-6.62 5.018-4.441 15.025 6.06 16.799 2.97.502 6.17.446 8.958 1.301 2.788.855 4.997 3.182 3.45 4.959-.791.908-2.314 1.396-3.773 1.777-9.232 2.414-19.463 2.721-28.646 5.215-21.82 5.927-18.052 17.84 1.784 21.685 17.838 3.458 37.676 2.98 56.067 3.214 107.637 1.37 215.564 2.997 322.604-1.622 23.085-.996 46.035-2.254 69.02-3.427 10.52-.536 23.686-1.934 23.727-5.068.029-2.182-6.915-3.808-13.76-4.66-11.987-1.492-27.637-2.789-25.372-7.668.827-1.78 4.729-3.413 10.148-4.247 4.186-.645 9.002-.815 13.54-1.203 4.539-.387 9.191-1.1 11.099-2.369 5.139-3.419-7.802-5.454-16.91-5.765-10.911-.374-19.806-2.777-16.045-6.402 2.62-2.526 11.147-4.234 13.74-6.761 1.043-1.017 1.041-2.111.349-3.153-6.925-10.409-43.101-9.516-56.582-10.296-24.941-1.442-49.994-1.717-75.013-1.846-56.755-.293-113.513.196-170.256.956-16.888.226-33.785.605-50.681.873z" fill="#F1F2F2"/><path d="M98.897 138.04l7.245 3.438 17.738 44.183 25.155 10.642-1.29 9.03-32.251-7.417-14.835-26.123-1.763-33.753z" fill="#D34E4E"/><path d="M214.509 192.047l-.702 60.69 6.467 78.13h8.795l10.523-72.082 12.034-72.204-37.117 5.466z" fill="#8825CD"/><path d="M229.017 334.575l-9.51 4.755-4.755-4.755 4.755-4.755h9.51v4.755z" fill="#3B455A"/><path d="M274.801 192.047l.172 35.112-5.931 103.708h-8.794l-14.711-68.821-7.853-75.465 37.117 5.466z" fill="#8825CD"/><path d="M260.299 334.575l9.51 4.755 4.754-4.755-4.754-4.755h-9.51v4.755z" fill="#3B455A"/><path d="M283.946 213.188c.189 5.571.068 13.023-2.278 13.301-.439.053-.863-.142-1.25-.33-4.078-1.981-6.985-4.782-11.006-6.697-4.214-2.006-9.003-3.056-13.683-3.781-6.981-1.114-14.076-1.784-21.102-1.846-6.039-.054-12.318 2.701-18.027 4.215-2.197.584-3.984 2.185-5.81 3.44-2.695 1.855-3.878 2.59-3.51-1.2.6-6.184 1.223-12.367 1.984-18.534 1.518-12.3 3.583-24.57 7.078-36.477 1.335-4.549 2.875-9.034 4.415-13.519l5.625-16.38c2.33-6.786 6.263-11.566 13.15-13.94 5.951-2.051 13.343-2.612 19.132.259 6.435 3.192 9.495 14.067 12.621 19.879 2.74 5.092 6.193 18.983 7.219 24.472 1.234 6.609 2.374 13.186 3.272 19.746.994 7.265 1.694 14.509 1.897 21.71.022.797.183 3.022.273 5.682z" fill="#8825CD"/><path d="M252.16 122.658l-11.884.114s-12.753 44.566-13.221 52.246c-.461 7.541-3.684 38.115-3.684 38.115s13.162.31 28.326 2.158c14.825 3.172 16.071 1.296 16.071 1.296s-8-32.134-8.267-41.367c-.271-9.443-1.48-40.632-1.48-40.632l-5.861-11.93z" fill="#fff"/><path d="M250.437 123.387h-5.851c-1.366 0-2.14 1.564-1.312 2.65l2.402 3.148-6.391 58.95 7.866 7.73 5.407-9.18-1.474-57.5.952-3.742a1.65 1.65 0 0 0-1.599-2.056z" fill="#FFB800"/><path d="M244.951 122.89c.14.121.301.216.486.278.37.122.771.076 1.156.031l4.716-.558c-.518-4.814 2.297-5.902 5.039-8.999 2.779-3.139 1.924-7.371 1.767-11.212-.045-1.071-.096-2.172-.549-3.143-.794-1.703-2.641-2.643-4.436-3.2-4.578-1.424-9.816-1.073-13.847 1.522-1.073.691-2.075 1.559-2.656 2.694-.897 1.752-.669 3.842-.419 5.795.384 2.999 1.272 5.945 2.968 8.473 1.58 2.356 4.593 3.484 4.939 6.311.09.73.311 1.551.836 2.008z" fill="#E8C5BF"/><path d="M236.342 102.611c.266 1.209.83 2.433.537 3.636-1.922-.651-3.177-2.617-3.858-4.616-.308-.905-.533-1.863-.455-2.822.078-.958.494-1.92 1.25-2.463 1.056-.755 2.95-.458 3.251.912.305 1.38-1.128 3.532-.725 5.353z" fill="#3B455A"/><path d="M226.14 91.984c.045-1.45.598-2.745 1.892-3.62 1.117-.754 2.405-1.38 3.083-2.578.526-.93.604-2.082 1.126-3.016.945-1.69 2.995-2.187 4.779-2.76 4.462-1.434 6.866-3.089 11.592-1.254 3.361 1.305 7.703 1.48 10.822 3.382 1.303.795 2.411 2.072 3.32 3.493 3.151 4.927 3.908 11.854 1.855 16.992-.459 1.151-1.042 2.209-1.666 3.222-1.248 2.025-2.585 4.516-4.794 5.507-.139-.954-.85-1.481-1.072-2.418-.16-.676-.106-1.382-.071-2.077.135-2.701.964-6.973-1.734-8.313-3.412-1.695-9.812-.166-13.097 1.268-2.908 1.269-7.815 2.92-10.915 1.561-2.878-1.262-5.217-6.293-5.12-9.39z" fill="#3B455A"/><path d="M317.555 7.342L272.03 24.254l12.193 10.482c-11.458 13.721-25.781 30.944-26.137 31.732-.593 1.317-14.735-22.48-14.735-22.48l-29.787 38.834-13.236-14.835-23.754 31.327 23.042-18.604 14.582 16.115 26.988-32.283L255.82 89.16l40.439-44.075 13.105 11.267 8.191-49.01z" fill="#FFB800"/><path d="M255.783 89.233l41.281-43.538-2.742-2.742-38.539 46.28zm-41.601 7.417l28.702-29.347-1.935-3.225-26.767 32.572zm-14.515-16.125L176.77 99.23l24.501-16.693-1.604-2.012z" fill="#D7A241"/><path d="M236.755 123.095l-34.508 10.643 7.418-33.863-10.643-3.87-16.448 42.571 9.997 12.9 34.831-4.515 9.353-23.866zm19.216-2.013l37.389-2.619-9.513-40.6 9.202-6.6 20.559 46.546-6.143 15.121-36.045 8.605-15.449-20.453z" fill="#8825CD"/><path d="M202.298 97.196l-1.986-10.28 6.138-7.016 3.215 2.923-1.479 7.27 1.592 1.76-1.732 7.433s-5.768-2.23-5.748-2.09zm88.589-24.382l.754-10.727-8.677-6.717-3.638 4.757 3.918 6.997-1.399 3.638 3.847 5.778 5.195-3.727z" fill="#E8C5BF"/><path d="M355.738 333.152l.029-.041-.033-.01-1.599-20.959-10.365 2.225 5.139 18.25-2.645 5.552s-1.01 2.784-.066 2.497c.945-.288 5.035-1.429 5.356-1.732.271-.258 3.103-4.253 3.965-5.472l.219-.31zm-46.203-15.402l1.632 14.269-2.712 3.767.284 2.481 7.267-2.402 3.27-1.631.211-20.136-9.952 3.652z" fill="#AA7159"/><path d="M321.834 210.832l5.102 40.349 3.16 15.049 13.829 55.603 12.599-2.587-5.836-60.831 2.853-38.689 1.123-10.166 3.1-12.258-35.93 13.53z" fill="#3B455A"/><path d="M296.119 212.928l2.038 41.074 10.357 68.579 12.407-1.42.387-40.582 6.72-75.873-14.189-5.919-11.353-3.101-6.367 17.242z" fill="#3B455A"/><path d="M311.167 332.018l-9.589 9.582.736 3.687 7.755-.887 10.147-7.446.017-5.343-1.037-.825s-9.394 5.789-10.049 5.549c-.657-.239 2.02-4.317 2.02-4.317zm37.728.694l-4.864 5.213-2.943 2.339 1.201 4.013 4.307.751 11.343-6.894-1.04-4.936-1.069-1.137s-4.442 3.662-8.616 5.786c-1.181.601 1.681-5.135 1.681-5.135z" fill="#000"/><path d="M311.292 130.187l-9.029 4.683-18.421 32.47 5.62 9.991 8.117-5.62 12.176-16.235 1.537-25.289z" fill="#CCD2D9"/><path d="M308.82 131.942s4.371-5.189 20.918-5.189c16.547 0 28.905 52.405 28.28 61.81-.624 9.406 1.692 30.604 1.692 30.604l-38.714-9.711s-21.848.041-27.156 5.23c-5.307 5.19 10.33-37.033 10.643-46.762.312-9.73-.971-31.117 4.337-35.982z" fill="#CCD2D9"/><path d="M326.659 127.934l1.517.067-4.904 41.758-8.522-17.718-1.561-19.045 1.561-2.809 11.909-2.253z" fill="#F7F7F7"/><path d="M304.573 111.194c-1.021-12.658 15.308-14.879 22.583-6.388 4.746 5.538 3.431 15.989-2.39 20.717.081.264.162.509.247.709.444 1.028.76 2.095 1.055 3.186.11.407-6.172 1.825-6.874 1.98-.246.054-.525.103-.729-.034-.394-.261-.481-1.499-.615-1.922l-.475-1.498c-3.964-.168-7.509-2.664-9.594-5.87-2.096-3.221-2.901-7.077-3.208-10.88z" fill="#AA7159"/><path d="M309.706 97.11c1.125.45 1.913 1.42 2.6 2.382.41.574.812 1.177.95 1.863.551 2.734-1.984 3.686-3.549 5.328-1.929 2.024-3.168 4.743-3.572 7.426-.632 4.202 2.153 8.037 4.581 11.307.856 1.152 2.284 2.797 1.789 4.375-.502 1.602-2.915 2.442-4.385 2.373-1.344-.064-2.693-.677-3.995-.35-1.379.345-2.868 1.669-3.981.751-.309-.255-.499-.649-.841-.858-1.152-.705-2.399 1.255-3.712.977-.808-.172-1.212-1.112-1.329-1.945-.115-.833-.094-1.738-.569-2.43-.407-.594-1.099-.902-1.646-1.367-1.081-.916-1.546-2.52-1.126-3.876.783-2.522 3.995-3.511 4.938-5.973.491-1.283.268-2.726.064-4.094-.207-1.368-.375-2.832.206-4.073.718-1.535 2.478-2.096 3.097-3.814.365-1.009.409-2.136.896-3.089.642-1.256 2.322-2.74 3.383-3.7 1.683-1.524 4.073-2.066 6.201-1.212z" fill="#3B455A"/><path d="M326.566 110.658c1.65 3.593 1.56 8.294 4.621 10.754 3.09 2.482 7.54 1.23 11.192-.165.6-.229 8.282-2.928 8.404-3.032 3.93-3.326-.269-5.613-.724-8.389-.654-3.992 5.591-3.367 4.21-6.85-.784.192-1.541-.54-1.785-1.328-.244-.789-.15-1.638-.241-2.458-.222-2.017-1.665-3.854-3.548-4.516-3.759-1.323-8.149 1.826-11.688-.034-2.194-1.153-3.147-3.798-4.837-5.638-3.266-3.557-8.23-2.432-12.481-2.826-4.486-.416-8.368-.023-12.238 2.495-4.796 3.121-6.34 10.067-2.182 14.151 5.335 5.239 15.325.223 20.059 5.84a8.719 8.719 0 0 1 1.238 1.996z" fill="#3B455A"/><path d="M283.842 167.278l9.352-7.74 18.061-4.192 2.58 7.095-24.51 14.834-5.483-9.997z" fill="#CCD2D9"/><path d="M330.967 226.209h-4.842l.191-2.153a4.16 4.16 0 0 0 3.758-1.108c1.107-1.083 1.184-2.295 1.184-3.745l.007-7.171 3.549.89-.009 8.216c0 1.45-.077 2.662-1.184 3.746a4.149 4.149 0 0 1-4.692.792 4.157 4.157 0 0 0 2.038.533z" fill="#353E51"/><path d="M326.125 226.209h-10.336a4.425 4.425 0 0 1-3.577-1.821l-.796-1.095 2.219-.345h10.6c.563.551 1.28.945 2.081 1.108l-.191 2.153z" fill="#353E51"/><path d="M334.812 212.922l-3.548-.89.065-59.866c0-.542.125-1.056.347-1.512h6.646a3.446 3.446 0 0 0-3.446 3.447l-.064 58.821z" fill="#B7BDC3"/><path d="M342.86 163.586l-4.821-12.53h-.002a3.446 3.446 0 0 0-3.26-2.337 3.446 3.446 0 0 0-3.383 2.794l-.33.023v12.983l.765-1.015.843 1.121h.161l.844-1.121.843 1.121h.162l.844-1.121.844 1.121h.161l.844-1.121.843 1.121h.162l.844-1.121.844 1.121h.161l.844-1.121.843 1.121h.162l.782-1.039z" fill="#D9CEC3"/><path d="M331.259 148.719h-16.895a3.445 3.445 0 0 0-3.444 3.405l-.002.041.002.041v70.742h13.317a4.158 4.158 0 0 0 2.919 1.193 4.158 4.158 0 0 0 2.919-1.193c1.107-1.083 1.184-2.295 1.184-3.746l.072-67.037a3.446 3.446 0 0 1 3.447-3.446h-3.519z" fill="#F0EDEA"/><path d="M323.246 220.098c0-.391.057-.768.158-1.127h-.158l-15.377 2.387.797 1.095a4.426 4.426 0 0 0 3.576 1.821h15.179a4.175 4.175 0 0 1-4.175-4.176z" fill="#D9CEC3"/><path d="M317.252 152.894h3.649v-.634h-3.649v.634zm4.568 0h3.649v-.634h-3.649v.634zm4.571 0h2.492v-.634h-2.492v.634zm-7.315 1.173h2.493v-.633h-2.493v.633zm2.973-.015h2.492v-.633h-2.492v.633zm2.939 0h1.464v-.633h-1.464v.633zm1.844 0h1.464v-.633h-1.464v.633zm-14.426 8.566h8.497v-.396h-8.497v.396zm0-3.149h8.497v-.396h-8.497v.396zm0 .465h1.609v-.237h-1.609v.237zm14.266-.465h3.149v-.396h-3.149v.396zm-14.236 4.949h8.496v-.396h-8.496v.396zm0 .466h1.609v-.239h-1.609v.239zm14.263-.466h3.149v-.396h-3.149v.396zm-14.293 2.614h8.497v-.396h-8.497v.396zm0 .465h1.609v-.237h-1.609v.237zm14.266-.465h3.149v-.396h-3.149v.396zm0-4.414h3.149v-.396h-3.149v.396zm-14.266 10.339h8.497v-.396h-8.497v.396zm0-3.149h8.497v-.396h-8.497v.396zm0 .465h1.609v-.238h-1.609v.238zm14.266-.465h3.149v-.396h-3.149v.396zm-14.236 4.949h8.496v-.397h-8.496v.397zm0 .465h1.609v-.237h-1.609v.237zm14.263-.465h3.149v-.397h-3.149v.397zm-14.293 2.614h8.497v-.396h-8.497v.396zm0 .465h1.609v-.237h-1.609v.237zm14.266-.465h3.149v-.396h-3.149v.396zm0-4.414h3.149v-.396h-3.149v.396zm-14.266 10.339h8.497v-.397h-8.497v.397zm0-3.149h8.497v-.396h-8.497v.396zm0 .466h1.609v-.239h-1.609v.239zm14.266-.466h3.149v-.396h-3.149v.396zm-14.236 4.949h8.496v-.396h-8.496v.396zm0 .465h1.609v-.237h-1.609v.237zm14.263-.465h3.149v-.396h-3.149v.396zm-14.293 2.614h8.497v-.396h-8.497v.396zm0 .466h1.609v-.238h-1.609v.238zm14.266-.466h3.149v-.396h-3.149v.396zm0-4.414h3.149v-.397h-3.149v.397zm-14.266 10.339h8.497v-.396h-8.497v.396zm0-3.149h8.497v-.396h-8.497v.396zm0 .465h1.609v-.237h-1.609v.237zm14.266-.465h3.149v-.396h-3.149v.396zm-14.236 4.949h8.496v-.396h-8.496v.396zm0 .466h1.609v-.238h-1.609v.238zm14.263-.466h3.149v-.396h-3.149v.396zm-14.293 2.614h8.497v-.396h-8.497v.396zm0 .466h1.609v-.238h-1.609v.238zm14.266-.466h3.149v-.396h-3.149v.396zm0-4.414h3.149v-.396h-3.149v.396zm-14.266 10.074h8.497v-.396h-8.497v.396zm0-3.149h8.497v-.396h-8.497v.396zm0 .465h1.609v-.237h-1.609v.237zm14.266-.465h3.149v-.396h-3.149v.396zm-14.236 4.949h8.496v-.396h-8.496v.396zm0 .465h1.609v-.237h-1.609v.237zm14.263-.465h3.149v-.396h-3.149v.396zm-14.293 2.614h8.497v-.396h-8.497v.396zm0 .466h1.609v-.238h-1.609v.238zm14.266-.466h3.149v-.396h-3.149v.396zm0-4.414h3.149v-.396h-3.149v.396zm-14.266 6.892h8.497v-.396h-8.497v.396zm.03 1.8h8.496v-.396h-8.496v.396zm0 .466h1.609v-.237h-1.609v.237zm14.263-.466h3.149v-.396h-3.149v.396zm-14.293 2.615h8.497v-.396h-8.497v.396zm0 .465h1.609v-.237h-1.609v.237zm14.266-.465h3.149v-.396h-3.149v.396zm0-4.415h3.149v-.396h-3.149v.396z" fill="#C8C5C3"/><path d="M391.881 140.511l-14.693 22.554-9.565 18.267 3.5 7.081 12.723-3.558 8.035-44.344zm17.604 79.65v11.42l-15.227 49.489 3.807 51.392-9.517 1.904-15.228-62.813.583-18.48 7.031-37.691 28.551 4.779z" fill="#8EC3CB"/><path d="M389.799 333.39l-7.266 7.689 2.1 3.898 14.99-7.196-2.761-5.696-7.063 1.305zm23.037 3.512l-8.955 5.629 1.058 4.299 16.313-3.222-1.25-6.206-7.166-.5z" fill="#3B455A"/><path d="M391.833 140.453l22.654-8.987s8.05 19.997 17.203 52.031c9.153 32.035-4.249 72.811-4.249 72.811s-51.9-12.335-62.263-14.369l12.999-58.554 13.656-42.932z" fill="#8EC3CB"/><path d="M397.406 233.683l15.301 104.688h6.955l4.392-57.103 9.518-57.102-36.166 9.517z" fill="#8EC3CB"/><path d="M391.081 109.025c6.168.453 11.936-4.613 18.006-3.355 3.948.818 7.064 4.319 8.269 8.265.561 1.839.76 3.844.211 5.672-.357 1.187-1.015 2.257-1.788 3.208a13.45 13.45 0 0 1-3.708 3.137 24.276 24.276 0 0 0 2.641 3.503l-8.535 3.269-1.885-4.904a12.996 12.996 0 0 1-2.544-.386c-5.05-1.311-9.237-5.734-10.364-10.949-.527-2.444-.426-4.97-.303-7.46z" fill="#E8C5BF"/><path d="M392.639 110.886l19.074-2.266 3.701 14.568 5.386-4.274-2.775-23.839-26.917-.58-11.655 6.838.494 6.851 10.421 7.015 2.271-4.313z" fill="#3B455A"/><path d="M400.042 134.979l22.654-8.986s8.051 19.997 17.204 52.03c9.153 32.034-4.25 72.811-4.25 72.811s-46.425-22.939-56.789-24.973l7.526-47.95 13.655-42.932z" fill="#fff"/><path d="M440.242 178.708c-9.152-32.034-17.079-52.065-17.079-52.065l-22.779 9.021-.037.115c.502 1.309 1.026 2.611 1.481 3.937a91.026 91.026 0 0 1 3.935 16.104c1.432 9.626 1.582 19.522 1.275 29.235a190.693 190.693 0 0 1-2.912 27.799c-2.189 12.133-5.679 23.953-10.177 35.395 21.071 4.282 45.869 9.344 45.869 9.344s9.576-46.851.424-78.885z" fill="#8EC3CB"/><path d="M389.364 183.894c-1.025 4.314-2.121 9.174-1.247 13.368 0 0 2.826 5.904 3.069 5.662.01-.189 3.221-2.841 4.12-4.817 1.534-3.372 1.864-7.581 1.896-11.384.113-13.497-.685-27.102 1.591-40.406 2.656-.808 4.933-2.762 3.3-5.534-5.169 1.96-5.716 13.593-6.844 18.344l-5.885 24.767z" fill="#EBB044"/><path d="M457.031 55.621l-35.88 34.612c-1.091 1.052-2.892.956-4.023-.216l-48.857-50.646c-1.13-1.172-1.162-2.976-.07-4.028L404.08.73c1.091-1.054 2.893-.957 4.024.216l48.856 50.645c1.131 1.173 1.163 2.976.071 4.03z" fill="#C5CACE"/><path d="M456.962 51.592l-40.023-41.488 2.2 80.854a2.651 2.651 0 0 0 2.015-.725l35.879-34.612c1.092-1.053 1.06-2.857-.071-4.03z" fill="#CCD2D9"/><path d="M412.692 52.81l-9.395 9.063c-.585.564-1.55.512-2.156-.115l-9.469-9.816c-.605-.628-.622-1.594-.037-2.158l9.395-9.063c.585-.564 1.55-.513 2.155.114l9.469 9.816c.606.628.623 1.595.038 2.159zm17.323-16.711l-9.395 9.064c-.586.564-1.551.511-2.156-.116l-9.469-9.816c-.606-.627-.623-1.594-.038-2.158l9.395-9.064c.585-.564 1.551-.512 2.156.116l9.469 9.815c.605.629.622 1.595.038 2.159zm-1.846 32.756l-9.395 9.064c-.585.564-1.55.512-2.156-.115l-9.469-9.816c-.605-.628-.623-1.594-.038-2.158l9.396-9.064c.585-.564 1.55-.512 2.155.116l9.469 9.815c.606.628.623 1.595.038 2.158z" fill="#79BA98"/><path d="M445.491 52.146l-9.395 9.062c-.585.565-1.55.513-2.156-.115l-9.468-9.815c-.606-.628-.623-1.594-.038-2.158l9.395-9.064c.585-.563 1.55-.512 2.155.115l9.469 9.816c.606.628.623 1.594.038 2.159z" fill="#D34E4E"/><path d="M402.278 50.304l2.668-2.574a.764.764 0 0 1 .583-.227.825.825 0 0 1 .577.267c.162.168.24.357.234.567a.795.795 0 0 1-.267.562l-2.668 2.574 2.855 2.96c.184.19.281.39.295.599a.683.683 0 0 1-.229.557.695.695 0 0 1-.568.183.911.911 0 0 1-.593-.283l-2.856-2.96-2.653 2.56a.815.815 0 0 1-.575.25.752.752 0 0 1-.561-.252.805.805 0 0 1-.227-.588c0-.235.079-.427.236-.578l2.654-2.56-2.848-2.953c-.183-.189-.279-.391-.288-.606a.707.707 0 0 1 .23-.557.685.685 0 0 1 .564-.21c.21.022.407.127.589.317l2.848 2.952zm15.077-11.932a.4.4 0 0 1-.326.125.564.564 0 0 1-.348-.192l-.806-.836a.454.454 0 0 1-.145-.318.436.436 0 0 1 .148-.31l6.093-5.879a.537.537 0 0 1 .349-.168.424.424 0 0 1 .324.144l.807.838a.502.502 0 0 1 .137.362.472.472 0 0 1-.139.356l-6.094 5.878zm13.216 13.889a.404.404 0 0 1-.327.125.568.568 0 0 1-.348-.19l-.807-.838a.454.454 0 0 1-.144-.318.431.431 0 0 1 .148-.31l6.094-5.878a.525.525 0 0 1 .348-.169.428.428 0 0 1 .324.145l.807.837a.502.502 0 0 1 .137.363.472.472 0 0 1-.139.355l-6.093 5.878zm2.958 3.066a.397.397 0 0 1-.326.125.562.562 0 0 1-.348-.19l-.807-.837a.452.452 0 0 1-.144-.319c0-.112.05-.215.148-.31l6.093-5.878a.526.526 0 0 1 .349-.168.425.425 0 0 1 .324.144l.807.837a.504.504 0 0 1 .137.363.47.47 0 0 1-.139.355l-6.094 5.878zm-18.49 15.436a.397.397 0 0 1-.326.125.56.56 0 0 1-.347-.19l-.808-.837a.452.452 0 0 1-.144-.318.429.429 0 0 1 .148-.31l6.093-5.879a.527.527 0 0 1 .348-.168.422.422 0 0 1 .325.144l.807.837a.504.504 0 0 1 .137.363.471.471 0 0 1-.139.355l-6.094 5.878zm1.223-6.456c.453.47.465 1.191.029 1.613-.437.421-1.158.382-1.611-.087-.453-.469-.465-1.191-.029-1.613.437-.42 1.158-.383 1.611.087zm3.795 3.935c.453.468.465 1.19.028 1.612-.436.422-1.158.383-1.61-.086-.453-.47-.465-1.191-.029-1.613.437-.422 1.158-.383 1.611.087z" fill="#F2F2F2"/><path d="M417.059 10.227l-39.59 38.677-8.983-9.313a2.946 2.946 0 0 1 .075-4.166l35.591-34.334a2.946 2.946 0 0 1 4.166.075l8.741 9.061z" fill="#79BA98"/><path d="M415.677 15.658l-32.332 31.19-7.32-7.589 32.332-31.19 7.32 7.589z" fill="#F2F2F2"/><path d="M421.25 127.4l22.552-13.98-4.193-38.377 9.998-3.87 16.448 43.86-3.225 7.095-30.912 29.831L421.25 127.4z" fill="#8EC3CB"/><path d="M448.178 71.726l1.314-11.171-12.139-5.185-2.257 5.16 5.717 8.4 1.384 5.111 5.981-2.315z" fill="#E8C5BF"/><path d="M379.624 169.859l2.258-26.768h-10.965l-8.386 36.765 5.805 11.287 9.336-4.562 1.952-16.722z" fill="#8EC3CB"/><path d="M372.209 143.091v-9.03l6.773-2.58 6.127 4.837v4.193l-4.515 2.58h-8.385z" fill="#E8C5BF"/><path d="M165.805 123.095l6.772 1.936 28.704 37.088-2.258 13.222-7.418 3.87-25.8-56.116z" fill="#3B455A"/><path d="M175.497 325.123l7.376 5.225 2.459 3.995s-2.766 1.229-4.303 1.537c-1.537.307-13.523-1.537-13.523-1.537v-7.069l7.991-2.151zm-26.739 3.38l3.995 3.996s3.381 5.532 1.845 5.532c-1.537 0-9.836.922-10.451 0-.614-.922-5.224-3.995-5.839-4.61-.615-.615-.33-6.005-.33-6.005l10.78 1.087z" fill="#000"/><path d="M162.894 220.624l-5.225 52.557-8.913 55.323h-10.757l-1.229-57.782s-8.743-47.482-9.665-63.156l35.789 13.058z" fill="#3B455A"/><path d="M187.483 221.546l-9.221 105.728h-11.064l-3.381-54.093-6.352-47.892 24.178-28.331 5.84 24.588z" fill="#3B455A"/><path d="M189.672 173.379c-1.728-6.223-3.095-12.542-4.265-18.893-1.021-5.54-1.423-11.504-3.829-16.67-2.408-5.166-6.954-9.08-10.463-13.472-1.487-1.861-3.074-3.798-5.284-4.685-1.515-.608-3.186-.662-4.818-.709l-14.847-.427c-1.804-.052-3.681-.09-5.326.653-2.464 1.114-3.858 3.703-5.076 6.118-3.111 6.168-3.685 13.01-3.962 19.981.009.066 1.427 18.778-1.792 33.588-3.204 14.739-7.663 40.306-7.42 57.708.045.142.088.286.136.424 2.871-1.883 5.214-4.157 8.284-5.799 3.823-2.046 8.196-3.133 12.486-3.894 6.413-1.172 12.968-1.899 19.502-2.013 5.138-.089 10.299.348 15.414.774 4.256.354 8.216 1.616 12.551 1.315a28.275 28.275 0 0 0 7.583-1.593c.488-20.801-7.261-46.6-8.874-52.406z" fill="#3B455A"/><path d="M149.373 118.892h-3.996v4.609l18.749 39.649 1.536-18.134-6.146-25.51-10.143-.614z" fill="#F7F7F7"/><path d="M165.379 148.335c-.19-1.621-.41-3.068-.66-4.236-1.729-8.066-8.601-18.137-8.601-18.137s-.619-2.288-.907-4.304l-4.918-.308.809 5.023 2.305 1.978s6.99 18.917 7.855 26.694c.09.816.161 1.658.216 2.511l2.646 5.594 1.255-14.815z" fill="#8EC3CB"/><path d="M167.504 178.825l-6.762 46.409 11.986.922h8.3l-9.528-40.263-3.996-7.068z" fill="#F7F7F7"/><path d="M155.955 121.726l-8.263-.36a41.287 41.287 0 0 1 .082-6.588c-2.328-.677-5.034-1.734-5.564-4.099-.167-.745-.08-1.521.009-2.279l1.093-9.406c.125-1.085.262-2.201.795-3.154.935-1.671 2.885-2.489 4.752-2.92 4.762-1.102 10.06-.35 13.963 2.592 1.039.783 1.992 1.742 2.498 2.94.779 1.848.39 3.957-.011 5.922l-1.111 5.443c-.427 2.086-1.076 4.467-3.015 5.348-1.029.468-2.278.418-3.197 1.076-1.621 1.162-1.256 3.647-2.031 5.485z" fill="#E8C5BF"/><path d="M171.216 81.88c-.611-.109-1.235-.237-1.868-.512-1.995-.87-3.393-2.611-5.512-3.426-4.286-1.648-9.661-1.41-13.871.362-4.029 1.694-9.528 2.346-13.133 4.622-1.506.951-2.671 2.372-3.554 3.917-3.062 5.357-2.685 12.488.924 17.492.81 1.123 1.761 2.137 2.754 3.102 2.056 1.994 4.519 4.463 7.23 5.095-.069-2.39-2.66-9.794-.936-11.851 2.287-2.729 6.774-2.66 9.989-2.358 3.832.359 6.987-.872 10.808-.68 1.946.097 4.147.49 5.64-.764 1.724-1.45 5.372-6.052 6.237-8.071.757-1.768.252-3.946-1.064-5.348-1.137-1.21-2.364-1.351-3.644-1.58z" fill="#3B455A"/><path d="M134.008 204.817h56.566V184.07h-56.566v20.747z" fill="#353E51"/><path d="M129.159 182.888c-1.013-.4-1.823-1.074-2.438-1.987a7.436 7.436 0 0 1-.737-1.34 5.077 5.077 0 0 0 2.029 1.292c.495.17.999.266 1.506.299a447.35 447.35 0 0 0-.36 1.736z" fill="#4046A8"/><path d="M131.243 183.275a5.668 5.668 0 0 1-1.961-.34l-.124-.047c.121-.591.242-1.171.361-1.737.135.008.269.013.405.013.818 0 1.639-.155 2.432-.411.297.733.636 1.463 1.019 2.189a7.429 7.429 0 0 1-2.132.333zm58.962-8.002l-.275-.974a29.694 29.694 0 0 0 1.764-4.112 26.843 26.843 0 0 1-1.489 5.086z" fill="#353E51"/><path d="M187.913 179.822l-.653-1.234a32.922 32.922 0 0 0 2.67-4.289l.275.974a30.29 30.29 0 0 1-2.292 4.549z" fill="#353E51"/><path d="M128.257 178.214c-1.016 0-1.486-.457-1.835-1.482a.868.868 0 0 0 .051.001c.871 0 1.72-.475 2.344-1.097.267-.267.475-.6.596-.949.182.032.36.102.531.219.361.246.568.572.653.925-.086.501-.177 1-.272 1.495a2.403 2.403 0 0 1-.345.449c-.049.05-.1.099-.152.147a5.583 5.583 0 0 1-1.358.286 3.951 3.951 0 0 1-.213.006z" fill="#4046A8"/><path d="M130.324 177.326c.096-.495.187-.994.273-1.495.119.492-.001 1.037-.273 1.495z" fill="#353E51"/><path d="M124.402 176.278l-.008-.015a6.002 6.002 0 0 1-.357-.772c.125.128.256.251.392.365a2.616 2.616 0 0 0-.027.422zm.919-2.238a3.964 3.964 0 0 1-.983-2.022.885.885 0 0 1 .298-.035c.478.024.942.476.895.981a4.2 4.2 0 0 0 .004.854 4.972 4.972 0 0 0-.214.222z" fill="#4046A8"/><path d="M192.561 167.04c.191-.917.33-1.834.415-2.749.078-.053.159-.108.24-.165.041 1.023-.083 2.148-.655 2.914zm-17.028-30.863c.103-.423.214-.855.334-1.29l.113.02a24.94 24.94 0 0 0-.447 1.27z" fill="#353E51"/><path d="M163.832 204.035l.403-2.761c1.839-.606 3.803-1.448 4.916-2.523l.427 2.477c-1.214 1.286-3.687 2.216-5.746 2.807zm4.86-8.935l-.412-2.562a48.127 48.127 0 0 0 4.345-1.893l.582 2.46a44.859 44.859 0 0 1-4.515 1.995z" fill="#DEDEDE"/><path d="M124.427 175.856a5.987 5.987 0 0 1-1.346-1.654 5.755 5.755 0 0 1-.687-3.407c.058-.507.468-.931 1.007-.914.493.016.964.465.905.976-.132 1.177.227 2.321 1.014 3.183.178-.198.374-.381.586-.543.774-.598 1.974-1.38 2.919-.755 1.065.704.794 2.09-.01 2.894-.636.634-1.505 1.115-2.395 1.096.372 1.094.883 1.541 2.048 1.476.708-.04 2.366-.44 2.673-1.215.199-.502-.229-1.666-.286-2.225a21.602 21.602 0 0 1 .025-4.68c.358-3.16 1.403-6.23 2.927-9.047 3.443-6.36 9.16-11.36 15.455-14.887.348-.195.698-.385 1.05-.571 4.374-2.315 8.935-3.757 13.453-4.307.43-1.783 1.192-3.484 2.307-4.966 2.489-3.307 6.812-5.331 10.879-4.672-1.638 4.026-2.336 9.219-2.442 10.068a29.738 29.738 0 0 1 13.406 6.657c.083.071.159.139.234.206l5.287-.972s5.175 8.995 5.056 12.299c0 0-3.364 2.938-5.518 4.395-.423 4.565-2.199 9.206-5.119 13.457-.194.282-.393.562-.596.84l3.85 7.277s-5.006 5.079-8.415 5.669l-4.451-4.201a41.863 41.863 0 0 1-4.414 2.695 48.592 48.592 0 0 1-5.549 2.51l.979 6.104c-2.404 2.488-9.42 3.77-9.42 3.77l-3.849-7.274c-9.559.365-18.012-3.496-22.596-12.159a23.94 23.94 0 0 1-1.038-2.226c-1.416.458-2.919.591-4.344.1a5.105 5.105 0 0 1-2.607-2.01c-.582-.856-1.134-1.915-.978-2.987z" fill="#D67086"/><path d="M160.593 144.081l.388 3.139s-9.619 2.134-17.291 9.149l-2.878-.849s5.36-10.107 19.781-11.439z" fill="#F2CDD0"/><path d="M154.745 194.989c-9.013.001-16.912-3.856-21.311-12.071.302.237.615.46.926.685 5.248 3.787 11.76 5.267 18.246 5.268 1.234 0 2.466-.054 3.689-.155 5.667-.47 11.492-1.808 16.759-4.238 7.624-3.519 13.498-9.408 18.616-15.816.226-.282.442-.569.654-.857-.83 3.343-2.354 6.661-4.489 9.771-3.309 4.818-8.086 9.137-14.025 12.279-6.371 3.371-12.973 5.134-19.065 5.134z" fill="#CF6C82"/><path d="M195.094 162.718l.006-.006v.001l-.006.005z" fill="#394357"/><path d="M192.975 164.291c2.56-7.575-4.653-15.566-4.653-15.566 6.008 4.2 6.773 13.928 6.778 13.987l-.007.006-2.118 1.573z" fill="#CF6C82"/><path d="M77.689 24.167c-16.112-5.763-33.844 2.626-39.607 18.737C32.32 59.016 40.708 76.75 56.82 82.512c16.112 5.762 33.844-2.627 39.607-18.738C102.19 47.662 93.8 29.93 77.689 24.167z" fill="#EBB044"/><path d="M67.252 87.12c-3.775 0-7.616-.637-11.374-1.981-17.562-6.282-26.707-25.612-20.425-43.174 4.938-13.804 17.935-22.407 31.8-22.407 3.776 0 7.616.638 11.374 1.982 17.563 6.282 26.707 25.611 20.425 43.173-4.937 13.805-17.935 22.408-31.8 22.408zm.002-64.771c-12.72 0-24.644 7.892-29.173 20.555-5.764 16.112 2.625 33.844 18.737 39.608a30.94 30.94 0 0 0 10.434 1.818c12.72 0 24.644-7.892 29.173-20.556 5.763-16.112-2.626-33.844-18.738-39.607a30.94 30.94 0 0 0-10.433-1.818z" fill="#444AAC"/><path d="M67.254 84.33a30.94 30.94 0 0 1-10.434-1.818c-16.112-5.763-24.5-23.496-18.738-39.608 4.53-12.663 16.454-20.555 29.174-20.555 3.463 0 6.985.585 10.433 1.818 16.112 5.763 24.501 23.495 18.738 39.607-4.53 12.664-16.454 20.556-29.174 20.556zm.002-59.098c-11.535 0-22.352 7.159-26.46 18.643-5.226 14.613 2.382 30.696 16.995 35.922a28.04 28.04 0 0 0 9.463 1.65c11.535 0 22.351-7.16 26.459-18.644C98.94 48.19 91.33 32.108 76.718 26.88a28.035 28.035 0 0 0-9.462-1.65z" fill="#D7A241"/><path d="M56.818 82.512c-16.111-5.764-24.5-23.496-18.737-39.608 5.762-16.11 23.495-24.5 39.606-18.737C93.8 29.93 102.188 47.662 96.425 63.774c-5.763 16.111-23.495 24.5-39.607 18.738zm22.976-64.235c-19.364-6.925-40.676 3.157-47.603 22.52-6.926 19.365 3.157 40.678 22.52 47.604 19.365 6.927 40.677-3.156 47.603-22.52 6.927-19.364-3.156-40.677-22.52-47.604z" fill="#F2D042"/><path d="M107.054 345.03l-7.645-7.061c-2.218-1.123-4.564-1.907-6.465-1.883-1.38.017-2.527.46-3.218 1.509-.664 1.006-.798 2.331-.346 3.404.165.393.4.744.664 1.075l.004.005c.227.284.477.555.724.822.158.169.332.351.517.541 1.582 1.714 4.233 4.507 5.285 5.138 1.544.927 4.94 3.396 8.953.618l-.047-.039c1.459-.988 1.889-2.611 1.574-4.129z" fill="#3B455A"/><path d="M101.054 283.534l-.618 8.861-3.028 43.141 3.028 5.018s.618 4.014-4.013 3.705c-1.377-.092-6.256-6.295-6.256-6.295l.705-2.843-3.433-32.392.032-9.408-1.643-10.446 15.226.659z" fill="#E8C5BF"/><path d="M52.591 334.074c-1.422-.447-2.748-.378-3.81.464-1.02.81-1.606 2.124-1.504 3.379.07.855.431 1.647.789 2.42 1.845 4.002 7.023 13.048 12.964 11.39 2.496-.697 3.442-3.245 2.935-5.496-.764-3.392-6.615-10.659-11.374-12.157z" fill="#3B455A"/><path d="M82.534 278.36l-1.035 12.758-25.047 45.098s3.6 6.289 1.317 6.836c-2.283.546-8.98-1.359-8.994-8.461 2.634-8.602 12.985-37.809 12.985-37.809l4.847-7.537-.071-14.163 15.998 3.278z" fill="#E8C5BF"/><path d="M54.236 235.648c-.197-3.762 1.006-13.575 2.242-17.092 4.505-12.823 5.374-19.142 5.374-29.578 0-10.437-4.63-43.529-4.63-43.529l16.087-9.656 19.284.541 10.709 3.532s2.267 41.633 2.911 55.052c.458 9.576 1.124 17.87 1.999 28.965 0 0 2.454 25.308-1.338 52.437 0 0-.846 9.009-1.226 9.798l-.078.412H62.533v-15.461a602.868 602.868 0 0 1-4.083-14.944c-1.651-6.351-3.847-13.496-4.214-20.477z" fill="#F7F7F7"/><path d="M63.307 138.709l-7.32 5.505s5.567 38.113 5.865 44.764c.297 6.65-8.274 33.227-8.274 33.227l35.502 4.631s5.221-28.383 6.724-42.483c1.502-14.101-19.977-48.474-19.977-48.474l-12.52 2.83z" fill="#D34E4E"/><path d="M98.898 138.04l7.245 3.438s-1.019 42.368.84 53.129c1.132 6.559 5.541 27.801 5.541 27.801l-11.466 3.923s-7.057-26.57-8.46-40.67c-1.402-14.1.126-49.165.126-49.165l6.174 1.544z" fill="#D34E4E"/><path d="M97.49 122.52c.941 3.64-1.218 7.236-3.108 10.306-.772 1.255-1.968 3-.973 4.431 1.116 1.603 3.886 1.282 5.104.083.861-.845 1.284-1.993 1.651-3.112 1.645-5.014 3.941-12.036 3.492-17.306-.36-4.226-5.542-11.73-10.88-9.045-.97.487-1.591 1.403-2.122 2.303-.318.537-.624 1.101-.688 1.715-.252 2.446 2.108 3.076 3.658 4.391 1.912 1.622 3.266 3.909 3.867 6.234z" fill="#3B455A"/><path d="M88.583 135.596c3.566-.453 6.546-2.945 8.141-5.946 1.595-3 1.976-6.453 1.913-9.819-.208-11.202-15.063-11.825-20.839-3.774-5.034 7.016.42 20.856 10.785 19.539z" fill="#E8C5BF"/><path d="M78.443 121.346c-.122 1.356-.813 2.795-1.003 4.188-.35 2.566.224 5.895-.715 8.239-2.605-.357-5.772-1.986-7.703-3.774-1.971-1.825-1.617-4.54-2.057-7.229-.407-2.487-.927-4.987-.785-7.504.778-13.779 14.527-21.313 26.64-15.098 4.584 2.352 6.588 8.328 3.218 12.255-3.626 4.222-10.993 2.392-15.336 5.526-.963.695-1.704 1.944-2.26 3.397z" fill="#3B455A"/><path d="M88.883 134.44l-.542 2.502c-.083.383-.052 1.477-.381 1.739-.172.137-.427.117-.652.089-.644-.079-6.41-.813-6.347-1.18.168-.983.357-1.945.664-2.885.248-.758.342-2.185.8-2.761.98.67 1.991 1.084 3.144 1.411 1.114.315 2.233.613 3.356.891l-.042.194z" fill="#E8C5BF"/><path d="M75.826 135.673l-31.282-6.127 9.998-39.99-9.998-2.58-19.028 39.667 1.612 14.513 34.508 12.255 14.19-17.738z" fill="#D34E4E"/><path d="M45.986 87.347l1.303-10.923 8.545-4.929 2.467 5.883-4.08 6.695v5.482l-8.235-2.208z" fill="#E8C5BF"/><path d="M325.768 126.965l30.314-8.707-4.515-37.088 9.353-2.258 11.61 47.086-6.45 7.418-26.123 9.675-11.449-15.642-2.74-.484z" fill="#CCD2D9"/><path d="M359.936 79.158l1.301-8.243-8.072-3.89-6.751 8.446 6.059 5.53 7.463-1.843zm-51.922 82.557c.016.081-2.242-2.176-2.242-2.176l-.645-5.161 8.304-3.064 1.371 4.032-6.788 6.369z" fill="#AA7159"/><path d="M168.889 178.27l-5.387-3.713-4.205-.114-.225 1.41 2.293 1.309-8.098.601-1.253 3.69 9.102 3.559 8.883-1.286-1.11-5.456z" fill="#E8C5BF"/><path d="M200.959 163.409l-13.546 1.29-20.317 12.255 2.257 7.417 24.51-5.483 5.161-3.547 1.935-11.932zm-54.449-41.322l-26.498-7.377 3.547-39.99-9.03-.967L104.209 116l4.769 9.904 23.611 12.994 9.998-15.802 3.923-1.009z" fill="#3B455A"/><path d="M115.343 73.84l-1.46-6.537 4.838-5.16 7.74 9.03-2.903 3.547-8.215-.88z" fill="#E8C5BF"/></svg>