<svg width="486" height="392" viewBox="0 0 486 392" fill="none" xmlns="http://www.w3.org/2000/svg"><path d="M419.779 392c-2.946 0-5.908-.092-8.904-.316-11.444-.854-23.044-1.281-34.431-2.5-26.133-2.798-52.278-2.963-78.601-2.963-10.455 0-20.91-.078-31.363-.078-15.212 0-30.417.165-45.599.978-23.691 1.268-47.422 1.47-71.156 1.47-3.577 0-7.155-.005-10.733-.011h-.684c-13.142 0-26.233.647-39.355 1.105-13.18.459-25.994 1.213-39.097 1.213-1.181 0-2.367-.006-3.553-.019-13.092-.144-33.027-3.194-42.367-10.97-5.545-4.62-4.794-15.734.76-20.189 2.426-1.946 6.338-3.47 9.533-4.397 9.1-2.641 18.362-2.648 27.872-2.703l.346-.001c6.563 0 13.388 1.058 19.679 2.528 5.721 1.338 11.568 1.806 17.388 2.639 4.762.681 9.857 1.007 14.895 1.007 3.28 0 6.535-.138 9.658-.406 8.451-.726 16.961-1.064 25.435-1.636 10.524-.711 20.823-2.251 31.309-3.077 5.25-.413 10.378-1.438 15.616-1.905 13.892-1.235 27.808-1.503 41.725-1.536 1.13-.002 2.258-.004 3.387-.004 6.625 0 13.25.04 19.871.04 5.386 0 10.766-.013 16.149-.013 18.421 0 36.827.151 55.198 1.487 5.692.415 11.348.164 16.962 1.149 5.635.989 11.325 1.892 17.099 2.068 4.941.151 9.896.201 14.857.201 8.824-.001 17.663-.157 26.457-.183.88-.003 2.105-.007 3.624-.007 19.679 0 88.263.722 83.343 15.36-1.89 5.624-12.879 12.944-19.044 15.3-7.787 2.977-16.302 4.738-24.874 5.331-7.224.501-14.268 1.038-21.402 1.038z" fill="#F6EAEA"/><path d="M340.674 106.482c0-30.576 24.787-55.363 55.364-55.363 30.577 0 55.363 24.787 55.363 55.363s-24.786 55.364-55.363 55.364c-30.577 0-55.364-24.788-55.364-55.364z" fill="#FFB800"/><path d="M226.438 151.229c0-21.435 17.376-38.812 38.812-38.812 21.435 0 38.812 17.377 38.812 38.812s-17.377 38.812-38.812 38.812c-21.436 0-38.812-17.377-38.812-38.812z" fill="#8825CD"/><path d="M88.03 151.229c0-25.947 21.034-46.982 46.981-46.982 25.947 0 46.982 21.035 46.982 46.982s-21.035 46.982-46.982 46.982-46.982-21.035-46.982-46.982z" fill="#FFB800"/><path d="M0 92.27c0-20.553 16.662-37.215 37.215-37.215 20.554 0 37.215 16.662 37.215 37.215 0 20.554-16.661 37.216-37.215 37.216C16.662 129.486 0 112.824 0 92.27zm173.465-43.536C173.465 21.82 195.284 0 222.199 0c26.915 0 48.734 21.82 48.734 48.734 0 26.916-21.819 48.734-48.734 48.734-26.915 0-48.734-21.818-48.734-48.734z" fill="#8825CD"/><path d="M44.032 368.248l-.413 3.211 6.008 4.036 3.624-2.798-2.798-3.623-6.009-4.037-.412 3.211z" fill="#3B3387"/><path d="M43.828 367.17l4.634-40.945-5.575-45.838 1.254-9.75 24.9-.946.899 15.87-4.18 40.727-15.727 42.975-6.205-2.093z" fill="#BABCBE"/><path d="M71.377 224.388l12.524 3.411 21.072 41.385-6.862 6.353-16.242-27.153-10.492-23.996z" fill="#8CABEF"/><path d="M87.311 274.279l.066 41.319-8.317 53.191-5.986-.06-3.29-49.189-7.702-49.233 25.23 3.972z" fill="#BABCBE"/><path d="M73.084 371.254l6.441 3.301 3.27-3.204-3.205-3.269-6.474-.065-.032 3.237z" fill="#3B3387"/><path d="M40.31 288.332c.057-1.791.156-3.285.17-3.819.129-4.803.557-9.596 1.158-14.364.54-4.274 1.22-14.884 1.95-19.131.604-3.507 2.709-12.26 4.229-15.513 3.78-8.089 2.613-8.837 19.222-11.239 7.279-1.052 9 3.485 14.95 8.701.587.514.555 3.578.692 4.39.239 1.428.496 2.854.79 4.273.232 1.117.487 2.228.774 3.333 0 0 4.995 22.735 8.299 27.564 3.304 4.828 10.129 11.579-1.287 15.7-2.024.655-4.06 1.277-6.166 1.61 0 0-9.338-1.038-14.14-1.002-4.422.033-8.863.48-13.211 1.23-2.908.486-5.875 1.192-8.476 2.551-2.481 1.296-4.272 3.203-6.79 4.545-.238.127-.5.259-.77.221-1.447-.201-1.514-5.282-1.395-9.05z" fill="#8CABEF"/><path d="M67.057 226.548c-.838.414-2.816.562-4.88-.246a1.078 1.078 0 0 1-.69-1.01c.016-1.253.117-2.506.301-3.745-1.547-.544-3.335-1.36-3.605-2.978-.085-.51.003-1.032.091-1.541.364-2.104.728-4.209 1.09-6.313.127-.729.26-1.478.657-2.102.694-1.094 2.043-1.573 3.32-1.795 3.26-.566 6.81.14 9.338 2.275.673.568 1.281 1.252 1.578 2.08.457 1.279.115 2.689-.23 4.001l-.955 3.636c-.366 1.394-.894 2.979-2.237 3.501-.713.278-1.555.197-2.2.607-1.14.725-.986 2.417-1.578 3.63z" fill="#CC937A"/><path d="M85.87 205.557a13.72 13.72 0 0 1 1.05-1.509c.836-1.03 1.865-1.914 2.538-3.057.673-1.144.91-2.694.103-3.747-.521-.68-1.366-1.02-2.188-1.262a15.903 15.903 0 0 0-8.362-.154c-2.604.663-4.935 1.761-7.557.781-2.463-.919-4.242-.545-6.816.374-2.786.994-6.526 1.228-9.047 2.632-1.053.586-1.894 1.502-2.549 2.513-2.269 3.505-2.281 8.338-.03 11.853.504.789 1.109 1.51 1.743 2.199 1.315 1.425 2.887 3.186 4.695 3.714.043-1.617-1.43-6.717-.188-8.043 1.971-2.103 6.428-1.369 8.874-.851 2.667.565 5.044 2.454 7.689 2.857 1.903.29 4.332-.643 5.95-1.626 1.996-1.215 2.925-4.756 4.094-6.674z" fill="#292949"/><path d="M53.248 227.375l-10.363 9.081-11.56 24.295 14.6 17.372 2.514-9.714 4.81-41.034z" fill="#8CABEF"/><path d="M281.382 228.548l-4.601-3.11 1.244-2.025 3.622 1.433.144-1.231 3.613 3.141-1.009 2.28-3.013-.488z" fill="#CC937A"/><path d="M326.265 221.8l-18.226 11.807-23.503-8.324-1.77 4.624 25.571 15.977 25.546-9.431-7.618-14.653z" fill="#2F3789"/><path d="M326.642 368.241v2.606l-6.684 3.342-3.343-3.342 3.343-3.342h.431l.107.736h6.146z" fill="#3B3387"/><path d="M326.641 368.241h-6.145l-.107-.736h6.252v.736z" fill="#3B3387"/><path d="M335.937 219.965c7.184.431 14.547 4.198 16.608 11.192.17.577.303 1.166.35 1.765.288 3.593-.81 6.247.227 9.856.901 3.137 1.717 6.319 2.316 9.528.868 4.645 1.669 9.268 2.3 13.878.699 5.107 1.191 10.199 1.334 15.26.016.56.129 2.125.192 3.995.133 3.915.047 9.153-1.601 9.349-.309.036-.607-.1-.878-.232-2.121-1.03-3.792-2.376-5.663-3.551a19.93 19.93 0 0 0-2.074-1.156c-1.473-.702-3.047-1.236-4.661-1.66 2.714.141 3.052-.361 3.052-.361s-2.449-9.835-4.169-18.391c-.886-4.409-1.578-8.479-1.642-10.686-.191-6.638-1.04-28.56-1.04-28.56l-4.12-8.385-.761.007.164-.019c-.077-.716-.044-1.31.066-1.829zm-30.559 70.465c.422-4.347.86-8.693 1.395-13.027 1.066-8.645 2.519-17.27 4.975-25.64.938-3.197 2.021-6.35 3.104-9.502l3.953-11.513c1.638-4.77 4.402-8.13 9.243-9.799a18.195 18.195 0 0 1 2.712-.696c.023.098.044.199.057.304.056.458.187.966.476 1.298l-3.177.031s-8.962 31.325-9.292 36.724c-.125 2.052-.542 6.532-1.005 11.251-.733 7.469-1.584 15.539-1.584 15.539s3.935.093 9.628.517c-.421-.009-.842-.02-1.263-.024-3.96-.036-8.067 1.647-11.858 2.737-.272.079-.543.154-.812.226-1.544.41-2.801 1.535-4.084 2.418-1.895 1.304-2.726 1.82-2.468-.844z" fill="#2F3789"/><path d="M312.741 288.63c3.792-1.09 7.899-2.773 11.859-2.737.42.004.841.015 1.262.024l1.077.083c2.653.21 5.634.49 8.747.862l.459.054c3.981.852 6.565 1.186 8.243 1.273 1.615.424 3.188.958 4.661 1.66a20.05 20.05 0 0 1 2.075 1.156l.021 4.253-7.59 72.247h-6.223v.736h-.036l-6.842-48.461-.028-.273-3.749 48.734h-.035v-.736h-6.254l-7.931-54.268.284-24.607z" fill="#292949"/><path d="M343.555 367.505h.461l3.342 3.342-3.342 3.342-6.684-3.342v-2.606h6.146l.077-.736z" fill="#3B3387"/><path d="M343.555 367.505l-.077.736h-6.146v-.736h6.223z" fill="#3B3387"/><path d="M316.232 285.4s3.936.093 9.629.517l1.076.083c2.654.21 5.635.49 8.747.862l.459.054c3.981.852 6.566 1.186 8.244 1.273 2.714.141 3.052-.361 3.052-.361s-2.449-9.835-4.168-18.391c-.886-4.409-1.579-8.479-1.642-10.686-.192-6.638-1.041-28.56-1.041-28.56l-4.12-8.385-.761.007-3.151.373c-.271.032-.552.063-.812-.022a.988.988 0 0 1-.342-.195l-.111-.114-3.177.031s-8.963 31.325-9.293 36.724c-.125 2.052-.541 6.532-1.005 11.251-.733 7.469-1.584 15.539-1.584 15.539z" fill="#F7F7F7"/><path d="M325.73 210.27c.207-.845-.189-1.706-.377-2.556a2.389 2.389 0 0 1-.044-.661c1.51-.261 3.034-.821 4.143-1.306 2.31-1.008 6.809-2.082 9.207-.891 1.896.941 1.314 3.944 1.218 5.843-.024.488-.062.985.051 1.46.116.489.42.819.61 1.23a5.247 5.247 0 0 1-1.123 2.079c-1.519 1.716-3.065 2.56-3.475 4.497-.11.519-.143 1.113-.066 1.828a8.17 8.17 0 0 1-.164.02l-3.151.373c-.271.032-.552.063-.812-.022a.988.988 0 0 1-.342-.195l-.111-.114c-.289-.332-.42-.84-.476-1.298a2.87 2.87 0 0 0-.057-.304c-.411-1.768-2.363-2.563-3.415-4.132-1.192-1.777-1.817-3.847-2.087-5.956l-.013-.107c.154.084.316.156.484.212z" fill="#CC937A"/><path d="M318.18 200.245c-.068 2.176 1.576 5.712 3.599 6.599.393.172.828.274 1.288.322.426 1.181 1.138 2.323 2.177 2.892.154.084.315.156.484.212.206-.845-.19-1.706-.378-2.556a2.428 2.428 0 0 1-.043-.661c1.51-.261 3.034-.821 4.143-1.306 2.31-1.008 6.809-2.082 9.207-.891 1.896.941 1.314 3.944 1.218 5.843-.024.488-.062.985.051 1.46.116.489.42.819.61 1.23.065.143.118.296.143.47 1.553-.697 2.492-2.448 3.37-3.872.438-.712.848-1.455 1.171-2.264 1.442-3.611.911-8.48-1.304-11.943-.639-1-1.418-1.897-2.334-2.455-2.192-1.338-5.244-1.461-7.607-2.378-3.322-1.289-5.01-.126-8.148.881-1.253.403-2.694.752-3.359 1.94-.367.657-.421 1.466-.791 2.12-.477.843-1.382 1.283-2.167 1.813-.91.614-1.298 1.525-1.33 2.544z" fill="#292949"/><path d="M347.934 224.369l7.595 9.473 6.454 9.516 18.429 14.498-2.087 4.49-22.631-8.66-12.139-15.549 4.379-13.768z" fill="#2F3789"/><path d="M206.009 371.508l-.146 2.934 5.724 3.225 3.079-2.788-2.789-3.08-5.723-3.225-.145 2.934z" fill="#292949"/><path d="M201.182 282.478l-.442 8.911 9.968 39.204-4.959 39.954 5.763 1.453 15.902-48.022.259-14.443-4.028-29.682-22.463 2.625z" fill="#2F3789"/><path d="M244.99 281.553l4.504 37.229-1.775 48.829-5.4.59-8.256-43.974-12.237-43.54 23.164.866z" fill="#2F3789"/><path d="M242.598 370.476l6.16 2.282 2.602-3.239-3.24-2.602-5.841.638.319 2.921z" fill="#292949"/><path d="M247.162 275.349c-5.585-11.319-7.83-23.737-10.768-35.952-.868-3.604-1.769-7.285-3.78-10.399-2.309-3.575-5.494-5.173-9.019-5.783-4.486-.777-9.525.047-14.015.431-2.701 8.493-4.48 3.68-7.654 12.008-.658 1.726-2.508 16.671-3.201 18.383v.001s-7.288 22.971-4.907 41.125c.023.18.044.354.064.531.474.08.928.161 1.353.246 6.33 1.27 12.787 1.949 19.247 1.853 5.73-.086 11.458-.791 17.021-2.178 7.613-1.898 16.66-1.145 22.877-6.177-1.832-3.714-5.386-10.374-7.218-14.089z" fill="#FFB800"/><path d="M250.325 190.373l-.246-6.386-2.733-.014-.8 4.411-1.29-.607.876 5.439 2.84.398 1.353-3.241z" fill="#CC937A"/><path d="M224.205 222.789l16.298-12.344 5.629-17.229 3.795.232 2.023 19.942-17.354 24.747-10.391-15.348z" fill="#FFB800"/><path d="M205.987 208.975c2.279-7.202 12.708-9.84 15.253-1.539.765 2.494 1.241 5.145.778 7.713-.463 2.567-1.995 5.045-4.369 6.127l-.04.018.306 1.989c.022.143.041.3-.037.421-.09.137-.271.176-.433.202l-2.376.387c-.391.064-.8.127-1.181.011-.832-.254-1.19-1.243-1.238-2.112a10.09 10.09 0 0 1-.012-.628c-4.717-1.545-8.14-7.881-6.651-12.589z" fill="#CC937A"/><path d="M220.379 197.138c1.935-.103 3.384 1.9 5.051 3.039 1.388.946 3.028 1.318 4.482 2.131 1.454.814 2.814 2.353 2.68 4.106 1.613-.655 3.357-1.317 5.049-.822 1.691.495 3.096 2.704 2.249 4.335-.759 1.461-2.774 1.63-3.575 3.063-1.266 2.265 1.205 6.205-.868 7.591-.498.333-1.136.365-1.627.71-.611.429-.87 1.24-1.192 1.952-1.454 3.229-5.024 5.089-8.305 4.329-1.974-1.164-3.431-3.32-3.953-5.679-.627-2.843.94-3.666 1.434-6.233.54-2.804-.075-5.888-1.649-8.254-1.024-1.541-2.567-2.931-4.304-3.264-.707-.136-.539.48-1.289-.148-.322-.269-.706-1.209-.763-1.647 2.065-1.361 4.035-5.074 6.58-5.209z" fill="#292949"/><path d="M199.834 198.744c-1.01.181-2.075.04-3.051.362-1.467.484-1.52 1.953-2.039 3.185-.574 1.364-1.395 3.19-2.426 4.196-.742.724-1.72 1.084-2.592 1.615-.871.531-1.704 1.357-1.791 2.455-.082 1.04.528 2.038.532 3.084-.022 1.558-.365 2.324-.038 3.95.169.838.363 1.727.921 2.342.737.809 1.887.903 2.912.831 1.024-.074 2.094-.255 3.057.174 2.088.93 1.478 3.074 1.879 4.957.61 2.865 3.683 4.795 6.245 4.04 2.172-.642 3.614-2.957 3.747-5.364.066-1.206-.306-2.37-.227-3.576.077-1.163.882-2.706-.081-3.726-.234-.248-.551-.397-.757-.675-.167-.224-.243-.51-.282-.793-.133-.979.177-2.004.811-2.684.457-.489 1.074-.819 1.384-1.432.354-.701.209-1.576.237-2.385.068-1.959 1.314-3.767 3.007-4.365 1.116-.394 2.107-.595 3.112-1.26.154-.101 2.457-1.778 2.473-1.367-.028-.716-.382-1.374-.746-1.98-.599-.996-1.276-1.977-2.19-2.626-2.958-2.102-3.506 2.078-5.965 1.289-.594-.191-.997-.79-1.511-1.173-.97-.724-2.257-.62-3.355-.25-1.097.369-2.128.973-3.266 1.176z" fill="#292949"/><path d="M209.58 223.646l-16.24 16.681 7.4 12.209 8.84-28.89z" fill="#FFB800"/><path d="M168 296.238h49.481V240H168v56.238z" fill="#D67086"/><path fill-rule="evenodd" clip-rule="evenodd" d="M206.124 256.75h-22.5a1.874 1.874 0 0 0-1.874 1.875v22.5c-1.875 0-1.875-.839-1.875-1.875v-24.375h24.374a1.874 1.874 0 0 0-1.875-1.875h-22.5a1.874 1.874 0 0 0-1.874 1.875v24.375a3.748 3.748 0 0 0 3.749 3.75h22.5a3.75 3.75 0 0 0 3.751-3.75v-20.625a1.875 1.875 0 0 0-1.876-1.875zm-18.749 5.625h7.5v1.875h-7.5v-1.875zm15 13.125h-15v-1.875h15v1.875zm0-5.625h-15V268h15v1.875z" fill="#fff"/><path d="M66.072 306.106c0-29.043 23.543-52.586 52.585-52.586 29.043 0 52.586 23.543 52.586 52.586 0 29.042-23.543 52.585-52.586 52.585-29.041 0-52.585-23.543-52.585-52.585z" fill="#8825CD"/><path d="M145.002 332.45c-5.179 5.179-11.614 8.643-18.619 10.112a62.576 62.576 0 0 0 5.907-6.586c3.249-4.182 5.839-8.637 7.7-13.241a49.031 49.031 0 0 0 1.273-3.531h12.291a37.147 37.147 0 0 1-8.552 13.246zm-52.69 0a37.14 37.14 0 0 1-8.553-13.246h12.843c.378 1.186.8 2.364 1.273 3.531 1.86 4.604 4.451 9.059 7.7 13.241a62.872 62.872 0 0 0 6.052 6.726c-7.274-1.382-13.965-4.901-19.315-10.252zm-9.338-37.12H95.35a45.36 45.36 0 0 0-.998 9.499c0 3.436.376 6.848 1.123 10.206H82.472a37.513 37.513 0 0 1-1.072-8.929 37.4 37.4 0 0 1 1.574-10.776zm9.338-15.57c5.132-5.132 11.497-8.579 18.428-10.071a53.04 53.04 0 0 0-5.103 5.192c-3.269 3.823-5.876 7.996-7.749 12.406a44.275 44.275 0 0 0-1.433 3.874H84.508a37.22 37.22 0 0 1 7.804-11.401zm52.69 0a37.226 37.226 0 0 1 7.804 11.401H141.41a43.837 43.837 0 0 0-1.434-3.874c-1.872-4.41-4.479-8.583-7.748-12.406a53.245 53.245 0 0 0-4.915-5.026c6.643 1.574 12.74 4.957 17.689 9.905zm-2.486 15.57h11.824a37.389 37.389 0 0 1 1.574 10.776c0 3.048-.365 6.041-1.072 8.929h-12.451a46.99 46.99 0 0 0 1.121-10.206c0-3.235-.336-6.408-.996-9.499zm-21.774 19.705V295.33h17.5a41.038 41.038 0 0 1 1.101 9.499c0 3.438-.414 6.853-1.234 10.206h-17.367zm0 27.005v-22.836h16.126a44.605 44.605 0 0 1-.712 1.892c-1.703 4.234-4.083 8.343-7.075 12.215a57.942 57.942 0 0 1-8.339 8.729zm-4.169-22.836v22.369a58.018 58.018 0 0 1-7.705-8.154c-3.013-3.879-5.411-8-7.128-12.246a46.077 46.077 0 0 1-.744-1.969h15.577zm0-48.887v20.844h-15.719c.258-.726.536-1.447.835-2.159 1.69-4.004 4.051-7.805 7.019-11.297a48.372 48.372 0 0 1 7.865-7.388zm12.487 7.274c2.992 3.498 5.374 7.309 7.079 11.325.314.741.603 1.49.872 2.245h-16.269v-21.252c1.951 1.402 5.132 3.958 8.318 7.682zm-30.538 27.238c0-3.244.37-6.42 1.101-9.499h16.95v19.705H99.756a42.92 42.92 0 0 1-1.234-10.206zm58.305-14.85a41.293 41.293 0 0 0-8.877-13.167 41.286 41.286 0 0 0-13.168-8.877 41.161 41.161 0 0 0-16.125-3.256 41.166 41.166 0 0 0-16.126 3.256 41.294 41.294 0 0 0-13.167 8.877 41.296 41.296 0 0 0-8.877 13.167 41.182 41.182 0 0 0-3.256 16.127 41.31 41.31 0 0 0 12.133 29.293 41.275 41.275 0 0 0 13.167 8.876 41.167 41.167 0 0 0 16.126 3.257 41.162 41.162 0 0 0 16.125-3.257 41.267 41.267 0 0 0 13.168-8.876 41.308 41.308 0 0 0 8.877-13.168 41.166 41.166 0 0 0 3.257-16.125 41.172 41.172 0 0 0-3.257-16.127z" fill="#fff"/><path d="M190.574 239.833l3.686-1.696 4.195 1.02-2.435 3.36h-4.273l-1.173-2.684zm188.862 14.653l1.402 4.926-2.083 5.036-3.72-3.689.826-5.329 3.575-.944z" fill="#CC937A"/><path d="M442.543 364.972c.566-.623 1.226-.963 1.972-.845a2.232 2.232 0 0 1 1.657 1.248c.201.443.244.937.284 1.42.206 2.501.188 8.439-3.144 9.295-1.4.359-2.558-.636-2.932-1.893-.563-1.895.271-7.142 2.163-9.225z" fill="#292949"/><path d="M441.357 327.241l.174 15.255c-.202 6.777.856 13.59.653 20.367-.047 1.558-.453 3.202-.06 4.747.384 1.51 1.611 1.778 2.871 1.013 1.689-1.025 1.416-3.419 1.698-5.165.772-4.799 1.678-9.575 2.485-14.368.395-2.349-.42-5.643-.243-8.02l2.465-12.786-10.043-1.043z" fill="#CC937A"/><path d="M458.788 302.591l-6.639 29.494-1.411 27.853-10.528-.236-2.862-77.909 20.408.37 1.032 20.428z" fill="#474EBB"/><path d="M427.485 364.418c.591-.59 1.264-.892 2.002-.73a2.28 2.28 0 0 1 1.598 1.347c.182.455.204.952.222 1.438.1 2.515-.173 8.457-3.53 9.116-1.411.277-2.523-.787-2.842-2.067-.479-1.929.576-7.131 2.55-9.104z" fill="#292949"/><path d="M433.033 329.383l-.894 15.23c-.073 4.233-.637 8.433-1.075 12.637-.407 3.905.227 7.973-1.815 11.524-.639 1.114-1.933 1.856-2.836.502-.698-1.043-.284-2.782-.418-3.965-.545-4.829-1.225-9.642-1.804-14.468-.285-2.365.685-5.616.62-8l-1.86-12.886 10.082-.574z" fill="#CC937A"/><path d="M419.71 300.788l-.856 28.63 4.493 28.952 10.709.321-.472-31.334 5.666-25.984 1.903-17.009-16.993-2.005-4.45 18.429z" fill="#474EBB"/><path d="M433.153 223.766l18.308-.437 10.614 19.74-3.772 18.491-.672 22.127-26.115.356-8.592-1.395 2.281-23.643-1.195-28.849 9.143-6.39z" fill="#D67086"/><path d="M452.068 224.69l14.861 22.635-2.234 12.61-23.017 15.944-4.33-3.786 15.387-19.452-.597-12.293-.07-15.658zm-17.806 11.856l-16.714 13.228-10.179-2.505-18.467-20.986 6.127-2.668 19.35 13.771 15.845-11.896 4.038 11.056z" fill="#D67086"/><path d="M446.045 223.661l-5.679 8.027-2.67-.219-4.45-8.14 12.799.332z" fill="#F7F7F7"/><path d="M441.545 273.055l.099 3.088-5.45 1.984-3.141-2.38-.002-3.595 3.032-.169.096-.79.993-.639 4.373 2.501zm-2.21-65.508c-1.188-1.047-2.545-1.238-4.059-1.249-.716-.005-.955.18-1.324.115-.166-.03-.358-.109-.631-.279-.542-.337-1.026-1.22-1.279-1.94-1.405.888-2.426 2.492-2.707 4.934-.307 2.656-.302 5.457.608 8.114.91 2.657 2.853 5.155 5.372 6.141.147.057.293.108.438.155 1.079.352 2.104.425 3.056.273l3.176-1.514c.158-.135.311-.276.46-.424 1.044-4.52-.088-11.661-3.11-14.326z" fill="#CC937A"/><path d="M439.269 204.377zm21.49 48.084c-.343-.312-.693-.625-1.044-.94a143.873 143.873 0 0 1 1.371 3.655 143.873 143.873 0 0 0-1.371-3.655c-2.536-2.279-5.134-4.687-5.831-7.969-.334-1.576-.184-3.145.15-4.715.539-2.523 1.558-5.05 1.824-7.627.456-4.412.096-10.756-.981-15.073-1.152-4.615-3.664-8.792-6.677-12.429-3.654-4.413-10.449-9.353-15.261-3.575a5.142 5.142 0 0 0-.161.204 9.022 9.022 0 0 0-1.635-.629c-3.324 2.801-4.179 7.307-3.831 11.45.35 4.149 2.444 8.851 1.262 12.968-.113.393-.26.787-.257 1.196.004.409.2.852.581 1 .232.09.491.06.738.028 2.034-.263 4.248-.616 5.627-2.133.206-.226.364-.452.49-.679a7.634 7.634 0 0 1-.438-.155c-2.52-.986-4.462-3.484-5.372-6.141-.91-2.657-.915-5.458-.609-8.114.282-2.442 1.303-4.046 2.707-4.934.254.72.738 1.603 1.28 1.94.272.17.465.249.63.279.369.065.609-.12 1.325-.115 1.513.011 2.871.202 4.059 1.249 3.022 2.665 4.153 9.806 3.11 14.326 2.849-2.843 3.991-8.122 2.116-12.068 1.875 3.946.733 9.225-2.116 12.068-.019.077-.037.155-.057.231a8.979 8.979 0 0 1-.473 1.414 6.429 6.429 0 0 1-.245.499c-.928 1.692-2.364 3.281-2.328 5.211.007.358.067.708.156 1.054.162.628.423 1.239.655 1.848 2.47 6.47-.245 13.775-4.263 19.242-2.058 2.801-4.775 5.228-5.948 8.5a7.223 7.223 0 0 0-.384 1.772c-.273 2.947 1.115 6.158 3.954 6.638.667.113 1.378.069 1.992.355 2.097.974 1.191 4.413 2.744 6.128 1.002 1.108 2.699 1.147 4.192 1.104.489-.014 1.006-.036 1.415-.304.873-.569.789-1.837 1.046-2.847.466-1.829 2.293-3.03 4.137-3.434 1.844-.404 3.758-.19 5.646-.187 2.359.004 4.77-.346 6.85-1.458a9.014 9.014 0 0 0 2.22-1.674c.999-1.036 1.727-2.313 1.968-3.724.642-3.766-2.138-7.209-4.963-9.78z" fill="#292949"/><path d="M404.747 262.39c.538 0 1.058.218 1.463.614l16.741 16.332 10.095-10.346-16.775-16.364c-.423-.414-.655-1.041-.62-1.679.032-.58.28-1.079.7-1.407l11.758-9.184-56.149-20.858 22.239 55.612 8.723-11.754c.449-.604 1.131-.966 1.825-.966zm18.256 22.077c-.566 0-1.12-.224-1.519-.613l-16.526-16.121-9.535 12.846c-.445.599-1.094.944-1.781.944-.893 0-1.67-.556-2.028-1.452l-25.427-63.584c-.333-.834-.115-1.692.556-2.216.361-.388.842-.6 1.367-.6.245 0 .496.047.744.139l64.197 23.847a2.389 2.389 0 0 1 1.486 1.828 1.84 1.84 0 0 1-.705 1.777l-12.833 10.025 16.561 16.155c.816.798.818 2.176.003 3.012l-13.069 13.394a2.06 2.06 0 0 1-1.491.619z" fill="#fff"/><path d="M436.97 269.873l-13.069 13.395a1.242 1.242 0 0 1-.897.368c-.342 0-.686-.129-.939-.376l-16.037-15.644-1.17-1.142-10.101 13.61c-.306.413-.715.608-1.114.608-.516 0-1.017-.326-1.258-.93l-8.643-21.614-13.658-34.155-3.125-7.815c-.231-.576-.028-1.029.35-1.293.194-.231.467-.384.802-.384.141 0 .294.028.455.088l21.823 8.105 34.483 12.81 7.89 2.93c.809.301 1.402 1.516.56 2.174l-13.582 10.61 14.996 14.629 2.245 2.19c.508.496.473 1.34-.011 1.836zm1.171-3.025l-2.246-2.19-7.475-7.293-6.16-6.009 12.084-9.44a2.687 2.687 0 0 0 1.015-2.558c-.171-1.099-.982-2.095-2.018-2.481l-3.945-1.465-3.945-1.465-17.949-6.667-16.535-6.143-10.911-4.052-10.912-4.053a2.961 2.961 0 0 0-1.033-.192c-.738 0-1.415.288-1.929.816-.931.76-1.233 1.968-.765 3.139l1.694 4.239 1.43 3.576 9.757 24.398 3.902 9.757 4.322 10.807 4.322 10.807c.479 1.199 1.578 1.974 2.799 1.974.953 0 1.845-.466 2.448-1.279l6.616-8.914 2.352-3.17 15.846 15.458c.553.54 1.318.849 2.099.849.798 0 1.539-.308 2.086-.869l5.503-5.64 7.565-7.755a2.998 2.998 0 0 0 .85-2.049 2.924 2.924 0 0 0-.867-2.136z" fill="#fff"/><path d="M431.872 269.004l-8.934 9.157-.111-.108-16.037-15.644a2.921 2.921 0 0 0-2.042-.849c-.956 0-1.887.486-2.492 1.301l-5.707 7.689-2.131 2.872-1.107-2.769-7.846-19.622-5.812-14.533-3.808-9.523-2.418-6.045 1.745.647 34.483 12.809 16.772 6.23-.374.291-10.213 7.978c-.602.471-.973 1.206-1.017 2.017-.048.873.276 1.74.869 2.317l2.245 2.191 4.646 4.533 9.289 9.061zm-15.021-16.973c-.458-.448-.537-1.408.012-1.837l12.929-10.1-19.558-7.265-34.484-12.809-5.256-1.952 7.616 19.047a1214611.385 1214611.385 0 0 0 15.87 39.684l9.609-12.948c.293-.394.723-.63 1.159-.63.306 0 .616.116.883.377l16.036 15.644 1.3 1.268 11.254-11.535-15.124-14.754-2.246-2.19z" fill="#fff"/><path d="M417.775 251.117l14.635-11.431-64.197-23.847 25.427 63.584 11.067-14.911 18.282 17.834 6.533-6.697 6.535-6.698-18.282-17.834z" fill="#474EBB"/><path d="M438.474 104.122c-3.6-8.408-12.368-13.15-20.982-11.66l-.048.003c-2.676.718-5.03 2.416-6.281 5.36-.275.647-1.237.254-.96-.397 1.341-3.156 3.791-5.039 6.608-5.896-1.883-10.174-10.094-18.117-20.024-18.396-9.773-.275-18.489 6.706-21.442 16.543.792.293 1.561.664 2.295 1.122 2.921 1.824 5.036 4.654 6.408 7.92.271.646-.678 1.1-.948.457a17.687 17.687 0 0 0-1.644-3.057c-2.393-3.546-6.105-5.903-10.259-6.15-4.196-.25-8.951 1.64-12.111 4.584-3.621 3.375-5.899 8.218-6.015 13.332-.113 5.019 1.82 9.918 5.27 13.312 3.198 3.148 7.131 4.844 11.436 5.483 2.822.419 5.655.766 8.487 1.111 8.095.987 16.2 1.89 24.306 2.782 3.562.392 7.122.78 10.685 1.164 2.926.316 5.978.895 8.925.613 9.635-.921 17.759-9.35 17.934-19.813.05-2.902-.515-5.79-1.64-8.417z" fill="#fff"/><path d="M68.826 280.784l5.865-1.752-.64-2.54-4.282.311.254-1.341-4.835 2.11.308 2.73 3.33.482z" fill="#CC937A"/><path d="M151.261 160.504a10.78 10.78 0 0 0-6.797 5.652l-18.21-5.591a12.77 12.77 0 0 0-2.636-9.409l13.346-13.731a10.651 10.651 0 0 0 3.971 1.509c5.805.959 11.305-2.961 12.259-8.74.956-5.778-2.991-11.26-8.796-12.219-5.805-.96-11.305 2.961-12.259 8.74a10.542 10.542 0 0 0 1.229 6.925l-13.738 14.132a12.882 12.882 0 0 0-4.072-1.399c-7.006-1.158-13.643 3.574-14.796 10.548-1.153 6.975 3.61 13.591 10.617 14.749a12.9 12.9 0 0 0 13.122-6.02l18.814 5.776a8.843 8.843 0 0 0 1.251 4.461c2.303 4.458 7.487 6.844 12.51 5.442 5.75-1.606 9.111-7.569 7.505-13.32-1.605-5.751-7.568-9.111-13.32-7.505zm109.793 9.273a5.125 5.125 0 1 1 10.241-.449 5.126 5.126 0 0 1-10.241.449z" fill="#fff"/><path d="M265.45 153.065a17.116 17.116 0 0 0-14.528 9.344l4.967 4.267c.042-.087.081-.177.117-.27a10.856 10.856 0 0 1 9.719-7.074 10.855 10.855 0 0 1 10.301 6.196c.04.082.083.161.128.239l4.574-4.686a17.115 17.115 0 0 0-15.278-8.016z" fill="#fff"/><path d="M264.956 141.801a28.33 28.33 0 0 0-22.733 13.135l4.816 4.138.051-.081c3.826-6.511 10.607-10.596 18.141-10.926a22.14 22.14 0 0 1 18.778 8.952c.1.134.21.255.326.369l4.402-4.51a28.4 28.4 0 0 0-23.781-11.077z" fill="#fff"/><path d="M264.475 130.841c-12.238.537-23.642 6.842-30.633 16.896l4.78 4.107.09-.124c5.851-8.692 15.585-14.154 26.037-14.613 10.453-.459 20.628 4.13 27.218 12.275l.087.097 4.401-4.508c-7.845-9.392-19.751-14.667-31.98-14.13zM228.08 16.532l5.029 20.285c.083.334.324.605.645.726l19.519 7.323c.808.303.918 1.405.185 1.864L235.77 57.822a1.046 1.046 0 0 0-.489.84l-.938 20.89c-.039.866-1.05 1.313-1.712.756l-15.961-13.43a1.038 1.038 0 0 0-.947-.207l-20.098 5.588c-.833.232-1.567-.595-1.244-1.398l7.825-19.392a1.05 1.05 0 0 0-.096-.968l-11.484-17.436c-.476-.723.082-1.68.943-1.62l20.797 1.446a1.04 1.04 0 0 0 .888-.393l13.001-16.364a1.04 1.04 0 0 1 1.825.398zm-34.518 57.901l.004.002-.004-.002zM43.285 72.228c-4.123.698-8.646 4.184-8.966 7.996-2.105-3.193-8.85-3.766-12.803-2.4-10.43 3.602-10.96 16.596-4.373 23.56 3.545 3.749 8.014 6.677 12.7 9.134 3.925 2.057 13.713 6.047 13.732 6.02.031.014 6.712-8.181 9.172-11.869 2.938-4.404 5.46-9.117 6.777-14.107 2.449-9.272-5.359-20.173-16.24-18.334z" fill="#fff"/></svg>