<svg width="22" height="31" viewBox="0 0 22 31" fill="none" xmlns="http://www.w3.org/2000/svg"><path fill-rule="evenodd" clip-rule="evenodd" d="M14.4 28.384a2.33 2.33 0 1 1-4.66 0 2.33 2.33 0 0 1 4.66 0zm6.992-16.314a9.322 9.322 0 0 0-18.644 0 2.33 2.33 0 0 0 4.661 0 4.661 4.661 0 1 1 4.661 4.661 2.33 2.33 0 0 0-2.33 2.33v2.331a2.33 2.33 0 0 0 4.66 0v-.33c4.013-1.04 6.992-4.654 6.992-8.992z" fill="#8825CD"/><path fill-rule="evenodd" clip-rule="evenodd" d="M12.653 26.636a2.33 2.33 0 1 1-4.66 0 2.33 2.33 0 0 1 4.66 0zm6.991-16.314a9.322 9.322 0 0 0-18.644 0 2.33 2.33 0 0 0 4.661 0 4.661 4.661 0 1 1 4.661 4.661 2.33 2.33 0 0 0-2.33 2.33v2.331a2.33 2.33 0 0 0 4.66 0v-.33c4.013-1.04 6.992-4.654 6.992-8.992z" stroke="#FECE30" stroke-width="1.639"/></svg>