<svg width="323" height="377" viewBox="0 0 323 377" fill="none" xmlns="http://www.w3.org/2000/svg"><path fill-rule="evenodd" clip-rule="evenodd" d="M321.711 104.728c0 105.916-40.068 270.202-159.952 270.202S-29.314 275.906 11.636 190.157c40.14-76.795 84.375-50.656 127.605-80.816 38.706-59.818 182.47-110.53 182.47-4.613z" fill="url(#paint0_linear)"/><mask id="mask0" maskUnits="userSpaceOnUse" x="0" y="51" width="323" height="326"><path fill-rule="evenodd" clip-rule="evenodd" d="M322.207 106.098c0 105.916-40.068 270.203-159.952 270.203S-28.818 277.276 12.132 191.527c40.95-85.748 208.106-37.455 184.758-76.96C173.543 75.061 322.207.181 322.207 106.098z" fill="#fff"/></mask><mask id="mask1" maskUnits="userSpaceOnUse" x="0" y="0" width="323" height="376"><path fill-rule="evenodd" clip-rule="evenodd" d="M322.207 106.116c0 105.791-40.068 269.882-159.952 269.882S-28.818 277.091 12.132 191.444c40.95-85.646-47.039-206.657 54.78-189.868C168.728 18.365 322.206.325 322.206 106.116z" fill="#fff"/></mask><g mask="url(#mask1)"><path d="M53.145 388.413s16.542 7.25 38.172 11.366c12.378 2.359 26.412 3.698 39.972 2.051 12.396-1.492 24.351.547 34.308-7.4 0 0 .267-14.713.63-29.08l.013-.564c.036-1.381.073-2.816.116-4.308 1.005-39.902 2.878-114.911 4.165-173.932.302-13.85-10.868-25.234-24.743-25.234h-67.16c-13.75 0-24.864 11.187-24.739 24.907.763 86.35-.734 202.194-.734 202.194z" fill="#FFCD4D"/><path d="M87.082 272.311a1720.308 1720.308 0 0 0 .138 19.382c.054 4.417.127 8.811.214 13.159.044 2.095.086 4.185.135 6.253.099 4.456.214 8.848.345 13.173.061 2.1.123 4.188.192 6.254.14 4.495.295 8.902.46 13.195.081 2.115.162 4.195.249 6.253.177 4.56.369 8.971.559 13.203.1 2.132.199 4.22.297 6.254.227 4.675.456 9.094.67 13.21.118 2.174.234 4.262.345 6.258.224 4.011.438 7.652.635 10.874 12.378 2.359 26.412 3.698 39.972 2.051-.684-3.789-1.275-7.917-1.787-12.327a261.132 261.132 0 0 1-.646-6.174 383.94 383.94 0 0 1-.986-13.023 428.282 428.282 0 0 1-.332-6.192 566.162 566.162 0 0 1-.47-13.06 809.021 809.021 0 0 1-.258-19.279c-.006-2.056-.006-4.134.006-6.216.013-4.319.055-8.681.123-13.08a1288.772 1288.772 0 0 1 .439-19.314c.061-2.075.122-4.153.19-6.228.148-4.375.308-8.743.494-13.093.078-2.082.165-4.158.257-6.228.197-4.405.407-8.787.629-13.11.105-2.09.21-4.158.32-6.223.241-4.447.487-8.829.746-13.122a2567.708 2567.708 0 0 1 1.219-19.35c.143-2.115.284-4.198.432-6.236.314-4.572.629-8.959.943-13.13.159-2.137.313-4.219.467-6.241.364-4.736.715-9.136 1.042-13.134.184-2.205.357-4.288.518-6.24.313-3.659.591-6.857.826-9.518h-41.55a229.384 229.384 0 0 0-1.422 8.678 283.57 283.57 0 0 0-.845 6.118 447.634 447.634 0 0 0-1.43 12.939 720.3 720.3 0 0 0-.542 6.16 701.86 701.86 0 0 0-.93 13.006 666.653 666.653 0 0 0-.345 6.192 840.729 840.729 0 0 0-.586 13.035c-.074 2.059-.14 4.136-.202 6.217-.135 4.32-.241 8.688-.322 13.08-.035 2.07-.067 4.14-.091 6.223-.062 4.355-.091 8.73-.106 13.11-.005 2.078-.012 4.158-.012 6.241z" fill="#FFCD4D"/><path d="M226.597 208.824h.001l18.656-79.886s0 0 0 0a2.503 2.503 0 0 1 3.006-1.87h0l51.403 12.004a2.508 2.508 0 0 1 1.871 3.008v.001l-18.656 79.886a2.51 2.51 0 0 1-3.009 1.87h-.001l-51.405-12.006a2.502 2.502 0 0 1-1.866-3.007z" fill="#FEF9E6" stroke="#1D0083" stroke-width="20"/><path fill="#913DCA" d="M278.035 198.347l-38.079-9.342-.31 1.264 38.079 9.342zm1.637-5.027l-38.079-9.342-.31 1.264 38.079 9.342zm-3.016 10.028l-38.079-9.342-.31 1.264 38.079 9.342z"/><path d="M159.644 230.757s20.123 55.798 38.395 85.759c17.86 29.287 30.731 16.808 36.515 3.555 4.85-11.11 16.093-65.535 19.611-82.889.677-3.358 1.071-5.33 1.071-5.33 10.825.82 35.561 2.871 37.206-11.625 1.644-14.495 9.094-18.23 10.332-25.677 1.232-7.457-8.293-12.002-12.852-12.002-4.553.005-9.925 8.706-13.646 21.544-3.715 12.839 2.914 14.077 2.914 14.077s-1.017 1.706-4.325 3.777c-3.314 2.075-18.685-1.583-18.685-1.583-8.694-1.65-19.887-4.54-19.887-4.54l-2.872 9.715-15.464 52.307c-19.517-45.513-39.897-95.951-53.531-108.081l-4.782 60.993z" fill="#EACDB0"/><path d="M159.643 230.896s20.122 55.798 38.395 85.759c17.86 29.287 30.73 16.808 36.515 3.555 4.849-11.11 16.092-65.535 19.611-82.889-10.622-2.804-17.51-8.441-20.744-11.644l-15.464 52.307c-19.517-45.512-39.898-95.951-53.531-108.081l-4.782 60.993z" fill="#FFCD4D"/><path d="M171.304 195.755l.001-.001 18.656-79.885s0 0 0 0a2.504 2.504 0 0 1 3.006-1.871h0l51.403 12.004a2.51 2.51 0 0 1 1.871 3.009v.001l-18.656 79.885a2.51 2.51 0 0 1-3.009 1.871l-.001-.001-51.405-12.006a2.501 2.501 0 0 1-1.866-3.006z" fill="#FEF9E6" stroke="#1D0083" stroke-width="20"/><path d="M199.309 162.366c-.04-1.693.15-3.458.562-5.246l-5.006-1.271a13.529 13.529 0 0 0-.169 5.346l4.613 1.171zm2.681 8.793a15.275 15.275 0 0 1-1.267-2.298c-.719-1.616-1.17-3.379-1.342-5.242l-4.398-1.116a13.651 13.651 0 0 0 7.007 8.656zm2.275.91l1.718-6.773-5.362-1.363c.182 1.56.579 3.037 1.178 4.398.934 2.119 2.092 3.37 2.466 3.738zm3.298-12.997l-6.529-1.657c-.415 1.799-.588 3.568-.516 5.258l5.76 1.462 1.285-5.063zm1.578-6.222l-5.519-1.402a17.144 17.144 0 0 0-2.288 4.809l6.522 1.656 1.285-5.063zm1.858-7.32c-.173-.035-.35-.068-.526-.098-.878.428-3.676 1.953-6.082 4.977l5.045 1.28 1.563-6.159zm-12.194 3.462l4.315 1.095a19.666 19.666 0 0 1 2.849-3.056 20.267 20.267 0 0 1 2.398-1.787 13.763 13.763 0 0 0-9.562 3.748zm-3.619 5.705l4.986 1.265a18.333 18.333 0 0 1 2.218-4.825l-4.541-1.154a13.589 13.589 0 0 0-2.663 4.714zm15.41-2.713l4.916 1.247a18.441 18.441 0 0 0-.892-3.268c-.769-2.058-1.703-3.472-2.097-4.022l-.363-.116-1.564 6.159zm-1.578 6.222l6.387 1.621c.369-1.742.464-3.527.284-5.316l-5.388-1.368-1.283 5.063zm-1.58 6.223l5.627 1.428c.866-1.447 1.557-3.081 2.054-4.867l-6.396-1.623-1.285 5.062zm-1.993 7.855c1.019-.329 4.266-1.611 6.926-5.368l-5.228-1.327-1.698 6.695zm12.702-3.903l-4.536-1.151a16.615 16.615 0 0 1-3.679 3.968 15.217 15.217 0 0 1-2.26 1.443c3.901.149 7.762-1.416 10.475-4.26zm3.274-5.792l-5.142-1.306a21.016 21.016 0 0 1-2.007 4.881l4.751 1.205a13.59 13.59 0 0 0 2.398-4.78zm.174-6.578l-4.674-1.187c.137 1.783.02 3.563-.354 5.3l5.123 1.299a13.568 13.568 0 0 0-.095-5.412zm-7.147-9.265c.489.869.92 1.796 1.283 2.764a19.436 19.436 0 0 1 1.046 4.043l4.451 1.129a13.76 13.76 0 0 0-6.78-7.936zm-2.725-2.278l.155.036c7.964 2.021 12.799 10.144 10.778 18.108-2.021 7.964-10.144 12.803-18.109 10.781l-.153-.042c-7.872-2.085-12.634-10.159-10.626-18.07 2.008-7.911 10.043-12.736 17.955-10.813z" fill="#913DCA"/><path d="M64.596 165.665s-35.56 28.508-54.043 74.523C-7.928 286.203-19.635 373.07-19.635 373.07l21.564 3.189s6.16-33.977 8.624-40.144c2.464-6.169 20.333-42.669 19.1-62.925l29.785-40.727s29.011-42.561 5.158-66.798z" fill="#FFCD4D"/><path d="M1.927 376.259s6.775 7.902 8.931 16.836c2.157 8.932-8.931 9.464-8.931 9.464s2.617 12.947-3.235 17.568c-5.852 4.618-25.503 1.987-28.186-4.035-8.316-18.664 9.857-43.021 9.857-43.021s15.094-1.633 21.564 3.188z" fill="#EACDB0"/><path d="M276.105 180.765l.752-2.996a6.176 6.176 0 0 0-4.487-7.495l-11.984-3.009a6.179 6.179 0 0 0-7.496 4.488l-.752 2.996" stroke="#913DCA" stroke-width="2" stroke-linecap="round" stroke-linejoin="round"/><path fill-rule="evenodd" clip-rule="evenodd" d="M267.886 162.778a6.179 6.179 0 0 0 3.008-11.984 6.179 6.179 0 0 0-3.008 11.984z" fill="#913DCA" stroke="#913DCA" stroke-width="2" stroke-linecap="round" stroke-linejoin="round"/><path d="M97.178 163.924L127.899 165a189.402 189.402 0 0 0 1.049-27.156c8.771-2.065 19.02-5.584 21.473-15.158.771-3.017.607-6.238.436-9.388l-2.125-39.068c-.246-4.502-.522-9.142-2.304-13.23-3.126-7.173-10.189-11.139-17.025-13.493-17.438-6.008-37.24-4.553-52.318 6.359-4.015 2.904-7.747 6.553-9.867 11.333-3.267 7.371-2.256 16.172-1.171 24.389 1 7.583 2.002 15.168 3.004 22.753 1.15 8.723 3.073 18.728 10.083 22.955 3.722 2.245 8.365 2.422 11.637 5.418 5.773 5.284 3.91 15.405 6.407 23.21z" fill="#F9CBB7"/><path d="M122.469 128.562c-4.451 3.418-9.559 3.89-14.835 2.626-2.241-.537-1.537-4.309.708-3.771 4.372 1.047 8.419.773 12.125-2.071 1.863-1.432 3.856 1.795 2.002 3.216zm31.137-20.239c-.296-2.406-1.782-9.42-5.115-4.76-.872 1.219-1.002 2.876-.963 4.428.037 1.551.207 3.14-.188 4.627-.906 3.411-4.49 5.151-7.773 5.286-1.305.054-2.647-.083-3.841-.676-1.159-.576-2.11-1.542-3.038-2.491l-6.763-6.916c-3.875-3.962-10.936-1.733-15.77-.807-5.569 1.071-11.082 3.108-15.439 7.095-.44.403-.868.824-1.298 1.245-1.046 1.024-2.099 2.041-3.346 2.748-4.205 2.38-9.713.48-13-3.316-1.507-1.74-2.95-4.007-5.134-4.184-1.707-.14-3.28 1.179-4.049 2.823-.77 1.646-.886 3.562-.889 5.416-.01 6.752 1.342 13.633 4.608 19.427 7.084 12.566 19.328 13.437 31.515 12.426 4.818-.398 9.636-.798 14.453-1.198 8.81-.729 18.111-1.648 25.221-7.246 6.272-4.939 9.69-12.909 10.783-21.109.565-4.233.546-8.566.026-12.818zm-2.562-71.537a71.873 71.873 0 0 0 1.276-9.853 18.31 18.31 0 0 1-9.225 1.376l-.367-5.689c-.109-1.576-20.925-1.429-22.622-1.47-15.865-.38-30.377-.775-44.122 8.796C64.242 38.125 57.1 49.71 56.106 64.286 55.159 78.215 60.65 95.999 69.118 107c-.268-3.677-2.853-12.231-2.222-15.778.305-3.537 1.276-6.986 2.712-10.203 2.865-6.422 7.57-11.968 13.146-16.057 8.891-6.522 19.455-10.324 30.106-12.51 9.757-2.004 21.673-4.028 31.561-1.933 4.751 1.008 5.6 2.166 8.138-2.857.446-.886 3.798-11.112 3.41-11.096-1.641.074-3.282.148-4.925.22z" fill="#3B455A"/></g><defs><linearGradient id="paint0_linear" x1="404" y1="105.902" x2="111.445" y2="204.928" gradientUnits="userSpaceOnUse"><stop stop-color="#8825CD"/><stop offset="1" stop-color="#A165C4"/></linearGradient></defs></svg>