<svg width="489" height="308" viewBox="0 0 489 308" fill="none" xmlns="http://www.w3.org/2000/svg"><path d="M420.981 308c-3.028 0-6.071-.126-9.15-.435-11.76-1.179-23.682-1.769-35.384-3.451-26.856-3.864-53.725-4.092-80.776-4.092-10.74 0-21.478-.108-32.215-.108-15.638 0-31.27.229-46.877 1.351-24.335 1.75-48.711 2.029-73.09 2.029-3.688 0-7.377-.006-11.065-.014l-.709-.001c-13.504 0-26.955.894-40.439 1.525-13.544.634-26.714 1.676-40.179 1.676-1.214 0-2.432-.009-3.651-.027-13.455-.198-33.94-4.41-43.54-15.144-5.698-6.377-4.926-21.72.782-27.87 2.493-2.686 6.512-4.789 9.795-6.069 9.354-3.647 18.871-3.655 28.645-3.732l.359-.001c6.744 0 13.756 1.461 20.22 3.49 5.88 1.846 11.888 2.493 17.869 3.642 4.894.941 10.13 1.391 15.31 1.391 3.369 0 6.714-.191 9.923-.561 8.684-1.002 17.43-1.469 26.139-2.258 10.815-.982 21.398-3.108 32.175-4.248 5.396-.571 10.665-1.986 16.048-2.629 14.277-1.706 28.579-2.076 42.88-2.122 1.161-.003 2.322-.004 3.483-.004 6.807 0 13.614.054 20.418.054 5.538 0 11.074-.018 16.608-.018 18.928 0 37.837.209 56.713 2.054 5.851.571 11.663.226 17.432 1.586 5.792 1.365 11.639 2.611 17.573 2.855 5.078.208 10.169.277 15.268.277 9.067 0 18.152-.218 27.189-.253.905-.004 2.168-.009 3.731-.009 20.229 0 90.699.998 85.643 21.203-1.943 7.764-13.236 17.869-19.571 21.122-8.003 4.108-16.754 6.54-25.562 7.359-7.425.691-14.664 1.432-21.995 1.432z" fill="#F5F5F6"/><path d="M27.82 154.798l-1.812 42.04 5.313 71.482 7.95.565 9.66-64.923 13.364-54.937-34.475 5.773z" fill="#3B455A"/><path d="M38.987 272.233l-8.903 3.689-3.994-4.605 4.604-3.993 8.598.611-.305 4.298zm45.114-132.311l1.745 31.777-5.177 94.486-7.96.397-11.931-61.97-10.524-67.958 33.847 3.268z" fill="#3B455A"/><path d="M72.922 269.937l8.824 3.874 4.09-4.519-4.52-4.089-8.609.43.215 4.304z" fill="#3B455A"/><path d="M25.734 48.967l24.048-6.771s13.873-.851 28.597 29.942c8.192 17.133 14.56 45.232 18.599 66.793-.057 3.183-1.13 17.263-15.728 17.377-25.07.197-38.724-1.54-49.019 2.227-8.72 3.5-10.064-9.093-10.68-18.773l-1.375-30.04 5.558-60.755z" fill="#FFCD4D"/><path d="M25.303 17.678c5.944-2.406 12.091-4.701 18.479-4.524 1.399.039 2.931.264 3.863 1.308.361.405.6.901.827 1.394 2.541 5.533 5.974 13.792 3.062 19.78-.556 1.14-1.396 2.115-2.335 2.95a13.775 13.775 0 0 1-4.263 2.564 24.837 24.837 0 0 0 2.096 3.976c-1.053 2.37-7.603 3.742-9.168 1.906l-1.102-5.269a13.32 13.32 0 0 1-2.51-.808c-3.13-1.378-5.464-3.88-7.076-6.848-1.755-3.232-3.96-6.213-5.624-9.528-.606-1.208-1.16-2.609-.685-3.874.506-1.347 1.974-2.025 3.307-2.568l1.13-.46z" fill="#F4D1C3"/><path d="M46.41 17.513c-3.383-1.446-8.104-1.515-10.938-.822-8.567 2.098-10.667 9.006-9.78 17.06-2.904-2.633-8.035-5.694-8.967-9.556-.764-3.162-1.06-7.599.264-10.665 1.24-2.868 5.287-5.015 7.584-6.945l6.494-5.456c.45-.379.913-.765 1.468-.96.655-.232 1.373-.176 2.067-.117l17.79 1.52c1.139.097 2.452.298 3.033 1.283.352.6.33 1.34.297 2.034-.146 3.059-.874 6.283-.675 9.322-.052 1.795.419 10.867-2.829 10.36-1.152-1.322-1.595-3.117-2.566-4.579-.717-1.08-1.869-1.892-3.242-2.479z" fill="#3B455A"/><path d="M49.785 42.196l9.52 1.222 38.926 29.04 3.901 11.08-11.387 28.774-5.888-8.844 3.427-20.42L76.39 77.37 56.822 47.887l-7.037-5.691z" fill="#FFCD4D"/><path d="M97.362 278.669l249.875-22.622-19.921-220.046L77.441 58.623l19.921 220.046z" fill="#fff" stroke="#8825CD" stroke-width="50"/><path d="M334.262 75.76L77.748 98.982 73.82 55.604 330.335 32.38l3.927 43.379z" fill="#8825CD"/><path d="M118.771 71.977l-8.428.763a3.026 3.026 0 0 1-3.275-2.731l-2.505-27.674a3.025 3.025 0 0 1 2.731-3.275l8.428-.763a3.025 3.025 0 0 1 3.275 2.731l2.506 27.674a3.025 3.025 0 0 1-2.732 3.275zm178.712-16.179l-8.428.763a3.023 3.023 0 0 1-3.275-2.73l-2.506-27.675a3.024 3.024 0 0 1 2.731-3.275l8.429-.763a3.023 3.023 0 0 1 3.274 2.732l2.506 27.673a3.024 3.024 0 0 1-2.731 3.275z" fill="#3B455A"/><path d="M469.327 269.058l.432 4.245-8.059 5.108-4.677-3.814 3.814-4.676 8.059-5.108.431 4.245z" fill="#2C3544"/><path d="M469.635 139.557l1.31 12.892-11.511 57.616 10.194 57.58-8.249 2.54-26.674-68.462-1.463-20.929 3.613-43.356 32.78 2.119z" fill="#3B455A"/><path d="M407.112 143.945l-.264 54.467 10.735 70.152 7.891-.053 4.55-64.827 10.363-64.867-33.275 5.128z" fill="#3B455A"/><path d="M425.453 271.839l-8.505 4.325-4.296-4.238 4.238-4.296 8.534-.057.029 4.266z" fill="#2C3544"/><path d="M400.468 135.952c5.692-17.636 6.299-36.154 7.955-54.524.491-5.42 1.012-10.96 3.268-15.913 2.591-5.687 6.875-8.69 11.864-10.329 6.352-2.087 13.847-1.967 20.451-2.37 6.265-.197 11.809 23.358 18.2 34.776 3.917 6.997 7.953 13.186 10.595 20.819 2.535 7.326 4.971 14.78 6.446 22.402 2.227 11.508 7.924 19.543 2.483 23.458-.499.165-.979.328-1.434.492-8.925 3.196-18.16 5.563-27.562 6.804-8.341 1.1-16.813 1.301-25.19.475-11.464-1.13-22.573-2.749-32.681-8.729l5.605-17.361z" fill="#39A89E"/><path d="M361.152 100.276l39.29-11.74 13.338-26.59 7.352 13.6-8.48 24.73-43.003 8.512-8.497-8.512z" fill="#39A89E"/><path d="M324.676 61.694l27.933-27.884 103.022 103.203-27.933 27.884L324.676 61.694z" fill="#FFB800"/><path d="M352.612 33.81l-38.866-11.002 10.933 38.886 27.933-27.884z" fill="#E1CFB5"/><path d="M328.328 26.936l-14.582-4.128 4.102 14.59 10.48-10.462z" fill="#3B455A"/><path d="M445.324 175.121l20.739-20.703a5.083 5.083 0 0 0 .006-7.188l-10.433-10.217-27.933 27.884 10.433 10.217a5.083 5.083 0 0 0 7.188.007z" fill="#D7E8F4"/><path d="M427.702 164.897l27.933-27.884-5.215-5.224-28.15 27.667 5.432 5.441z" fill="#E0E0E1"/><path d="M447.068 35.285c-3.569-10.776-19.296-14.528-22.952-2.004-1.098 3.763-1.759 7.756-1.013 11.605.747 3.849 3.1 7.542 6.689 9.12l.061.025c-.139.999-.28 1.997-.42 2.996-.03.215-.056.452.065.632.138.205.411.258.655.295l3.577.533c.591.088 1.206.175 1.775-.007 1.246-.399 1.764-1.891 1.819-3.199.013-.312.01-.628.005-.944 7.057-2.418 12.072-12.007 9.739-19.052z" fill="#F4D1C3"/><path d="M427.911 16.885c-2.88-.429-5.332 2.364-7.989 3.83-2.21 1.22-4.717 1.543-7.007 2.554-2.291 1.011-4.543 3.121-4.591 5.762-2.322-1.207-4.836-2.447-7.438-1.945-2.601.5-5.017 3.607-3.98 6.167.928 2.292 3.919 2.832 4.914 5.089 1.574 3.569-2.682 9.113.223 11.48.698.57 1.648.707 2.333 1.293.853.728 1.126 1.978 1.506 3.09 1.719 5.037 6.797 8.327 11.813 7.654 3.117-1.461 5.605-4.48 6.718-7.935 1.343-4.165-.885-5.62-1.261-9.529-.41-4.273.948-8.798 3.638-12.116 1.751-2.16 4.256-4.02 6.903-4.273 1.076-.103.737.795 1.948-.038.519-.357 1.229-1.709 1.376-2.356-2.897-2.33-5.317-8.164-9.106-8.727z" fill="#3B455A"/><path d="M459.051 22.425c1.486.413 3.1.353 4.514.973 2.126.932 1.997 3.139 2.599 5.055.666 2.122 1.635 4.97 3.034 6.62 1.009 1.19 2.42 1.868 3.649 2.786 1.229.917 2.358 2.272 2.332 3.926-.025 1.567-1.078 2.975-1.233 4.54-.187 2.333.216 3.528-.504 5.913-.371 1.23-.787 2.534-1.71 3.374-1.218 1.106-2.951 1.084-4.473.83-1.523-.255-3.098-.677-4.599-.172-3.256 1.095-2.648 4.389-3.515 7.15-1.319 4.199-6.19 6.651-9.916 5.157-3.159-1.267-4.988-4.935-4.845-8.556.072-1.813.794-3.503.846-5.317.05-1.75-.936-4.174.649-5.563.387-.338.883-.517 1.23-.902.28-.312.436-.73.534-1.147.337-1.446.019-3.024-.834-4.131-.612-.797-1.491-1.378-1.866-2.338-.43-1.1-.09-2.387-.017-3.603.176-2.94-1.432-5.822-3.88-6.957-1.613-.747-3.067-1.189-4.477-2.327-.215-.173-3.424-3.008-3.507-2.396.145-1.066.767-2 1.398-2.855 1.037-1.406 2.188-2.777 3.649-3.62 4.722-2.724 4.951 3.608 8.741 2.775.915-.201 1.604-1.04 2.427-1.54 1.555-.945 3.464-.607 5.054.101 1.59.709 3.048 1.758 4.72 2.224z" fill="#3B455A"/><path d="M411.162 120.715l-3.127 3.343-8.615 1.494-.436-4.818 5.959-2.912.367-2.579 3.314-.447 2.538 5.919z" fill="#F4D1C3"/><path d="M403.074 114.617l39.29-11.74 13.338-26.59 7.352 13.6-8.48 24.73-43.003 8.511-8.497-8.511z" fill="#39A89E"/><path d="M360.93 99.585l4.655-.994 5.835 4.47-4.408 5.142-4.41-3.604-1.672-5.014zm-258.799-47.9l-.889 4.676-6.383 3.646-3.03-6.058 5.032-2.667 5.27.403z" fill="#F4D1C3"/><path d="M35.203 64.102l-3.388 27.01 43.838 29.367-2.403 7.835-55.979-21.413-4.986-18.26L25.03 48.966l10.173 15.135z" fill="#FFCD4D"/><path d="M73.766 126.636l3.466 2.989 8.725.561-.082-4.836-6.237-2.257-.64-2.525-3.344-.089-1.888 6.157z" fill="#F4D1C3"/><path d="M158.15 128.861l.552 5.976-8.272.757 2.32 25.098-7.605.696-2.32-25.097-8.273.757-.552-5.975 24.15-2.212zm30.857-2.825l2.873 31.073-7.606.696-1.19-12.88-11.831 1.083 1.191 12.881-7.605.696-2.873-31.073 7.606-.697 1.129 12.217 11.83-1.083-1.129-12.217 7.605-.696zm27.291 23.302l-11.653 1.067-1.36 5.659-7.961.729 8.424-32.107 8.806-.806 14.169 30.038-8.05.737-2.375-5.317zm-2.445-5.579l-4.973-11.106-2.81 11.818 7.783-.712zm44.238 7.287l-7.605.696-14.492-18.001 1.772 19.166-7.605.696-2.873-31.073 7.606-.696 14.499 18.09-1.78-19.255 7.605-.696 2.873 31.073zm23.614-2.162l-11.765-12.761 1.269 13.722-7.605.696-2.873-31.073 7.605-.696 1.261 13.633 9.146-14.586 8.94-.819-10.69 16.334L291 148.032l-9.295.852zm-93.037 31.357l-8.884 21.793.949 10.27-7.605.696-.949-10.269-12.731-19.814 8.628-.791 7.248 12.416 4.805-13.519 8.539-.782zm20.731 29.75c-2.935.269-5.696-.163-8.283-1.295-2.556-1.135-4.673-2.845-6.349-5.132-1.65-2.319-2.615-4.998-2.896-8.038-.281-3.039.178-5.834 1.377-8.384 1.23-2.553 2.997-4.619 5.303-6.199 2.335-1.583 4.971-2.509 7.906-2.777 2.935-.269 5.681.164 8.238 1.299 2.586 1.132 4.688 2.844 6.305 5.136 1.647 2.289 2.611 4.954 2.892 7.993.281 3.04-.177 5.849-1.373 8.429-1.2 2.55-2.953 4.615-5.258 6.195-2.306 1.58-4.927 2.504-7.862 2.773zm-.646-6.994c2.49-.228 4.402-1.221 5.734-2.98 1.362-1.761 1.918-3.999 1.667-6.714-.251-2.715-1.208-4.815-2.87-6.299-1.633-1.488-3.694-2.117-6.185-1.889-2.52.231-4.461 1.227-5.823 2.988-1.333 1.759-1.873 3.996-1.622 6.711.251 2.715 1.192 4.816 2.825 6.303 1.662 1.484 3.753 2.111 6.274 1.88zm25.414-26.922l1.714 18.546c.172 1.859.764 3.248 1.776 4.167 1.012.919 2.407 1.298 4.186 1.135 1.779-.163 3.097-.79 3.953-1.88.856-1.09 1.198-2.565 1.026-4.424l-1.714-18.546 7.605-.697 1.714 18.547c.257 2.774-.119 5.174-1.128 7.201-1.009 2.026-2.476 3.619-4.402 4.777-1.897 1.156-4.076 1.846-6.536 2.072-2.461.225-4.714-.045-6.758-.81-2.017-.797-3.678-2.103-4.982-3.918-1.307-1.845-2.088-4.154-2.345-6.928l-1.714-18.546 7.605-.696zm33.791-4.211l1.07 21.284-6.449.591-2.849-21.121 8.228-.754zm-.995 32.901c-1.335.122-2.467-.161-3.398-.85-.904-.721-1.409-1.656-1.515-2.807-.109-1.181.214-2.207.971-3.08.786-.875 1.846-1.374 3.18-1.496 1.305-.12 2.409.181 3.313.902.934.718 1.455 1.667 1.564 2.847.106 1.151-.234 2.164-1.02 3.04-.759.843-1.791 1.324-3.095 1.444z" fill="#3B455A"/></svg>